{"glyphs":{"0":{"ha":751,"x_min":43,"x_max":722,"o":"m 540 115 q 456 66 500 82 q 366 50 411 50 q 277 67 321 50 q 194 119 233 85 q 99 251 135 172 q 53 420 64 331 q 55 603 43 510 q 101 778 67 697 q 192 922 136 860 q 324 1013 247 985 q 469 1017 396 1039 q 599 931 543 996 q 672 808 644 876 q 711 663 700 739 q 717 508 722 588 q 690 357 713 429 q 631 222 668 285 q 540 115 593 160 m 417 788 q 343 760 374 794 q 296 671 313 726 q 276 549 279 615 q 283 423 274 482 q 317 324 293 364 q 376 281 340 283 q 451 312 421 278 q 497 400 481 346 q 517 518 514 454 q 509 640 519 582 q 476 738 499 697 q 417 788 453 779 z "},"1":{"ha":389,"x_min":36,"x_max":349,"o":"m 119 654 q 49 710 61 681 q 61 793 36 739 q 107 894 82 840 q 154 993 132 947 q 197 1037 167 1019 q 258 1055 226 1054 q 314 1037 289 1056 q 343 974 339 1018 q 344 921 346 947 q 343 867 343 894 q 336 689 340 778 q 331 510 332 600 q 332 328 329 419 q 346 146 335 238 q 342 99 349 119 q 314 63 336 78 q 267 51 293 49 q 219 68 242 53 q 150 180 169 106 q 126 341 131 254 q 124 513 122 428 q 119 654 126 597 z "},"2":{"ha":700,"x_min":36,"x_max":654,"o":"m 374 274 q 422 273 393 274 q 480 270 450 272 q 540 263 510 268 q 592 251 569 258 q 638 215 622 240 q 650 164 654 189 q 629 111 646 133 q 583 90 613 89 q 470 85 528 92 q 357 71 413 79 q 252 56 301 63 q 164 49 203 49 q 108 60 132 49 q 70 93 85 72 q 52 142 56 114 q 58 200 49 169 q 107 297 74 251 q 176 389 140 342 q 246 479 206 426 q 323 592 286 532 q 387 714 360 653 q 417 829 414 775 q 413 869 418 851 q 394 895 408 888 q 357 897 381 903 q 299 869 333 892 q 261 838 279 857 q 228 802 243 819 q 203 771 214 785 q 189 753 193 757 q 137 732 165 732 q 85 748 108 732 q 49 792 63 764 q 42 854 36 819 q 76 935 49 896 q 144 1006 103 974 q 235 1060 185 1038 q 338 1090 285 1082 q 443 1090 392 1099 q 539 1053 494 1082 q 608 980 583 1021 q 640 892 632 939 q 642 795 649 846 q 619 693 636 744 q 515 476 579 576 q 374 274 451 375 z "},"3":{"ha":790,"x_min":51,"x_max":751,"o":"m 269 835 q 216 799 246 806 q 160 805 186 793 q 117 844 135 817 q 99 908 99 871 q 129 994 99 957 q 206 1056 160 1031 q 306 1094 251 1081 q 407 1113 360 1108 q 529 1096 472 1118 q 622 1032 586 1074 q 668 933 658 990 q 649 813 678 876 q 616 749 635 781 q 578 686 597 718 q 593 675 585 681 q 608 664 601 669 q 719 521 688 601 q 732 340 751 440 q 678 201 717 263 q 583 99 639 139 q 456 40 526 58 q 308 32 386 22 q 228 52 269 38 q 149 92 186 67 q 87 151 113 117 q 56 229 61 185 q 63 281 51 258 q 94 318 74 304 q 139 335 114 332 q 188 326 164 339 q 263 302 224 307 q 343 301 303 297 q 392 317 368 304 q 434 348 415 329 q 465 390 453 367 q 479 439 476 414 q 471 490 482 472 q 440 514 460 507 q 397 522 421 521 q 350 525 372 524 q 296 538 319 526 q 260 579 272 550 q 275 683 233 639 q 320 731 297 708 q 367 776 343 753 q 431 853 417 824 q 439 897 446 882 q 408 912 432 911 q 358 903 385 913 q 305 876 331 894 q 269 835 279 858 z "},"4":{"ha":775,"x_min":50,"x_max":733,"o":"m 457 344 q 344 331 397 338 q 239 317 292 325 q 198 310 218 313 q 158 308 178 307 q 119 317 138 310 q 85 340 101 325 q 56 387 63 360 q 56 442 50 414 q 74 497 61 469 q 103 546 88 525 q 169 647 136 589 q 235 768 201 704 q 306 899 269 832 q 383 1032 343 967 q 431 1062 397 1056 q 495 1060 464 1068 q 547 1028 526 1051 q 557 972 567 1006 q 524 867 542 919 q 485 758 507 814 q 433 644 463 703 q 364 521 403 585 q 421 525 393 524 q 479 529 449 526 q 490 574 485 549 q 501 624 494 599 q 515 674 507 650 q 535 717 524 697 q 572 753 549 740 q 628 763 596 765 q 707 737 681 760 q 733 665 733 714 q 726 527 732 596 q 717 388 721 458 q 712 247 713 318 q 719 101 711 175 q 709 46 722 68 q 674 13 696 24 q 625 3 653 3 q 570 13 597 3 q 522 44 543 24 q 489 94 500 65 q 464 213 469 147 q 457 344 458 278 z "},"5":{"ha":719,"x_min":40,"x_max":685,"o":"m 263 713 q 397 733 338 733 q 503 721 456 733 q 592 672 556 707 q 651 588 629 636 q 678 482 672 539 q 678 368 685 425 q 650 258 671 311 q 596 163 629 204 q 518 88 563 121 q 424 35 474 54 q 322 10 375 15 q 215 21 268 6 q 123 68 167 35 q 51 168 79 101 q 49 230 40 200 q 76 281 57 260 q 123 310 96 301 q 176 306 150 318 q 288 269 236 278 q 378 275 340 261 q 440 325 417 289 q 463 422 463 361 q 449 504 463 475 q 415 545 436 533 q 367 554 393 557 q 315 542 340 551 q 266 517 289 532 q 231 490 243 503 q 174 454 207 467 q 111 444 140 442 q 63 467 82 446 q 46 532 43 488 q 60 739 54 644 q 67 924 65 833 q 78 984 67 957 q 111 1028 90 1011 q 159 1049 132 1044 q 218 1043 186 1054 q 294 1028 250 1032 q 385 1025 338 1025 q 478 1027 432 1025 q 565 1028 525 1029 q 624 1001 604 1028 q 646 938 644 974 q 630 865 647 901 q 576 811 613 829 q 509 799 549 799 q 426 805 469 799 q 339 819 382 811 q 263 829 296 826 l 263 713 z "},"6":{"ha":771,"x_min":36,"x_max":735,"o":"m 319 639 q 456 642 388 656 q 582 592 525 628 q 678 504 639 557 q 726 392 718 451 q 718 276 735 333 q 664 170 701 218 q 570 90 626 122 q 443 50 514 58 q 349 52 396 44 q 258 78 301 60 q 176 126 214 97 q 110 192 139 154 q 51 319 65 250 q 44 463 36 389 q 80 613 53 538 q 145 756 107 688 q 228 882 183 824 q 318 982 274 940 q 375 1020 346 1004 q 440 1035 404 1036 q 494 1017 467 1033 q 541 974 522 1000 q 564 919 560 949 q 550 864 568 890 q 503 816 533 840 q 440 764 474 792 q 374 706 407 736 q 319 639 342 675 m 422 290 q 464 315 447 297 q 483 364 481 333 q 474 399 485 383 q 445 426 463 415 q 408 442 428 438 q 369 444 388 447 q 331 425 347 440 q 308 390 315 410 q 303 348 301 369 q 319 310 306 326 q 358 288 332 294 q 422 290 383 281 z "},"7":{"ha":810,"x_min":42,"x_max":771,"o":"m 679 521 q 763 464 750 521 q 758 410 771 432 q 724 375 746 389 q 673 352 701 361 q 621 338 644 343 q 587 328 604 331 q 551 321 569 325 q 529 196 535 258 q 517 88 524 133 q 482 35 510 51 q 424 21 454 18 q 354 38 378 14 q 322 101 331 61 q 317 190 314 140 q 326 288 319 240 q 286 287 304 288 q 251 288 268 286 q 168 349 183 289 q 173 401 161 376 q 214 442 185 426 q 273 467 242 457 q 338 490 304 476 q 368 620 353 553 q 400 760 383 688 q 344 754 372 760 q 288 743 315 749 q 231 733 260 738 q 171 732 201 729 q 78 767 115 736 q 42 872 42 799 q 65 930 42 904 q 129 961 89 956 q 320 990 224 981 q 522 1015 417 1000 q 600 1007 565 1021 q 656 966 635 993 q 683 900 678 939 q 675 818 689 861 q 617 674 643 743 q 571 521 592 604 l 679 521 z "},"8":{"ha":746,"x_min":33,"x_max":719,"o":"m 619 482 q 706 330 692 404 q 692 194 719 256 q 603 89 664 133 q 465 26 542 44 q 303 17 388 7 q 143 75 218 26 q 65 160 93 107 q 35 272 38 213 q 58 388 33 331 q 138 486 83 444 q 58 596 82 533 q 41 722 35 658 q 81 846 47 786 q 171 947 114 906 q 278 1003 219 982 q 398 1024 338 1024 q 517 1004 458 1025 q 624 938 575 983 q 690 838 668 894 q 710 719 711 781 q 687 596 710 657 q 619 482 664 535 m 282 628 q 324 588 293 594 q 388 594 356 581 q 442 640 419 608 q 460 717 465 672 q 438 776 456 757 q 397 796 419 794 q 349 784 374 797 q 306 748 324 771 q 279 694 288 725 q 282 628 271 663 m 268 285 q 279 251 269 261 q 317 236 289 240 q 394 239 357 233 q 465 264 431 244 q 488 283 481 271 q 496 309 496 296 q 488 333 496 322 q 464 349 479 344 q 408 360 442 357 q 342 359 374 364 q 289 337 311 354 q 268 285 267 319 z "},"9":{"ha":768,"x_min":32,"x_max":728,"o":"m 490 379 q 331 325 410 321 q 189 375 253 329 q 86 492 124 422 q 40 638 49 561 q 53 792 32 715 q 129 932 75 869 q 248 1015 175 986 q 399 1044 321 1044 q 572 1000 507 1044 q 671 883 636 956 q 717 715 706 810 q 728 521 728 621 q 704 336 728 426 q 632 168 681 246 q 517 51 583 93 q 360 17 451 10 q 217 85 276 21 q 188 131 199 104 q 180 184 178 158 q 197 231 182 210 q 246 260 213 251 q 289 258 268 263 q 351 258 324 254 q 403 275 379 261 q 447 314 426 289 q 490 379 468 339 m 318 821 q 269 785 290 811 q 235 728 247 760 q 224 662 224 696 q 242 601 225 628 q 274 567 254 578 q 315 556 293 557 q 361 562 338 554 q 406 583 385 569 q 451 631 436 603 q 466 690 465 660 q 456 747 467 719 q 426 794 446 775 q 378 822 406 814 q 318 821 350 831 z "},"\u0000":{"ha":0,"x_min":0,"x_max":0,"o":""},"\r":{"ha":481,"x_min":0,"x_max":0,"o":""}," ":{"ha":558,"x_min":0,"x_max":0,"o":""},"$":{"ha":719,"x_min":38,"x_max":682,"o":"m 303 975 q 294 1057 299 1024 q 289 1106 290 1090 q 307 1156 286 1138 q 355 1178 328 1175 q 408 1168 382 1182 q 443 1121 433 1154 q 455 1055 453 1089 q 460 986 457 1021 q 503 981 478 985 q 554 967 529 976 q 600 945 579 958 q 632 913 621 932 q 644 874 642 896 q 641 830 646 851 q 625 790 636 808 q 597 763 614 772 q 534 747 569 747 q 479 753 499 747 q 394 765 439 763 q 322 762 350 768 q 291 739 293 756 q 333 696 289 722 q 392 671 363 682 q 453 646 422 660 q 542 599 497 625 q 618 538 586 574 q 666 457 650 503 q 671 350 682 411 q 592 196 651 249 q 446 122 532 143 q 447 83 446 103 q 444 43 447 63 q 394 -28 442 -17 q 346 -26 369 -35 q 310 10 322 -17 q 303 35 304 22 q 304 63 303 49 q 306 90 306 76 q 300 118 306 104 q 218 136 267 122 q 128 178 169 150 q 62 252 86 207 q 54 365 38 297 q 103 415 68 403 q 175 403 139 428 q 250 368 206 382 q 336 357 294 354 q 392 369 367 358 q 426 397 417 381 q 426 433 436 414 q 374 469 415 453 q 303 497 339 483 q 232 526 267 510 q 165 564 197 543 q 106 614 133 585 q 49 735 50 674 q 83 847 49 796 q 177 933 117 899 q 303 975 238 968 z "},"%":{"ha":1018,"x_min":42,"x_max":974,"o":"m 744 1003 q 805 1038 778 1032 q 874 1025 832 1044 q 917 997 897 1014 q 947 960 936 981 q 955 919 957 940 q 932 878 953 897 q 753 681 842 788 q 586 462 665 574 q 439 241 507 350 q 319 40 371 132 q 263 3 299 4 q 194 24 226 3 q 142 81 161 46 q 136 150 122 115 q 198 267 154 193 q 300 428 242 342 q 424 608 358 515 q 551 780 489 700 q 664 919 613 860 q 744 1003 715 979 m 229 554 q 113 592 158 556 q 53 694 68 628 q 51 788 42 742 q 86 872 61 833 q 149 940 111 911 q 233 979 186 968 q 293 982 264 986 q 349 965 322 978 q 399 933 376 953 q 436 890 421 914 q 463 808 463 851 q 446 724 463 765 q 399 646 429 682 q 332 585 368 610 q 283 561 308 568 q 229 554 258 554 m 204 739 q 224 706 204 715 q 267 707 243 696 q 288 720 275 710 q 313 744 301 731 q 328 773 324 758 q 321 799 332 788 q 276 822 297 819 q 240 815 256 825 q 214 785 224 806 q 204 739 204 765 m 740 43 q 624 81 669 44 q 564 183 579 117 q 563 276 553 231 q 597 361 572 322 q 660 428 622 400 q 744 468 697 457 q 804 471 775 475 q 860 454 833 467 q 910 422 888 442 q 947 379 932 403 q 974 297 974 340 q 957 213 974 254 q 910 135 940 171 q 843 74 879 99 q 794 50 819 57 q 740 43 769 43 m 715 228 q 735 194 715 204 q 778 196 754 185 q 799 209 786 199 q 824 233 813 219 q 839 262 835 247 q 832 288 843 276 q 788 311 808 308 q 751 304 767 314 q 725 274 735 294 q 715 228 715 254 z "},"&":{"ha":1132,"x_min":39,"x_max":1086,"o":"m 664 306 q 612 303 640 303 q 558 313 583 304 q 518 342 533 322 q 507 399 503 363 q 524 453 508 425 q 575 483 540 481 q 660 488 610 486 q 768 492 710 490 q 892 494 826 493 q 1024 494 957 494 q 1066 476 1050 494 q 1084 434 1082 458 q 1072 383 1086 410 q 1025 340 1058 357 q 982 326 1004 329 q 932 321 960 324 q 949 265 935 292 q 983 215 964 239 q 1021 167 1001 190 q 1054 119 1040 143 q 1055 71 1069 94 q 1021 32 1040 47 q 992 15 1010 24 q 952 0 974 7 q 910 -10 931 -7 q 874 -8 889 -12 q 835 14 851 -3 q 806 54 818 31 q 786 106 794 78 q 772 165 778 135 q 639 21 722 74 q 463 -40 556 -32 q 278 -11 371 -49 q 117 114 186 26 q 50 276 61 190 q 65 444 39 363 q 151 594 90 525 q 297 708 211 664 q 251 835 251 772 q 281 952 250 899 q 367 1046 311 1006 q 492 1103 424 1086 q 613 1115 551 1118 q 731 1088 675 1111 q 833 1024 788 1065 q 907 919 879 982 q 915 868 921 893 q 890 823 908 843 q 847 788 872 803 q 794 768 821 774 q 745 767 768 763 q 710 788 722 771 q 653 851 686 822 q 592 892 621 881 q 503 899 529 915 q 483 851 476 883 q 528 784 489 819 q 636 735 567 749 q 676 702 665 731 q 678 642 688 674 q 639 584 669 610 q 554 560 608 558 q 513 558 532 561 q 474 551 493 556 q 371 503 413 536 q 308 428 329 469 q 285 345 286 388 q 306 269 285 303 q 372 216 328 236 q 485 201 415 196 q 585 235 538 206 q 664 306 632 265 z "},"@":{"ha":1139,"x_min":31,"x_max":1100,"o":"m 719 422 q 697 398 708 410 q 672 375 686 386 q 626 345 651 357 q 572 329 600 333 q 518 331 544 325 q 469 353 492 336 q 390 453 411 396 q 377 568 369 510 q 417 680 385 626 q 501 770 450 733 q 619 819 553 807 q 758 810 685 832 q 826 765 806 794 q 847 688 846 736 q 860 569 849 628 q 881 540 865 544 q 917 551 897 536 q 940 594 939 571 q 940 644 942 618 q 895 799 938 739 q 790 885 853 858 q 652 908 726 913 q 511 868 578 903 q 416 796 458 840 q 344 697 374 751 q 302 583 315 643 q 296 467 289 524 q 332 358 303 410 q 418 271 361 307 q 551 222 485 226 q 679 233 617 217 q 799 278 742 250 q 906 329 856 306 q 970 334 942 346 q 1015 295 999 322 q 1033 234 1031 268 q 1018 172 1035 200 q 965 119 1001 143 q 889 69 929 96 q 697 -15 794 8 q 507 -28 599 -37 q 334 18 415 -19 q 190 116 253 56 q 87 256 126 176 q 39 429 47 336 q 50 599 31 515 q 110 760 69 683 q 210 903 151 838 q 342 1015 269 968 q 499 1088 415 1063 q 672 1111 583 1114 q 849 1070 768 1108 q 985 966 929 1032 q 1071 812 1042 900 q 1092 624 1100 724 q 1077 533 1089 576 q 1043 453 1065 489 q 988 393 1021 418 q 910 360 956 368 q 807 371 853 349 q 719 422 761 393 m 649 549 q 667 606 669 585 q 649 635 665 628 q 609 638 633 643 q 561 613 585 632 q 538 563 538 593 q 553 515 538 533 q 595 500 569 497 q 649 549 621 503 z "},"`":{"ha":482,"x_min":53,"x_max":450,"o":"m 419 983 q 366 944 400 950 q 301 963 332 939 q 244 1004 278 981 q 175 1054 210 1028 q 110 1108 140 1081 q 67 1158 81 1135 q 56 1210 53 1185 q 78 1257 60 1236 q 122 1285 94 1276 q 174 1282 149 1293 q 203 1268 189 1276 q 229 1249 218 1260 q 316 1167 274 1208 q 400 1085 358 1126 q 419 983 450 1032 z "},"€":{"ha":1076,"x_min":35,"x_max":1029,"o":"m 204 288 q 153 279 179 283 q 99 279 128 275 q 55 300 71 282 q 36 342 39 318 q 49 385 35 365 q 88 413 63 404 q 131 423 108 419 q 178 432 154 426 q 178 535 168 474 l 114 535 q 46 583 50 535 q 56 626 42 607 q 97 653 69 646 q 153 660 125 658 q 215 667 182 663 q 278 800 236 736 q 379 913 319 864 q 517 988 439 961 q 690 1011 596 1015 q 792 994 742 1008 q 886 951 843 979 q 959 883 929 924 q 999 786 989 842 q 985 716 1006 749 q 931 667 964 683 q 858 658 897 651 q 790 704 819 664 q 709 768 757 750 q 613 777 661 786 q 525 733 565 768 q 467 638 485 697 q 522 638 492 638 q 583 637 551 638 q 647 635 615 636 q 708 631 679 633 q 747 610 736 628 q 754 572 758 592 q 735 545 750 553 q 690 536 719 538 q 559 532 624 533 q 432 526 494 531 q 426 496 429 511 q 421 461 424 481 q 469 465 440 463 q 528 470 497 468 q 589 473 560 472 q 639 472 618 474 q 676 454 663 468 q 688 421 689 440 q 644 365 689 376 q 603 358 628 361 q 551 352 578 356 q 500 344 525 349 q 458 335 475 340 q 540 247 493 264 q 634 249 586 231 q 726 313 682 268 q 803 413 771 358 q 876 469 835 460 q 953 461 918 479 q 1009 403 989 443 q 1017 313 1029 364 q 942 160 996 226 q 813 52 888 93 q 652 0 739 11 q 482 15 565 -11 q 325 107 399 40 q 204 288 251 174 z "},"¢":{"ha":825,"x_min":47,"x_max":781,"o":"m 508 922 q 572 908 539 919 q 632 874 604 896 q 682 822 660 853 q 714 749 704 790 q 701 677 724 706 q 644 637 678 649 q 577 630 611 625 q 531 660 543 635 q 467 724 506 710 q 393 724 429 738 q 331 673 357 710 q 303 585 304 636 q 317 499 301 538 q 361 438 332 460 q 431 418 390 417 q 518 453 471 419 q 544 478 531 463 q 573 510 558 493 q 601 542 588 526 q 629 567 615 558 q 682 576 653 581 q 735 552 711 571 q 769 503 758 533 q 768 439 781 474 q 727 359 751 393 q 675 299 703 325 q 617 256 647 274 q 560 226 588 239 q 560 152 560 190 q 549 67 560 114 q 519 25 543 40 q 469 7 496 10 q 418 15 442 4 q 389 54 394 26 q 372 138 376 111 q 361 189 367 164 q 201 231 268 188 q 97 345 135 275 q 53 501 60 415 q 74 667 47 586 q 162 812 100 747 q 324 906 224 876 q 317 952 321 929 q 314 999 314 975 q 342 1060 314 1036 q 403 1092 369 1085 q 465 1089 436 1100 q 499 1044 494 1078 q 503 985 501 1017 q 508 922 506 953 z "},"£":{"ha":864,"x_min":54,"x_max":829,"o":"m 243 415 q 190 413 221 417 q 131 411 160 410 q 82 425 103 413 q 58 471 61 438 q 69 503 57 490 q 100 522 82 515 q 140 534 118 529 q 178 544 161 539 q 109 674 126 607 q 101 803 92 740 q 144 920 111 865 q 228 1013 178 975 q 342 1068 278 1051 q 475 1072 406 1085 q 567 1043 522 1064 q 644 989 611 1022 q 699 909 678 956 q 719 803 719 863 q 706 747 719 774 q 667 706 693 719 q 599 683 635 688 q 539 699 563 679 q 522 721 529 707 q 510 751 515 735 q 499 782 504 767 q 485 810 493 797 q 435 856 460 846 q 389 858 410 867 q 353 826 368 850 q 333 772 338 803 q 337 708 329 742 q 368 644 344 674 q 424 595 397 608 q 480 582 451 582 q 542 590 508 582 q 618 606 575 599 q 670 601 649 611 q 700 568 692 592 q 700 522 710 544 q 663 485 690 499 q 564 452 621 463 q 458 432 507 442 q 454 343 465 383 q 425 265 443 303 q 497 236 465 238 q 553 250 528 235 q 601 292 579 265 q 643 349 622 319 q 692 376 660 372 q 756 368 725 381 q 808 329 788 356 q 821 265 829 303 q 776 162 808 210 q 698 82 743 114 q 599 38 653 50 q 489 40 544 25 q 430 58 458 47 q 374 82 401 69 q 331 92 350 93 q 292 74 313 90 q 210 28 256 47 q 145 24 175 15 q 90 58 115 33 q 69 88 78 71 q 58 122 61 104 q 58 156 54 139 q 75 185 63 172 q 133 235 103 211 q 188 285 163 260 q 228 342 213 311 q 243 415 243 374 z "},"¤":{"ha":897,"x_min":32,"x_max":840,"o":"m 599 876 q 628 902 613 888 q 660 930 644 917 q 691 954 676 943 q 718 969 706 965 q 775 969 746 982 q 822 932 804 957 q 840 875 840 907 q 810 817 840 843 q 776 786 792 801 q 743 754 760 771 l 749 749 q 826 535 821 651 q 765 310 832 418 q 800 242 786 274 q 817 183 814 211 q 808 127 824 154 q 766 85 792 100 q 712 76 740 71 q 664 117 683 81 q 647 145 656 132 q 628 172 638 158 q 519 130 578 142 q 394 128 461 118 q 290 154 335 136 l 260 107 q 200 59 232 67 q 140 67 168 51 q 100 112 113 81 q 108 186 88 143 q 124 219 115 203 q 144 256 133 236 q 105 309 122 281 q 74 372 88 338 q 53 560 38 464 q 126 735 68 657 l 69 790 q 33 858 35 826 q 56 913 32 890 q 111 939 76 935 q 185 914 146 943 q 224 883 204 899 q 265 850 244 868 q 440 905 356 899 q 599 876 524 911 m 500 351 q 568 403 543 371 q 601 470 593 435 q 601 542 608 506 q 573 610 593 579 q 522 662 553 640 q 450 689 490 683 q 352 667 389 696 q 301 592 315 638 q 294 493 288 546 q 328 400 301 440 q 397 343 354 360 q 500 351 440 326 z "},"¥":{"ha":1039,"x_min":35,"x_max":1004,"o":"m 675 507 q 727 508 701 507 q 781 504 753 508 q 840 453 832 492 q 837 424 843 438 q 818 401 831 411 q 790 385 806 392 q 760 378 775 379 l 683 365 q 685 335 685 350 q 685 306 685 321 q 747 313 717 310 q 793 313 776 315 q 829 292 815 307 q 845 257 843 276 q 837 219 847 238 q 799 189 826 200 q 788 184 794 186 q 769 179 782 182 q 735 172 757 176 q 679 163 714 168 q 677 126 678 151 q 676 92 676 101 q 659 36 678 58 q 612 2 640 14 q 550 -11 583 -10 q 489 -4 517 -12 q 440 22 461 4 q 411 69 419 40 q 403 132 403 99 q 319 128 363 129 q 235 142 275 128 q 192 172 207 150 q 176 218 178 194 q 190 260 175 242 q 239 283 206 279 q 314 290 276 288 q 385 299 351 293 l 383 332 q 290 333 322 332 q 235 343 258 333 q 194 374 208 353 q 178 419 179 396 q 192 460 178 442 q 239 485 207 479 q 294 492 267 490 q 350 497 322 494 q 242 573 299 522 q 140 691 186 624 q 65 837 94 758 q 36 994 35 915 q 62 1069 38 1039 q 132 1110 86 1099 q 232 1115 185 1126 q 300 1051 279 1104 q 356 912 329 975 q 411 806 383 849 q 469 746 439 763 q 534 747 499 729 q 611 820 569 764 q 706 981 653 876 q 758 1060 732 1032 q 813 1097 783 1089 q 875 1094 842 1106 q 949 1057 908 1083 q 992 1006 979 1038 q 993 932 1004 975 q 956 832 982 888 q 891 719 931 776 q 797 606 851 661 q 675 507 743 550 z "},"~":{"ha":806,"x_min":64,"x_max":771,"o":"m 438 682 q 488 623 465 654 q 540 561 511 592 q 564 543 557 544 q 573 554 571 542 q 574 592 575 567 q 572 654 572 618 q 596 712 572 692 q 651 735 619 732 q 712 722 682 738 q 753 674 742 707 q 769 561 771 615 q 751 464 768 507 q 701 392 733 421 q 626 358 668 364 q 567 364 596 354 q 510 391 538 374 q 459 431 483 408 q 415 476 435 454 q 353 535 376 521 q 313 535 329 549 q 285 482 297 521 q 258 383 274 443 q 231 347 253 361 q 164 333 208 332 q 127 339 146 333 q 94 358 108 344 q 72 391 81 371 q 67 440 64 411 q 85 533 69 485 q 127 623 101 581 q 188 697 153 665 q 263 742 222 729 q 347 741 303 754 q 438 682 392 728 z "},"^":{"ha":618,"x_min":56,"x_max":551,"o":"m 294 853 q 248 776 271 815 q 193 704 225 738 q 144 672 171 681 q 90 688 118 664 q 64 731 72 704 q 67 785 56 757 q 99 858 81 822 q 139 930 118 893 q 180 1006 160 967 q 217 1092 200 1046 q 249 1144 228 1124 q 301 1169 269 1165 q 360 1156 333 1172 q 397 1107 388 1140 q 428 1020 410 1063 q 466 938 446 978 q 506 862 486 899 q 542 792 525 825 q 549 749 551 771 q 534 712 546 728 q 503 688 522 696 q 464 686 485 679 q 369 753 408 704 q 294 853 329 801 z "},"_":{"ha":857,"x_min":78,"x_max":807,"o":"m 749 11 q 650 -8 717 1 q 503 -22 583 -17 q 338 -28 422 -28 q 188 -21 254 -29 q 145 -12 165 -18 q 110 5 125 -6 q 86 33 94 15 q 78 75 78 50 q 117 152 81 129 q 224 175 153 175 q 466 172 346 175 q 708 167 586 169 q 738 161 724 165 q 765 150 753 157 q 797 119 788 139 q 805 77 807 99 q 788 38 803 56 q 749 11 774 19 z "},"?":{"ha":783,"x_min":21,"x_max":757,"o":"m 692 1026 q 744 939 732 986 q 747 842 757 892 q 712 746 738 790 q 653 660 686 701 q 585 578 621 618 q 521 499 550 539 q 474 415 492 458 q 458 325 456 372 q 440 282 460 300 q 390 257 419 264 q 327 255 360 250 q 270 281 294 260 q 237 339 246 301 q 246 435 228 376 q 283 534 263 490 q 329 618 304 578 q 383 699 354 658 q 446 786 413 739 q 472 863 482 836 q 428 898 461 890 q 351 896 394 906 q 278 861 308 886 q 267 833 263 849 q 281 799 271 817 q 304 763 292 782 q 321 726 317 744 q 308 661 328 688 q 258 619 289 635 q 178 610 217 600 q 110 646 140 619 q 58 708 79 672 q 32 781 38 744 q 37 889 21 840 q 87 975 53 938 q 169 1040 121 1013 q 270 1085 217 1068 q 379 1107 324 1101 q 483 1108 435 1113 q 603 1082 550 1101 q 692 1026 656 1063 m 351 -18 q 283 -3 311 -19 q 242 36 256 13 q 229 88 229 60 q 243 141 229 117 q 285 181 257 165 q 356 199 313 197 q 425 185 397 200 q 467 147 453 169 q 480 96 481 124 q 465 44 479 68 q 423 2 451 19 q 351 -18 394 -15 z "},">":{"ha":668,"x_min":46,"x_max":599,"o":"m 217 157 q 153 137 185 136 q 86 179 122 138 q 65 279 46 229 q 93 326 74 300 q 139 381 113 353 q 197 439 165 410 q 263 496 229 468 q 197 552 229 522 q 139 610 165 582 q 93 665 113 639 q 65 713 74 692 q 86 813 46 763 q 153 855 122 854 q 217 835 185 856 q 296 769 253 803 q 385 701 339 735 q 479 633 432 667 q 569 569 526 600 q 591 538 583 558 q 599 494 599 517 q 591 452 599 472 q 569 422 583 432 q 479 358 526 390 q 385 291 432 325 q 296 223 339 257 q 217 157 253 189 z "},"=":{"ha":647,"x_min":47,"x_max":603,"o":"m 521 671 q 577 655 556 669 q 601 600 599 640 q 563 533 603 556 q 476 510 533 519 q 353 498 418 501 q 227 497 289 494 q 125 508 165 500 q 70 537 93 517 q 50 601 47 557 q 72 653 53 629 q 124 675 92 676 q 223 672 171 674 q 327 669 275 671 q 428 668 379 668 q 521 671 478 668 m 521 428 q 577 412 556 426 q 601 357 599 397 q 563 290 603 313 q 476 267 533 276 q 353 255 418 258 q 227 254 289 251 q 125 265 165 257 q 70 294 93 274 q 50 358 47 314 q 72 410 53 386 q 124 432 92 433 q 223 429 171 431 q 327 426 275 428 q 428 425 379 425 q 521 428 478 425 z "},"<":{"ha":668,"x_min":63,"x_max":614,"o":"m 444 157 q 365 223 408 189 q 276 291 322 257 q 182 358 229 325 q 92 422 135 390 q 69 452 76 432 q 63 494 63 472 q 69 538 63 517 q 92 569 76 558 q 182 633 135 600 q 276 701 229 667 q 365 769 322 735 q 444 835 408 803 q 508 855 476 856 q 575 813 539 854 q 596 713 614 763 q 568 665 588 692 q 522 610 549 639 q 464 552 496 582 q 399 496 432 522 q 464 439 432 468 q 522 381 496 410 q 568 326 549 353 q 596 279 588 300 q 575 179 614 229 q 508 137 539 138 q 444 157 476 136 z "},";":{"ha":382,"x_min":64,"x_max":326,"o":"m 313 651 q 304 607 313 628 q 281 570 296 586 q 246 544 267 554 q 203 532 225 533 q 159 539 179 531 q 123 562 139 547 q 97 597 107 576 q 85 640 86 617 q 115 727 82 692 q 197 764 147 763 q 278 732 244 765 q 313 651 311 699 m 317 374 q 321 295 326 344 q 298 199 315 246 q 250 119 281 151 q 179 92 219 88 q 138 115 151 94 q 129 171 125 135 q 129 223 135 201 q 100 264 124 244 q 68 320 72 288 q 81 389 64 353 q 134 444 100 425 q 203 464 168 464 q 270 442 239 464 q 317 374 301 419 z "},"[":{"ha":757,"x_min":96,"x_max":708,"o":"m 96 1076 q 99 1135 96 1110 q 119 1175 103 1160 q 165 1196 135 1190 q 249 1197 196 1201 q 335 1188 285 1194 q 437 1172 385 1181 q 538 1152 489 1163 q 619 1132 586 1142 q 649 1122 633 1128 q 677 1106 664 1115 q 699 1081 690 1096 q 708 1044 708 1067 q 706 1017 708 1031 q 694 993 703 1004 q 672 976 686 982 q 636 969 658 969 q 564 978 601 971 q 488 994 526 986 q 412 1010 449 1003 q 343 1021 375 1018 q 343 56 326 538 q 412 65 375 57 q 488 82 449 74 q 564 98 526 90 q 636 107 601 106 q 672 101 658 107 q 694 83 686 94 q 706 59 703 72 q 708 32 708 46 q 699 -5 708 10 q 677 -29 690 -19 q 649 -45 664 -39 q 619 -56 633 -51 q 538 -76 586 -67 q 437 -95 489 -86 q 335 -111 385 -104 q 249 -121 285 -118 q 165 -119 196 -125 q 119 -99 135 -114 q 99 -58 103 -83 q 96 0 96 -33 q 99 81 97 38 q 101 183 101 125 q 102 320 101 242 q 101 506 103 399 q 99 753 100 613 q 96 1076 97 893 z "},"z":{"ha":731,"x_min":36,"x_max":701,"o":"m 421 738 q 349 728 393 732 q 258 726 306 724 q 163 739 210 728 q 85 774 117 750 q 44 832 53 797 q 46 897 36 867 q 81 948 56 928 q 144 963 107 968 q 251 956 196 957 q 358 955 306 954 q 460 958 411 956 q 549 963 508 960 q 633 944 599 963 q 685 892 668 925 q 697 817 701 860 q 663 729 692 775 q 576 608 621 665 q 485 497 531 550 q 397 392 440 443 q 317 289 354 340 q 372 295 339 292 q 442 299 404 299 q 517 297 479 300 q 589 282 556 293 q 647 251 622 271 q 683 197 672 231 q 686 149 690 174 q 668 103 682 124 q 632 71 654 83 q 582 58 610 58 q 423 58 508 60 q 253 50 338 57 q 140 65 188 46 q 68 121 92 83 q 50 212 44 158 q 97 328 56 265 q 170 427 131 381 q 249 522 210 474 q 337 627 293 575 q 421 738 381 679 z "},"{":{"ha":763,"x_min":44,"x_max":724,"o":"m 85 524 q 47 578 50 546 q 85 638 44 611 q 169 681 129 665 q 238 710 208 697 q 286 738 268 724 q 307 776 304 753 q 294 835 310 799 q 243 931 279 872 q 200 1019 217 974 q 189 1106 183 1064 q 228 1184 194 1147 q 338 1249 263 1221 q 440 1272 386 1267 q 542 1270 493 1278 q 633 1243 592 1263 q 696 1190 674 1224 q 719 1116 719 1154 q 700 1049 718 1078 q 649 1003 682 1019 q 578 994 617 988 q 501 993 528 1003 q 465 963 474 983 q 462 917 456 943 q 485 869 468 892 q 523 792 511 832 q 528 713 535 751 q 497 641 522 675 q 426 581 472 607 q 497 519 472 553 q 528 447 522 485 q 523 369 535 410 q 485 292 511 329 q 462 244 468 268 q 464 201 456 219 q 499 172 472 182 q 578 167 526 161 q 658 156 625 172 q 708 111 692 140 q 722 44 724 82 q 696 -29 719 7 q 633 -82 674 -62 q 542 -109 592 -101 q 440 -111 493 -117 q 338 -87 386 -106 q 228 -23 263 -60 q 189 56 194 14 q 200 142 183 97 q 243 231 217 188 q 294 326 279 289 q 307 385 310 363 q 286 423 304 408 q 238 451 268 438 q 169 480 208 464 q 85 524 129 496 z "},"|":{"ha":399,"x_min":76,"x_max":340,"o":"m 186 1049 q 240 1044 218 1051 q 275 1022 261 1038 q 297 983 289 1007 q 313 929 306 960 q 331 792 324 869 q 339 626 338 714 q 338 449 340 539 q 327 274 335 358 q 307 115 319 189 q 278 -10 294 42 q 243 -76 263 -53 q 191 -110 219 -104 q 138 -104 163 -115 q 95 -66 113 -93 q 78 0 78 -39 q 81 476 76 244 q 85 936 86 708 q 115 1017 83 989 q 186 1049 146 1044 z "},"}":{"ha":763,"x_min":50,"x_max":729,"o":"m 689 524 q 605 480 644 496 q 535 451 565 464 q 488 423 506 438 q 467 385 469 408 q 479 326 464 363 q 531 231 494 289 q 574 142 557 188 q 585 56 590 97 q 545 -23 579 14 q 436 -87 511 -60 q 334 -111 388 -106 q 231 -109 281 -117 q 141 -82 182 -101 q 78 -29 100 -62 q 52 44 54 7 q 66 111 50 82 q 115 156 82 140 q 196 167 149 172 q 274 172 247 161 q 310 201 301 182 q 312 244 318 219 q 289 292 306 268 q 250 369 261 329 q 245 447 239 410 q 276 519 251 485 q 347 581 301 553 q 276 641 301 607 q 245 713 251 675 q 250 792 239 751 q 289 869 261 832 q 312 917 306 892 q 309 963 318 943 q 273 993 300 983 q 196 994 246 1003 q 124 1003 157 988 q 74 1049 92 1019 q 55 1116 56 1078 q 78 1190 54 1154 q 141 1243 100 1224 q 231 1270 182 1263 q 334 1272 281 1278 q 436 1249 388 1267 q 545 1184 511 1221 q 585 1106 579 1147 q 574 1019 590 1064 q 531 931 557 974 q 479 835 494 872 q 467 776 464 799 q 488 738 469 753 q 535 710 506 724 q 605 681 565 697 q 689 638 644 665 q 726 578 729 611 q 689 524 724 546 z "},"]":{"ha":757,"x_min":65,"x_max":678,"o":"m 678 1076 q 674 753 675 893 q 672 506 672 613 q 671 320 671 399 q 672 183 671 242 q 674 81 674 125 q 678 0 675 38 q 674 -58 678 -33 q 654 -99 669 -83 q 608 -119 639 -114 q 525 -121 578 -125 q 439 -111 489 -118 q 337 -95 389 -104 q 236 -76 285 -86 q 154 -56 188 -67 q 125 -45 140 -51 q 97 -29 110 -39 q 74 -5 83 -19 q 65 32 65 10 q 68 59 65 46 q 79 83 71 72 q 101 101 88 94 q 138 107 115 107 q 210 98 172 106 q 286 82 247 90 q 362 65 325 74 q 431 56 399 57 q 431 1021 447 538 q 362 1010 399 1018 q 286 994 325 1003 q 210 978 247 986 q 138 969 172 971 q 101 976 115 969 q 79 993 88 982 q 68 1017 71 1004 q 65 1044 65 1031 q 74 1081 65 1067 q 97 1106 83 1096 q 125 1122 110 1115 q 154 1132 140 1128 q 236 1152 188 1142 q 337 1172 285 1163 q 439 1188 389 1181 q 525 1197 489 1194 q 608 1196 578 1201 q 654 1175 639 1190 q 674 1135 669 1160 q 678 1076 678 1110 z "},"\\":{"ha":693,"x_min":21,"x_max":665,"o":"m 651 132 q 647 44 665 78 q 599 -1 629 10 q 537 0 568 -15 q 485 68 506 15 q 397 295 442 175 q 299 536 351 415 q 185 775 247 657 q 49 996 124 893 q 28 1065 21 1032 q 59 1117 35 1097 q 117 1142 83 1138 q 176 1126 150 1146 q 267 1037 221 1099 q 360 892 314 975 q 451 709 407 808 q 533 508 494 610 q 601 310 571 407 q 651 132 632 213 z "},"×":{"ha":665,"x_min":60,"x_max":615,"o":"m 217 556 q 150 622 185 589 q 83 694 115 654 q 61 744 63 719 q 76 790 60 769 q 119 819 93 813 q 172 810 144 825 q 265 752 221 783 q 351 685 308 721 q 424 751 388 718 q 501 815 461 783 q 547 832 524 832 q 589 817 569 832 q 612 776 608 801 q 600 726 615 751 q 540 645 575 683 q 468 567 504 607 q 519 497 494 531 q 568 431 544 464 q 587 399 578 417 q 599 365 596 382 q 597 330 601 347 q 576 297 593 313 q 535 275 557 279 q 489 285 513 271 q 408 349 444 313 q 331 426 371 386 q 264 346 300 390 q 189 271 228 301 q 101 264 146 235 q 71 302 78 281 q 69 348 64 324 q 87 396 74 372 q 115 439 100 419 q 163 497 136 469 q 217 556 189 524 z "},"÷":{"ha":685,"x_min":57,"x_max":621,"o":"m 128 440 q 77 468 94 447 q 58 513 60 489 q 74 557 57 536 q 129 585 92 578 q 190 591 151 588 q 274 597 228 594 q 368 599 319 599 q 460 597 417 600 q 536 588 503 594 q 586 569 569 581 q 615 532 608 553 q 613 493 621 511 q 588 463 606 475 q 549 449 571 450 q 455 444 510 446 q 341 440 400 442 q 226 438 282 439 q 128 440 169 438 m 460 732 q 427 662 457 689 q 353 638 397 635 q 284 671 311 640 q 258 742 257 701 q 295 810 264 788 q 363 832 326 833 q 428 806 399 831 q 460 732 458 781 m 424 300 q 391 230 421 257 q 317 206 361 203 q 248 239 275 208 q 222 310 221 269 q 242 363 226 342 q 281 392 258 383 q 329 401 304 401 q 376 388 354 400 q 410 354 397 376 q 424 300 424 332 z "},"x":{"ha":858,"x_min":31,"x_max":818,"o":"m 218 528 q 158 603 194 554 q 93 700 121 653 q 65 759 76 729 q 53 817 54 789 q 60 871 51 846 q 93 915 69 896 q 177 956 133 950 q 261 929 221 963 q 293 891 275 917 q 329 835 311 865 q 365 776 347 806 q 397 725 382 746 q 506 850 458 790 q 614 958 554 910 q 695 991 649 989 q 782 949 742 993 q 800 917 793 936 q 808 877 807 897 q 802 838 808 857 q 781 806 796 819 q 710 745 751 781 q 629 673 669 710 q 556 601 589 636 q 510 539 522 565 q 571 444 536 489 q 641 359 606 399 q 709 285 676 319 q 767 222 742 251 q 795 185 782 204 q 813 145 808 165 q 812 104 818 125 q 782 63 806 83 q 713 40 750 38 q 639 63 676 42 q 565 118 601 83 q 492 192 528 153 q 425 269 457 231 q 368 335 393 307 q 336 267 356 310 q 294 181 317 225 q 244 101 271 138 q 190 51 217 65 q 81 75 140 26 q 33 160 35 110 q 53 261 31 210 q 87 332 67 296 q 129 403 107 368 q 174 471 151 439 q 218 528 197 503 z "},"v":{"ha":926,"x_min":40,"x_max":900,"o":"m 424 365 q 465 367 440 338 q 492 424 479 383 q 515 517 504 464 q 538 633 526 571 q 564 756 550 696 q 594 869 578 817 q 632 957 611 922 q 671 997 646 982 q 724 1016 696 1011 q 782 1016 753 1021 q 835 997 811 1011 q 897 915 893 963 q 867 800 900 867 q 800 660 833 733 q 737 509 767 586 q 682 356 707 432 q 640 210 657 281 q 596 115 626 154 q 524 57 565 75 q 432 45 482 39 q 331 89 382 51 q 249 174 289 121 q 177 291 210 226 q 117 427 144 356 q 73 569 90 499 q 48 703 56 639 q 46 819 40 768 q 81 908 51 874 q 151 953 111 942 q 212 960 182 963 q 267 947 242 958 q 313 913 293 935 q 342 860 332 890 q 362 746 356 811 q 374 612 368 681 q 391 478 381 543 q 424 365 401 413 z "},"u":{"ha":997,"x_min":31,"x_max":953,"o":"m 658 256 q 528 140 600 182 q 353 96 456 97 q 208 132 269 94 q 106 233 146 169 q 49 376 67 296 q 33 541 31 456 q 56 708 35 626 q 119 856 78 790 q 183 922 147 900 q 255 947 218 944 q 326 938 292 950 q 384 901 360 925 q 417 844 408 878 q 415 774 426 811 q 389 688 404 742 q 360 582 374 635 q 346 469 346 528 q 362 371 346 411 q 408 322 378 331 q 488 357 439 313 q 532 424 514 382 q 563 517 550 465 q 583 628 575 569 q 597 744 592 686 q 622 846 599 806 q 679 907 644 886 q 753 930 714 928 q 827 918 793 932 q 883 874 861 904 q 906 800 906 843 q 908 662 906 735 q 917 515 911 589 q 931 369 924 440 q 949 235 939 297 q 953 187 953 211 q 946 141 953 163 q 923 101 939 119 q 881 72 907 83 q 790 58 831 50 q 720 94 749 67 q 676 165 692 122 q 658 256 660 207 z "},"t":{"ha":778,"x_min":24,"x_max":742,"o":"m 211 793 q 218 847 215 824 q 225 895 221 869 q 236 954 229 921 q 258 1040 243 988 q 308 1100 271 1083 q 387 1112 346 1117 q 460 1082 428 1107 q 492 1019 492 1057 q 489 958 492 983 q 483 910 486 933 q 477 858 481 886 q 472 785 474 829 q 550 790 511 788 q 636 793 589 793 q 713 772 683 793 q 742 717 742 751 q 713 641 742 669 q 641 597 683 613 q 551 574 599 581 q 469 565 504 568 q 470 518 469 547 q 474 457 471 489 q 484 394 478 425 q 501 343 490 364 q 529 317 513 322 q 568 329 546 311 q 644 361 608 361 q 703 342 679 361 q 735 294 728 322 q 736 238 742 267 q 715 182 731 210 q 679 135 700 154 q 585 67 633 90 q 488 39 536 43 q 396 49 440 35 q 314 97 351 64 q 252 188 275 132 q 217 308 229 244 q 203 438 206 372 q 203 554 200 503 q 67 592 111 551 q 36 711 24 633 q 69 763 43 743 q 136 788 96 783 q 174 791 151 790 q 211 793 196 792 z "},"r":{"ha":699,"x_min":6,"x_max":676,"o":"m 282 881 q 445 925 368 925 q 576 888 522 925 q 653 778 629 850 q 657 607 676 706 q 606 514 642 539 q 522 489 571 489 q 469 498 486 489 q 444 522 451 507 q 434 558 436 538 q 425 604 432 579 q 395 657 414 646 q 358 658 376 668 q 325 619 339 647 q 310 556 311 592 q 313 472 308 526 q 324 358 318 417 q 333 244 329 299 q 332 160 336 189 q 307 94 325 118 q 263 58 289 69 q 208 44 238 46 q 149 49 178 43 q 61 98 96 58 q 38 200 26 138 q 50 304 46 246 q 53 426 54 363 q 49 553 53 489 q 40 674 46 617 q 28 776 35 731 q 14 850 21 822 q 20 913 6 886 q 62 957 35 940 q 124 978 89 974 q 192 974 160 982 q 250 942 225 965 q 282 881 275 919 z "},"q":{"ha":832,"x_min":36,"x_max":811,"o":"m 458 313 q 347 265 401 278 q 244 264 293 253 q 154 310 196 275 q 82 407 113 346 q 43 541 50 471 q 53 678 36 611 q 110 802 71 744 q 210 899 150 860 q 331 957 274 940 q 444 976 388 974 q 560 972 500 978 q 689 963 619 965 q 785 919 758 960 q 801 807 811 878 q 784 652 793 729 q 768 498 775 575 q 758 344 761 421 q 761 192 756 268 q 768 120 764 154 q 768 56 772 86 q 744 0 764 25 q 681 -44 725 -25 q 634 -53 661 -53 q 580 -45 607 -54 q 528 -17 553 -36 q 490 31 504 1 q 458 156 467 83 q 458 313 450 229 m 518 629 q 517 710 532 685 q 475 739 503 735 q 415 731 447 743 q 364 701 383 719 q 319 650 336 682 q 297 585 301 618 q 302 526 293 553 q 335 490 311 499 q 391 490 361 479 q 447 524 421 501 q 492 576 472 547 q 518 629 511 604 z "},"p":{"ha":817,"x_min":33,"x_max":763,"o":"m 368 111 q 363 -29 368 32 q 340 -136 358 -90 q 292 -207 324 -181 q 226 -244 261 -233 q 154 -247 190 -254 q 91 -217 118 -240 q 49 -153 64 -193 q 43 -58 35 -114 q 67 153 60 50 q 74 358 75 256 q 64 563 72 460 q 40 778 56 667 q 48 863 33 831 q 90 915 63 896 q 151 941 117 933 q 218 950 186 949 q 410 948 314 957 q 583 898 506 939 q 708 778 660 857 q 761 565 757 699 q 742 410 763 488 q 673 267 721 332 q 549 160 625 203 q 368 111 474 118 m 353 681 q 367 515 364 599 q 368 351 371 432 q 444 376 414 356 q 491 428 474 397 q 515 499 508 460 q 517 578 521 538 q 500 633 514 613 q 465 665 486 654 q 415 678 443 675 q 353 681 386 681 z "},"/":{"ha":693,"x_min":26,"x_max":669,"o":"m 40 132 q 90 310 60 213 q 159 508 121 407 q 241 709 197 610 q 331 892 285 808 q 424 1037 378 975 q 515 1126 471 1099 q 575 1142 542 1146 q 633 1117 608 1138 q 663 1065 657 1097 q 643 996 669 1032 q 506 775 568 893 q 392 536 444 657 q 295 295 340 415 q 207 68 250 175 q 155 0 186 15 q 93 -1 124 -15 q 44 44 63 10 q 40 132 26 78 z "},".":{"ha":376,"x_min":76,"x_max":307,"o":"m 307 128 q 299 83 307 104 q 276 47 290 63 q 240 20 261 31 q 197 8 219 10 q 153 15 174 7 q 117 38 133 24 q 91 73 101 53 q 79 117 81 93 q 109 203 76 168 q 192 240 142 239 q 272 208 239 242 q 307 128 306 175 z "},"-":{"ha":647,"x_min":47,"x_max":603,"o":"m 521 599 q 577 583 556 597 q 601 528 599 568 q 563 461 603 483 q 476 438 533 447 q 353 426 418 429 q 227 425 289 422 q 125 436 165 428 q 70 465 93 444 q 50 529 47 485 q 72 581 53 557 q 124 603 92 604 q 223 600 171 601 q 327 597 275 599 q 428 596 379 596 q 521 599 478 596 z "},",":{"ha":381,"x_min":64,"x_max":326,"o":"m 317 275 q 321 197 326 246 q 298 100 315 147 q 250 21 281 53 q 179 -7 219 -11 q 138 16 151 -4 q 129 72 125 36 q 129 124 135 103 q 100 165 124 146 q 68 222 72 189 q 81 290 64 254 q 134 346 100 326 q 203 365 168 365 q 270 343 239 365 q 317 275 301 321 z "},"+":{"ha":844,"x_min":71,"x_max":794,"o":"m 514 446 q 510 342 514 389 q 492 261 506 294 q 454 210 479 228 q 389 196 429 193 q 335 222 354 199 q 311 281 317 246 q 305 355 304 317 q 300 428 306 393 l 207 428 q 177 428 192 428 q 147 431 163 428 q 101 456 119 435 q 76 504 82 478 q 82 556 71 531 q 125 593 93 581 q 167 606 147 601 q 206 613 186 610 q 247 619 226 617 q 293 626 268 622 q 293 662 293 642 q 292 703 293 682 q 292 743 292 724 q 293 779 292 763 q 306 816 294 800 q 333 842 317 832 q 368 858 349 853 q 404 865 388 864 q 469 853 440 868 q 508 796 499 839 q 515 724 515 764 q 517 651 514 685 q 626 642 569 646 q 736 619 683 639 q 781 584 768 608 q 790 534 794 560 q 766 488 786 508 q 711 464 746 467 q 614 454 663 460 q 514 446 565 449 z "},"*":{"ha":524,"x_min":60,"x_max":465,"o":"m 313 881 q 312 848 311 867 q 311 819 313 829 q 274 779 304 783 q 228 810 242 775 q 224 840 224 821 q 222 874 225 858 q 198 847 211 863 q 174 824 185 832 q 97 815 131 786 q 103 896 64 849 q 136 926 115 911 q 172 957 157 942 q 132 972 154 965 q 94 986 110 978 q 68 1043 60 1010 q 91 1075 72 1064 q 135 1079 110 1086 q 167 1065 150 1075 q 203 1047 183 1054 l 203 1097 q 240 1149 206 1140 q 272 1145 261 1153 q 288 1124 282 1138 q 295 1094 293 1110 q 300 1064 297 1078 q 329 1083 314 1069 q 357 1107 344 1096 q 393 1119 375 1121 q 422 1104 411 1117 q 433 1073 433 1092 q 411 1038 432 1054 q 380 1008 396 1022 q 346 978 364 993 q 390 939 367 958 q 436 899 413 919 q 442 832 465 860 q 381 825 417 804 q 349 851 365 832 q 313 881 332 869 z "},")":{"ha":721,"x_min":39,"x_max":663,"o":"m 551 176 q 402 4 490 76 q 199 -97 314 -68 q 90 -87 128 -112 q 44 -4 53 -61 q 51 53 39 28 q 92 93 64 78 q 133 118 111 108 q 175 139 154 128 q 280 212 233 172 q 361 300 326 251 q 424 423 404 358 q 444 553 444 488 q 422 683 443 619 q 358 801 400 746 q 278 887 324 847 q 175 960 232 926 q 133 981 154 971 q 92 1006 111 990 q 51 1046 64 1021 q 44 1103 39 1071 q 90 1185 53 1160 q 199 1196 128 1211 q 401 1094 314 1167 q 550 924 489 1022 q 661 547 663 739 q 551 176 660 354 z "},"(":{"ha":710,"x_min":39,"x_max":663,"o":"m 150 176 q 40 547 42 354 q 151 924 39 739 q 300 1094 213 1022 q 503 1196 388 1167 q 611 1185 574 1211 q 657 1103 649 1160 q 650 1046 663 1071 q 610 1006 638 1021 q 569 981 590 990 q 526 960 547 971 q 424 887 469 926 q 343 801 378 847 q 280 683 301 746 q 258 553 258 619 q 277 423 257 488 q 340 300 297 358 q 422 212 375 251 q 526 139 468 172 q 569 118 547 128 q 610 93 590 108 q 650 53 638 78 q 657 -4 663 28 q 611 -87 649 -61 q 503 -97 574 -112 q 299 4 388 -68 q 150 176 211 76 z "},"'":{"ha":251,"x_min":50,"x_max":188,"o":"m 168 943 q 108 918 150 914 q 65 960 69 926 q 58 1039 61 1000 q 51 1117 54 1078 q 64 1156 50 1140 q 101 1175 78 1172 q 144 1165 126 1178 q 171 1129 161 1151 q 184 1079 181 1107 q 187 1024 188 1051 q 181 975 186 997 q 168 943 175 953 z "},"y":{"ha":835,"x_min":36,"x_max":800,"o":"m 553 390 q 401 231 481 271 q 253 213 322 192 q 130 305 183 233 q 56 478 76 376 q 41 576 46 525 q 37 676 36 628 q 44 769 38 725 q 61 849 50 814 q 115 928 78 903 q 222 953 151 954 q 267 947 244 954 q 305 926 289 940 q 329 893 321 913 q 333 849 338 874 q 314 644 315 738 q 324 492 313 551 q 360 417 336 433 q 419 444 385 401 q 449 502 433 461 q 481 597 464 543 q 517 715 499 651 q 553 839 535 778 q 610 913 569 894 q 696 926 651 931 q 771 896 744 924 q 800 813 797 868 q 792 701 796 760 q 788 580 789 642 q 786 457 786 518 q 786 340 786 396 q 785 257 786 299 q 776 174 783 215 q 753 93 768 133 q 710 11 738 53 q 573 -106 651 -72 q 403 -124 494 -139 q 287 -89 347 -115 q 182 -21 226 -62 q 154 38 157 3 q 165 103 151 72 q 207 151 179 133 q 272 157 235 168 q 357 134 313 144 q 440 128 401 124 q 508 158 479 133 q 543 242 536 183 q 546 274 544 253 q 548 317 547 294 q 550 359 549 339 q 553 390 551 379 z "},"w":{"ha":1183,"x_min":24,"x_max":1157,"o":"m 611 319 q 589 359 599 363 q 568 315 579 356 q 503 187 546 240 q 409 103 461 133 q 300 70 357 74 q 192 91 243 67 q 102 169 142 115 q 46 311 63 224 q 28 450 33 371 q 26 608 24 529 q 36 756 28 688 q 60 864 44 825 q 102 924 74 900 q 165 956 131 947 q 235 960 200 965 q 299 936 271 956 q 341 883 326 917 q 349 800 356 849 q 332 706 343 757 q 311 601 321 654 q 297 495 301 547 q 297 400 292 443 q 326 322 304 339 q 379 335 349 306 q 446 439 410 364 q 518 638 482 514 q 538 671 524 656 q 569 693 551 686 q 606 697 586 700 q 643 675 625 693 q 663 638 657 660 q 734 439 697 514 q 801 335 771 364 q 854 322 832 306 q 883 400 876 339 q 884 495 889 443 q 869 601 879 547 q 849 706 860 654 q 832 800 838 757 q 840 883 825 849 q 882 936 854 917 q 945 960 910 956 q 1015 956 981 965 q 1078 924 1050 947 q 1121 864 1107 900 q 1144 756 1135 825 q 1155 608 1153 688 q 1152 450 1157 529 q 1135 311 1147 371 q 1078 169 1118 224 q 988 91 1039 115 q 879 71 936 67 q 770 105 822 75 q 676 189 718 135 q 611 319 633 243 z "},"s":{"ha":742,"x_min":42,"x_max":701,"o":"m 410 610 q 515 555 463 581 q 614 483 568 529 q 682 377 663 433 q 694 266 701 321 q 655 163 686 211 q 571 81 624 114 q 468 41 526 51 q 357 33 410 31 q 278 45 321 35 q 194 73 235 56 q 117 116 153 90 q 61 175 82 142 q 48 252 42 215 q 76 317 54 289 q 149 360 107 356 q 236 343 192 365 q 269 325 247 338 q 314 304 290 313 q 359 296 338 296 q 393 315 381 296 q 395 354 404 335 q 367 393 386 374 q 303 437 338 421 q 228 478 269 453 q 115 581 156 521 q 65 705 74 642 q 80 827 57 768 q 160 928 103 886 q 350 994 243 992 q 430 990 386 996 q 516 970 474 985 q 596 933 558 956 q 657 881 633 911 q 678 805 681 843 q 656 739 675 767 q 586 688 628 697 q 499 697 544 679 q 465 712 488 701 q 417 728 442 722 q 371 733 393 735 q 339 711 349 731 q 351 656 326 682 q 410 610 375 629 z "},"Z":{"ha":882,"x_min":39,"x_max":854,"o":"m 357 229 q 438 231 388 226 q 541 242 488 236 q 643 251 594 247 q 721 253 692 256 q 806 216 771 247 q 842 119 842 185 q 819 51 839 78 q 763 11 799 25 q 717 -4 739 1 q 671 -11 694 -10 q 473 -17 571 -15 q 276 -22 375 -19 q 222 -22 249 -22 q 169 -18 196 -21 q 98 8 128 -12 q 53 60 68 29 q 42 128 39 90 q 65 203 44 165 q 267 508 163 357 q 474 824 372 658 q 354 815 411 819 q 239 807 297 810 q 196 808 218 806 q 151 817 174 811 q 88 851 111 826 q 60 910 64 876 q 63 973 57 942 q 82 1028 68 1004 q 119 1068 96 1053 q 172 1083 142 1083 q 293 1087 226 1083 q 431 1097 360 1090 q 573 1114 501 1104 q 707 1136 644 1124 q 764 1133 738 1142 q 809 1107 790 1125 q 839 1063 828 1089 q 853 1011 850 1038 q 846 956 854 979 q 822 910 838 932 q 787 867 807 889 q 746 817 767 844 q 653 692 703 761 q 553 548 604 624 q 451 391 501 472 q 357 229 401 310 z "},"Y":{"ha":1039,"x_min":17,"x_max":1015,"o":"m 1015 1054 q 983 871 996 971 q 959 667 971 771 q 932 463 947 564 q 893 279 917 363 q 806 113 865 181 q 668 6 747 44 q 563 -33 624 -18 q 440 -49 501 -47 q 324 -38 379 -51 q 235 7 268 -25 q 213 60 215 28 q 221 124 210 93 q 256 176 232 154 q 313 199 279 199 q 493 222 425 199 q 600 297 561 244 q 658 435 639 349 q 693 649 676 521 q 635 536 676 586 q 537 454 593 486 q 416 413 481 422 q 288 424 351 404 q 167 499 224 444 q 72 650 111 554 q 29 826 42 725 q 28 1060 17 926 q 56 1125 31 1100 q 115 1163 81 1150 q 189 1176 150 1175 q 260 1167 228 1176 q 314 1140 293 1158 q 332 1094 335 1121 q 326 974 326 1036 q 330 856 326 913 q 340 756 333 800 q 354 689 346 711 q 433 601 383 607 q 539 651 483 596 q 649 817 594 707 q 746 1079 704 928 q 802 1138 758 1122 q 894 1147 846 1153 q 978 1115 942 1140 q 1015 1054 1015 1090 z "},"X":{"ha":961,"x_min":42,"x_max":929,"o":"m 256 561 q 199 651 228 608 q 144 735 171 694 q 97 818 118 776 q 63 904 75 860 q 66 978 50 946 q 115 1029 82 1011 q 187 1047 147 1046 q 254 1015 226 1049 q 335 901 300 960 q 418 790 371 842 q 481 871 450 829 q 542 952 513 913 q 603 1026 572 992 q 664 1083 633 1060 q 751 1123 708 1118 q 827 1113 793 1128 q 885 1067 861 1097 q 919 1000 910 1036 q 920 926 929 964 q 881 861 911 889 q 819 802 856 839 q 744 723 783 765 q 669 635 706 681 q 607 550 632 589 q 733 391 667 468 q 865 231 799 314 q 886 201 876 215 q 904 171 896 186 q 919 94 925 132 q 885 31 913 57 q 820 1 858 6 q 746 14 782 -4 q 668 79 707 42 q 591 158 629 117 q 515 244 553 200 q 443 333 478 289 q 416 284 431 313 q 387 226 401 256 q 358 169 372 197 q 332 122 343 142 q 300 63 317 92 q 264 8 283 35 q 190 -41 233 -31 q 108 -31 146 -51 q 51 42 60 -3 q 53 138 42 88 q 87 238 64 188 q 128 325 110 288 q 157 383 140 351 q 191 445 174 414 q 226 506 208 476 q 256 561 243 536 z "},"W":{"ha":1206,"x_min":24,"x_max":1189,"o":"m 724 221 q 606 350 667 350 q 489 221 544 350 q 452 128 469 175 q 409 46 435 82 q 344 -12 383 10 q 240 -31 304 -35 q 177 -9 203 -29 q 134 40 151 11 q 106 101 117 68 q 88 163 96 133 q 65 294 72 221 q 53 449 57 368 q 47 614 49 529 q 42 778 44 699 q 36 930 40 858 q 24 1058 32 1001 q 101 1147 28 1128 q 200 1138 158 1164 q 260 1071 242 1113 q 276 981 271 1040 q 284 848 282 922 q 285 692 286 774 q 284 534 285 610 q 283 396 283 458 q 285 299 282 333 q 300 245 289 247 q 338 279 311 243 q 385 380 363 314 q 431 517 408 446 q 474 652 453 589 q 515 744 496 715 q 603 802 553 799 q 697 744 653 806 q 725 691 711 726 q 753 611 739 656 q 783 518 768 567 q 813 424 797 469 q 843 340 828 378 q 875 279 858 301 q 913 245 901 243 q 928 299 924 247 q 930 396 931 333 q 928 534 929 458 q 927 692 928 610 q 928 848 926 774 q 936 981 931 922 q 953 1071 942 1040 q 1013 1138 971 1113 q 1111 1147 1054 1164 q 1189 1058 1185 1128 q 1176 930 1179 1001 q 1170 778 1172 858 q 1166 615 1168 699 q 1160 449 1164 531 q 1148 294 1156 368 q 1125 163 1140 221 q 1106 101 1117 133 q 1078 40 1096 68 q 1035 -9 1061 11 q 972 -31 1010 -29 q 869 -12 908 -35 q 803 46 829 10 q 760 128 778 82 q 724 221 743 175 z "},"V":{"ha":1069,"x_min":21,"x_max":1054,"o":"m 532 338 q 598 490 567 406 q 663 660 629 574 q 735 828 697 746 q 824 975 774 910 q 882 1022 850 1011 q 944 1024 914 1032 q 1001 994 975 1015 q 1040 945 1026 972 q 1053 889 1054 918 q 1029 839 1051 860 q 940 719 988 799 q 842 535 892 639 q 742 314 792 432 q 650 79 693 196 q 620 32 639 50 q 579 3 601 14 q 533 -9 557 -7 q 486 -8 508 -11 q 418 16 453 -3 q 361 76 383 35 q 277 267 314 167 q 205 469 240 367 q 131 676 169 572 q 43 875 93 779 q 25 956 21 918 q 50 1024 29 994 q 104 1070 71 1053 q 174 1089 138 1088 q 244 1073 210 1090 q 300 1015 278 1056 q 366 868 333 949 q 428 699 399 788 q 483 518 457 610 q 532 338 510 426 z "},"U":{"ha":990,"x_min":26,"x_max":976,"o":"m 661 161 q 614 108 638 132 q 565 68 590 85 q 456 19 515 32 q 339 17 397 7 q 228 57 281 26 q 138 140 175 88 q 76 264 100 194 q 40 412 51 333 q 27 574 28 490 q 35 739 26 657 q 62 897 44 821 q 103 1035 79 972 q 140 1081 115 1064 q 192 1103 164 1097 q 251 1103 221 1108 q 304 1082 281 1097 q 340 1043 328 1067 q 349 988 353 1019 q 328 836 336 904 q 316 705 319 768 q 312 579 313 642 q 313 446 311 517 q 344 266 317 319 q 410 211 372 213 q 492 249 449 210 q 571 347 536 289 q 631 500 613 419 q 660 664 650 581 q 680 831 671 747 q 713 992 689 914 q 765 1056 725 1033 q 850 1078 806 1078 q 931 1056 894 1078 q 974 988 967 1033 q 976 944 976 969 q 975 893 976 919 q 972 841 974 867 q 968 796 969 815 q 963 697 965 753 q 957 576 960 640 q 952 444 954 513 q 949 309 950 375 q 949 183 949 243 q 954 75 950 122 q 941 22 956 46 q 902 -19 926 -3 q 847 -42 878 -35 q 788 -44 817 -49 q 726 -19 749 -39 q 690 30 703 1 q 672 92 678 58 q 661 161 665 126 z "},"T":{"ha":886,"x_min":22,"x_max":850,"o":"m 589 893 q 590 705 585 806 q 600 502 594 604 q 608 303 606 400 q 599 128 610 207 q 565 23 590 68 q 483 -33 540 -22 q 378 -30 414 -46 q 327 19 342 -14 q 312 93 313 51 q 311 172 311 135 q 312 265 311 210 q 314 387 313 321 q 316 523 315 453 q 318 660 317 593 q 320 783 319 726 q 322 881 321 840 q 215 897 269 889 q 103 926 160 906 q 40 977 58 944 q 29 1050 22 1010 q 65 1113 36 1089 q 139 1136 94 1136 q 438 1140 290 1138 q 738 1150 586 1143 q 840 1092 819 1154 q 842 1033 850 1061 q 815 983 833 1006 q 768 944 796 961 q 709 915 740 926 q 647 897 678 903 q 589 893 615 892 z "},"S":{"ha":754,"x_min":31,"x_max":735,"o":"m 381 403 q 288 526 333 472 q 200 619 243 579 q 84 785 121 694 q 63 959 47 876 q 151 1101 78 1042 q 364 1171 224 1160 q 506 1154 435 1176 q 646 1065 576 1132 q 688 1016 669 1042 q 719 963 707 990 q 733 908 731 936 q 724 850 735 879 q 689 798 713 819 q 636 769 665 776 q 576 772 607 763 q 519 811 546 781 q 490 848 500 832 q 460 882 479 864 q 400 916 426 914 q 363 900 374 918 q 360 850 351 882 q 406 783 368 818 q 504 682 449 740 q 608 557 560 624 q 685 418 656 490 q 704 275 714 346 q 672 174 697 222 q 608 89 647 126 q 516 26 568 51 q 401 -3 464 1 q 260 14 331 -8 q 119 103 189 36 q 76 151 96 125 q 46 205 57 178 q 33 260 35 232 q 42 318 31 289 q 76 370 53 349 q 129 399 100 392 q 189 397 158 406 q 246 357 219 388 q 276 320 265 336 q 306 286 286 304 q 363 257 339 254 q 397 282 386 260 q 405 338 408 304 q 381 403 401 372 z "},"R":{"ha":976,"x_min":36,"x_max":946,"o":"m 603 1108 q 778 1039 707 1086 q 888 928 849 992 q 937 792 928 865 q 925 647 946 719 q 853 508 904 575 q 725 389 803 440 q 582 329 656 343 q 678 282 626 297 q 800 274 729 267 q 860 253 836 275 q 891 197 883 231 q 888 127 899 164 q 844 61 878 90 q 768 28 811 32 q 678 35 725 24 q 585 73 632 47 q 495 129 538 99 q 419 193 453 160 q 364 254 385 226 q 359 219 360 242 q 360 174 358 197 q 363 129 361 150 q 365 99 365 108 q 338 -26 368 22 q 229 -76 307 -74 q 130 -66 167 -79 q 75 -26 93 -53 q 53 41 57 1 q 51 131 49 81 q 58 328 57 231 q 57 517 58 426 q 53 687 56 607 q 49 831 50 767 q 46 871 49 850 q 42 913 43 892 q 55 1021 36 974 q 129 1096 74 1068 q 210 1119 158 1110 q 325 1132 261 1129 q 460 1129 389 1135 q 603 1108 532 1124 m 371 508 q 490 517 440 500 q 566 562 532 529 q 621 635 600 594 q 649 722 642 676 q 643 808 656 768 q 598 878 631 849 q 507 918 565 908 q 434 924 471 925 q 367 917 397 922 q 365 730 364 832 q 371 508 365 628 z "},"Q":{"ha":951,"x_min":33,"x_max":924,"o":"m 761 982 q 863 816 825 913 q 913 613 901 719 q 906 399 924 507 q 843 200 889 292 q 882 115 865 156 q 906 43 899 75 q 910 15 908 28 q 908 -8 911 3 q 888 -49 904 -33 q 850 -69 871 -64 q 808 -67 829 -74 q 772 -39 786 -60 l 718 40 q 576 -31 651 -12 q 426 -36 500 -49 q 284 17 351 -24 q 167 121 217 57 q 61 341 89 222 q 42 573 33 460 q 88 785 50 686 q 178 946 125 883 q 326 1068 247 1029 q 481 1108 404 1107 q 631 1076 558 1110 q 761 982 703 1043 m 453 583 q 521 608 492 615 q 581 572 550 601 q 633 516 606 549 q 690 444 661 483 q 698 480 694 463 q 703 514 701 497 q 699 621 707 567 q 673 720 692 675 q 625 797 654 765 q 554 835 596 828 q 430 811 482 846 q 347 717 378 776 q 309 581 317 657 q 317 437 301 506 q 372 315 332 368 q 475 249 411 263 q 526 247 503 242 q 572 263 550 251 l 431 476 q 419 534 410 506 q 453 583 429 563 z "},"P":{"ha":889,"x_min":29,"x_max":869,"o":"m 365 285 q 366 154 368 218 q 346 42 364 90 q 290 -35 328 -7 q 183 -60 251 -64 q 95 -37 125 -56 q 53 11 65 -18 q 43 78 42 40 q 50 157 44 115 q 65 371 63 257 q 64 594 68 485 q 51 802 60 704 q 35 969 43 900 q 40 1047 29 1015 q 74 1099 51 1078 q 131 1131 97 1119 q 207 1149 165 1142 q 444 1158 325 1167 q 660 1097 564 1149 q 805 966 756 1047 q 862 792 854 885 q 838 608 869 700 q 742 442 807 515 q 581 325 676 369 q 365 285 486 281 m 321 904 q 351 747 340 825 q 364 585 361 668 q 484 613 439 583 q 548 684 529 642 q 560 774 567 726 q 524 858 554 822 q 443 910 494 894 q 321 904 392 925 z "},"O":{"ha":974,"x_min":33,"x_max":919,"o":"m 761 982 q 876 787 836 903 q 917 546 915 671 q 884 301 919 421 q 774 94 849 182 q 625 -15 707 17 q 460 -41 543 -47 q 299 8 376 -35 q 167 121 222 50 q 61 341 89 222 q 42 573 33 460 q 88 785 50 686 q 178 946 125 883 q 326 1068 247 1029 q 481 1108 404 1107 q 631 1076 558 1110 q 761 982 703 1043 m 554 835 q 430 811 482 846 q 347 717 378 776 q 309 581 317 657 q 317 437 301 506 q 372 315 332 368 q 475 249 411 263 q 567 261 526 238 q 638 326 608 285 q 683 419 667 368 q 703 514 700 469 q 699 621 707 567 q 673 720 692 675 q 625 797 654 765 q 554 835 596 828 z "},"N":{"ha":1024,"x_min":35,"x_max":982,"o":"m 721 418 q 719 774 722 617 q 714 1022 715 931 q 719 1065 715 1044 q 734 1100 724 1085 q 765 1126 744 1115 q 818 1139 785 1136 q 909 1131 871 1144 q 958 1079 947 1118 q 968 1008 964 1060 q 975 883 972 956 q 979 722 978 810 q 981 542 981 633 q 981 363 982 451 q 976 200 979 274 q 969 74 974 126 q 958 0 964 21 q 909 -52 947 -39 q 818 -60 871 -65 q 770 -49 789 -57 q 740 -29 751 -40 q 713 9 725 -11 q 688 52 700 29 q 663 101 676 75 q 631 156 649 126 q 565 259 600 204 q 494 369 529 314 q 427 475 460 424 q 368 568 394 526 q 324 638 342 610 q 300 674 306 665 q 292 535 293 615 q 293 369 292 454 q 297 201 294 283 q 300 57 300 119 q 294 14 299 33 q 280 -21 290 -6 q 249 -47 269 -36 q 196 -60 229 -57 q 105 -52 143 -65 q 56 0 67 -39 q 44 88 47 26 q 39 232 40 149 q 38 415 38 315 q 39 619 39 515 q 38 824 39 722 q 35 1013 38 925 q 43 1055 36 1039 q 61 1081 50 1071 q 90 1099 72 1092 q 131 1118 107 1107 q 229 1122 179 1139 q 311 1067 279 1106 q 349 1015 324 1051 q 406 928 374 979 q 478 814 439 876 q 559 685 518 751 q 642 549 600 618 q 721 418 683 481 z "},"M":{"ha":1140,"x_min":35,"x_max":1101,"o":"m 650 360 q 569 317 615 319 q 486 360 522 315 q 441 428 465 386 q 392 514 417 469 q 343 601 367 558 q 300 674 319 644 q 292 535 293 615 q 293 369 292 454 q 297 201 294 283 q 300 57 300 119 q 294 14 299 33 q 280 -21 290 -6 q 249 -47 269 -36 q 196 -60 229 -57 q 105 -52 143 -65 q 56 0 67 -39 q 44 88 47 26 q 39 232 40 149 q 38 415 38 315 q 39 619 39 515 q 38 824 39 722 q 35 1013 38 925 q 43 1055 36 1039 q 61 1081 50 1071 q 90 1099 72 1092 q 131 1118 107 1107 q 229 1122 179 1139 q 311 1067 279 1106 q 374 976 342 1031 q 440 860 407 922 q 504 737 472 799 q 568 624 536 675 q 631 737 599 675 q 697 860 664 799 q 762 976 729 922 q 825 1067 794 1031 q 907 1122 857 1106 q 1006 1118 957 1139 q 1047 1099 1029 1107 q 1075 1081 1064 1092 q 1092 1055 1086 1071 q 1101 1013 1099 1039 q 1098 824 1099 925 q 1097 619 1097 722 q 1098 415 1097 515 q 1097 232 1099 315 q 1092 88 1096 149 q 1081 0 1089 26 q 1031 -52 1069 -39 q 940 -60 993 -65 q 887 -47 907 -57 q 856 -21 867 -36 q 842 14 846 -6 q 836 57 838 33 q 839 201 836 119 q 843 369 842 283 q 843 535 844 454 q 836 674 842 615 q 793 601 817 644 q 744 514 769 558 q 695 428 719 469 q 650 360 671 386 z "},"K":{"ha":903,"x_min":36,"x_max":871,"o":"m 358 678 q 455 745 410 704 q 541 833 500 786 q 617 929 582 881 q 682 1018 651 978 q 797 1063 732 1086 q 847 1024 829 1050 q 861 960 865 997 q 810 838 854 903 q 708 710 765 774 q 594 589 651 646 q 504 490 538 532 q 588 433 539 465 q 685 365 636 401 q 777 290 733 329 q 846 214 821 251 q 867 149 871 175 q 842 96 863 124 q 782 59 819 68 q 708 82 744 50 q 534 224 621 158 q 350 333 447 289 q 347 273 349 306 q 344 207 346 240 q 339 144 342 174 q 333 92 336 114 q 317 26 328 56 q 285 -24 306 -4 q 232 -51 264 -43 q 154 -51 200 -58 q 63 -1 90 -40 q 43 101 36 38 q 60 322 56 206 q 64 554 65 439 q 58 778 63 669 q 49 975 54 886 q 68 1073 42 1038 q 139 1124 94 1108 q 192 1134 163 1132 q 249 1129 221 1136 q 299 1106 276 1122 q 333 1060 322 1089 q 351 978 346 1026 q 358 876 357 929 q 359 770 360 822 q 358 678 358 718 z "},"L":{"ha":901,"x_min":39,"x_max":854,"o":"m 265 142 q 306 163 276 147 q 378 197 336 178 q 469 238 419 217 q 569 274 518 258 q 668 299 619 290 q 757 304 717 308 q 823 283 806 299 q 847 224 840 267 q 853 143 854 179 q 839 81 853 107 q 796 40 825 54 q 719 25 767 25 q 626 22 675 25 q 528 11 578 18 q 430 -6 479 4 q 338 -28 381 -15 q 236 -49 289 -42 q 140 -49 183 -56 q 68 -15 96 -42 q 42 65 40 11 q 49 336 46 213 q 51 572 51 460 q 49 794 51 685 q 40 1021 46 903 q 54 1076 39 1056 q 96 1108 69 1097 q 156 1119 122 1118 q 224 1115 189 1119 q 275 1101 254 1111 q 309 1075 296 1090 q 329 1039 322 1060 q 342 993 336 1018 q 351 835 354 931 q 335 626 347 740 q 303 388 322 513 q 265 142 283 263 z "},"J":{"ha":786,"x_min":31,"x_max":743,"o":"m 215 394 q 277 349 247 375 q 333 300 307 322 q 382 266 360 278 q 423 265 404 254 q 455 312 442 275 q 476 425 468 349 q 482 620 486 511 q 467 846 478 729 q 397 817 440 831 q 310 802 354 804 q 228 813 265 800 q 174 867 190 826 q 164 910 165 888 q 167 954 163 933 q 183 992 172 975 q 211 1017 194 1008 q 283 1035 244 1031 q 360 1044 321 1040 q 438 1057 399 1049 q 513 1085 476 1065 q 578 1103 543 1101 q 642 1094 613 1106 q 693 1059 672 1083 q 718 999 714 1035 q 727 875 724 943 q 733 733 731 807 q 736 582 735 658 q 739 432 738 506 q 742 324 740 381 q 734 213 743 268 q 702 108 725 158 q 632 19 679 58 q 535 -30 589 -15 q 425 -41 482 -44 q 310 -19 368 -37 q 203 31 253 0 q 113 105 153 63 q 50 196 72 147 q 38 282 31 239 q 72 356 46 325 q 135 399 97 386 q 215 394 174 411 z "},"H":{"ha":915,"x_min":56,"x_max":861,"o":"m 583 281 q 519 283 549 285 q 458 281 489 282 q 397 278 428 279 q 329 281 365 276 q 324 220 326 257 q 317 144 321 183 q 309 67 313 104 q 303 6 306 31 q 229 -82 294 -62 q 169 -78 197 -89 q 122 -43 142 -68 q 88 52 101 -15 q 67 210 74 119 q 58 402 60 300 q 58 601 56 504 q 64 778 60 697 q 74 906 68 858 q 88 983 79 947 q 115 1044 97 1019 q 163 1082 133 1069 q 240 1090 193 1094 q 294 1078 274 1088 q 326 1051 314 1069 q 342 1005 338 1033 q 346 935 346 976 q 346 846 346 894 q 344 744 346 797 q 342 636 343 692 q 336 526 340 581 q 463 528 406 526 q 590 529 521 529 q 597 781 593 671 q 614 960 600 892 q 653 1036 624 1007 q 728 1068 682 1065 q 772 1066 749 1069 q 815 1049 794 1063 q 848 1013 835 1036 q 861 951 861 989 q 858 526 857 733 q 861 115 858 318 q 856 47 861 82 q 835 -16 851 11 q 790 -59 819 -43 q 713 -69 761 -75 q 638 -40 663 -64 q 601 28 613 -15 q 588 135 590 72 q 583 281 586 199 z "},"I":{"ha":408,"x_min":35,"x_max":364,"o":"m 333 1046 q 344 1007 339 1035 q 353 945 350 979 q 359 876 357 911 q 361 817 361 842 q 360 514 364 676 q 353 149 357 351 q 349 88 353 119 q 334 30 346 57 q 299 -17 322 3 q 238 -42 276 -36 q 174 -37 201 -44 q 128 -3 147 -31 q 83 113 101 36 q 54 285 65 189 q 39 486 43 381 q 36 690 35 592 q 44 869 38 788 q 63 997 51 950 q 86 1053 71 1031 q 121 1090 101 1076 q 164 1110 140 1104 q 211 1115 188 1115 q 281 1098 247 1114 q 333 1046 314 1082 z "},"G":{"ha":943,"x_min":33,"x_max":903,"o":"m 622 400 q 586 402 601 401 q 557 406 571 403 q 528 409 542 408 q 503 414 515 410 q 442 453 464 425 q 424 517 421 482 q 449 580 426 553 q 511 615 472 607 q 623 634 564 628 q 753 649 682 640 q 813 647 785 654 q 861 620 840 639 q 892 574 882 601 q 901 513 903 547 q 876 133 894 322 q 853 32 872 82 q 814 -30 842 -7 q 754 -53 786 -53 q 695 -33 718 -53 q 657 19 672 -14 q 642 64 646 40 q 558 33 599 49 q 476 10 517 17 q 251 46 353 -11 q 99 222 150 103 q 44 440 54 324 q 55 670 33 557 q 128 883 76 783 q 263 1053 181 983 q 517 1121 376 1149 q 613 1091 568 1111 q 701 1036 658 1071 q 801 871 783 974 q 802 795 810 832 q 761 731 794 758 q 693 701 729 703 q 624 717 657 699 q 554 768 590 736 q 483 821 518 800 q 413 840 447 842 q 346 790 378 839 q 309 703 326 758 q 282 583 292 647 q 275 458 272 519 q 299 353 278 396 q 365 294 321 310 q 482 307 408 278 q 554 341 518 322 q 622 400 590 360 z "},"F":{"ha":768,"x_min":26,"x_max":735,"o":"m 342 357 q 342 265 339 317 q 344 162 346 214 q 330 62 343 110 q 279 -19 317 14 q 194 -61 240 -54 q 109 -53 147 -68 q 49 -7 71 -39 q 35 69 26 25 q 49 198 44 124 q 53 356 53 272 q 51 531 54 440 q 46 706 49 621 q 40 867 43 792 q 38 999 38 943 q 39 1048 38 1019 q 49 1101 40 1076 q 79 1144 58 1126 q 138 1163 100 1161 q 242 1165 188 1164 q 353 1167 297 1167 q 465 1169 410 1168 q 571 1171 519 1169 q 633 1167 604 1171 q 685 1149 663 1163 q 720 1108 707 1135 q 735 1039 733 1082 q 730 992 735 1017 q 713 944 725 967 q 683 905 701 922 q 639 879 664 888 q 566 868 606 868 q 483 872 526 868 q 398 883 440 876 q 318 893 356 889 q 324 710 321 792 q 332 557 326 629 q 397 557 358 557 q 476 557 436 557 q 555 558 517 557 q 618 558 593 558 q 674 544 651 560 q 708 506 697 529 q 717 456 718 483 q 701 405 715 428 q 660 366 686 382 q 593 350 633 350 q 535 352 567 350 q 469 356 503 354 q 403 358 436 357 q 342 357 369 358 z "},"E":{"ha":740,"x_min":40,"x_max":707,"o":"m 628 844 q 580 839 604 835 q 531 853 556 843 q 479 875 506 863 q 426 896 453 888 q 383 906 403 903 q 349 899 364 908 q 325 863 333 889 q 317 785 317 836 l 317 568 q 368 571 340 569 q 424 573 396 572 q 479 575 453 574 q 526 578 506 576 q 596 549 571 581 q 624 478 621 518 q 608 403 628 438 q 542 364 588 368 q 430 361 489 360 q 313 356 371 363 q 316 265 317 303 q 323 203 315 226 q 352 172 331 179 q 421 172 374 164 q 509 193 465 181 q 592 221 553 206 q 663 216 636 238 q 699 158 690 194 q 694 82 707 122 q 647 21 682 42 q 493 -40 575 -21 q 322 -68 411 -60 q 150 -32 218 -79 q 65 124 82 15 q 48 380 54 254 q 41 615 42 506 q 43 814 40 725 q 51 961 46 903 q 126 1110 63 1057 q 292 1154 190 1164 q 381 1141 326 1151 q 491 1114 435 1131 q 597 1075 547 1097 q 671 1025 646 1053 q 688 981 685 1008 q 685 925 692 953 q 663 874 678 897 q 628 844 649 851 z "},"C":{"ha":838,"x_min":29,"x_max":810,"o":"m 486 826 q 389 800 431 826 q 320 732 347 774 q 280 637 293 690 q 269 531 267 583 q 288 429 271 478 q 339 347 306 381 q 451 290 383 301 q 597 329 518 279 q 630 351 615 339 q 659 369 644 363 q 692 377 674 376 q 736 365 710 378 q 776 332 758 354 q 801 283 793 310 q 806 226 810 256 q 786 172 803 197 q 644 35 721 79 q 489 -15 567 -10 q 337 7 411 -21 q 203 88 263 35 q 106 213 144 139 q 49 372 68 286 q 29 548 29 457 q 49 724 29 639 q 106 883 68 810 q 203 1008 144 957 q 337 1088 263 1060 q 489 1111 411 1117 q 644 1061 567 1106 q 786 924 721 1017 q 806 869 803 899 q 801 813 810 840 q 776 764 793 786 q 736 731 758 742 q 692 719 710 718 q 659 726 674 719 q 630 744 644 733 q 597 767 615 756 q 486 826 546 826 z "},"D":{"ha":932,"x_min":28,"x_max":907,"o":"m 28 933 q 28 987 28 964 q 35 1028 28 1010 q 60 1062 43 1047 q 111 1090 78 1076 q 188 1115 144 1104 q 281 1129 232 1125 q 381 1132 329 1133 q 483 1122 432 1131 q 690 1042 606 1103 q 825 894 775 981 q 891 705 875 808 q 892 499 907 601 q 832 302 876 396 q 717 140 788 208 q 549 40 646 72 q 333 26 453 7 q 295 28 313 31 q 260 7 278 26 q 191 -20 229 -15 q 119 -16 153 -25 q 62 13 85 -7 q 40 61 39 33 q 44 267 46 154 q 40 497 43 381 q 32 727 36 614 q 28 933 28 840 m 322 219 q 429 238 379 222 q 515 288 479 253 q 596 404 567 336 q 633 547 625 472 q 624 692 640 621 q 568 815 608 763 q 464 893 528 867 q 310 904 400 919 q 320 739 315 826 q 328 561 325 651 q 330 383 331 471 q 322 219 329 296 z "},"B":{"ha":950,"x_min":40,"x_max":913,"o":"m 692 669 q 821 590 772 642 q 891 475 869 539 q 908 340 913 411 q 878 204 904 269 q 805 85 851 139 q 696 1 758 32 q 335 -19 517 -85 q 294 -12 313 -12 q 253 -24 276 -11 q 167 -54 206 -51 q 100 -42 128 -57 q 58 3 72 -26 q 44 71 43 33 q 51 300 49 174 q 53 551 53 426 q 52 785 54 675 q 44 964 50 894 q 56 1056 40 1017 q 121 1107 72 1094 q 300 1140 204 1128 q 485 1146 396 1151 q 651 1113 575 1140 q 768 1031 726 1086 q 806 938 799 989 q 802 837 814 888 q 762 742 790 786 q 692 669 733 697 m 332 439 q 349 217 338 335 q 408 201 374 206 q 480 200 443 197 q 552 215 517 203 q 613 249 588 226 q 652 304 639 271 q 658 385 665 338 q 642 428 654 407 q 612 465 631 450 q 567 488 593 481 q 510 492 540 496 q 418 469 465 486 q 332 439 371 451 m 314 714 q 375 731 340 719 q 444 758 410 742 q 508 794 479 774 q 553 840 538 815 q 564 898 574 871 q 518 936 554 925 q 436 947 482 947 q 354 932 390 947 q 317 906 332 924 q 303 860 303 888 q 304 797 301 832 q 314 714 307 763 z "},"A":{"ha":831,"x_min":32,"x_max":786,"o":"m 292 93 q 278 52 285 78 q 267 13 271 26 q 249 -26 260 -8 q 222 -54 239 -43 q 181 -68 206 -65 q 119 -64 156 -71 q 71 -44 89 -58 q 44 -10 53 -31 q 33 38 35 11 q 36 97 32 65 q 75 293 50 189 q 131 501 100 397 q 193 700 161 604 q 254 874 225 796 q 289 967 271 919 q 333 1052 307 1014 q 399 1115 360 1090 q 501 1140 439 1139 q 594 1118 560 1142 q 646 1056 628 1094 q 671 969 664 1018 q 681 874 678 921 q 702 653 689 771 q 730 426 715 536 q 757 228 744 317 q 778 94 769 139 q 785 38 783 65 q 777 -10 786 11 q 747 -46 768 -32 q 685 -62 725 -60 q 619 -53 644 -65 q 579 -18 594 -40 q 557 33 564 4 q 547 93 550 63 l 292 93 m 519 288 q 507 385 514 328 q 493 501 500 443 q 480 609 486 560 q 469 681 474 658 q 437 610 454 658 q 401 504 419 561 q 365 390 382 447 q 336 293 349 332 l 519 288 z "},"o":{"ha":897,"x_min":44,"x_max":863,"o":"m 76 360 q 48 505 51 431 q 61 649 44 579 q 113 782 78 719 q 201 890 149 844 q 323 963 254 936 q 475 986 392 989 q 633 948 564 983 q 749 855 701 913 q 824 724 797 797 q 857 574 851 651 q 846 419 863 496 q 790 281 829 343 q 674 149 739 199 q 540 81 610 100 q 401 73 471 63 q 269 120 331 83 q 156 217 207 157 q 76 360 106 278 m 458 318 q 542 353 510 322 q 590 430 575 385 q 605 526 606 475 q 588 622 604 578 q 542 697 572 667 q 469 732 511 728 q 374 708 411 738 q 321 633 338 679 q 306 531 304 586 q 325 428 307 476 q 376 349 343 381 q 458 318 410 317 z "},"n":{"ha":919,"x_min":29,"x_max":864,"o":"m 290 772 q 388 863 333 828 q 498 910 442 897 q 610 912 554 922 q 711 867 665 901 q 796 767 765 826 q 842 640 826 708 q 860 500 857 572 q 864 364 864 428 q 854 212 864 282 q 821 107 844 142 q 782 73 806 86 q 729 53 758 60 q 671 47 701 46 q 613 54 640 47 q 565 75 586 61 q 532 110 543 89 q 515 186 513 144 q 528 272 517 228 q 551 396 543 336 q 557 524 560 456 q 532 627 553 593 q 465 660 511 661 q 405 622 429 658 q 365 533 381 586 q 343 416 350 479 q 335 297 336 353 q 335 222 333 264 q 331 143 338 181 q 303 77 325 106 q 233 42 282 49 q 138 43 178 32 q 74 79 99 54 q 40 138 50 104 q 38 208 31 172 q 51 360 50 278 q 49 522 53 442 q 40 673 46 601 q 31 792 33 744 q 48 869 29 836 q 122 917 67 901 q 237 899 193 928 q 290 772 281 869 z "},"m":{"ha":1272,"x_min":26,"x_max":1217,"o":"m 800 250 q 784 167 801 203 q 736 111 767 132 q 665 84 706 90 q 582 89 625 78 q 522 122 544 97 q 488 181 500 147 q 474 252 476 214 q 472 324 471 290 q 474 365 474 336 q 474 431 475 394 q 470 507 474 468 q 459 578 467 546 q 438 630 451 610 q 404 650 425 650 q 371 636 383 650 q 352 601 358 622 q 344 554 346 581 q 344 501 343 528 q 351 420 346 465 q 359 328 356 375 q 361 237 363 281 q 350 160 360 193 q 200 64 322 65 q 118 81 157 63 q 60 153 79 100 q 42 227 50 178 q 31 340 35 276 q 27 475 28 403 q 30 618 26 547 q 42 753 33 689 q 65 867 51 818 q 104 941 79 914 q 158 978 129 968 q 218 982 188 988 q 274 958 249 976 q 316 908 299 939 q 336 839 333 878 q 458 913 392 892 q 583 923 525 933 q 681 871 640 913 q 729 754 722 829 q 801 857 751 815 q 910 913 851 899 q 1029 908 969 926 q 1133 829 1089 889 q 1189 713 1172 779 q 1210 576 1206 647 q 1213 434 1215 506 q 1213 300 1211 363 q 1215 215 1214 256 q 1206 141 1217 174 q 1165 88 1194 108 q 1076 65 1136 68 q 988 81 1019 63 q 942 128 957 99 q 923 194 926 157 q 919 268 919 232 q 922 356 919 307 q 926 457 925 406 q 923 556 928 508 q 904 636 918 603 q 887 658 897 651 q 865 663 876 664 q 842 653 853 661 q 825 629 831 644 q 805 547 810 592 q 800 452 800 501 q 802 351 800 403 q 800 250 804 300 z "},"l":{"ha":403,"x_min":29,"x_max":383,"o":"m 378 260 q 381 210 379 238 q 380 155 383 182 q 363 106 376 128 q 318 72 349 83 q 207 69 254 51 q 127 132 160 86 q 74 248 94 178 q 44 403 54 318 q 33 560 36 474 q 31 735 29 647 q 44 906 33 824 q 75 1049 54 988 q 139 1135 96 1108 q 227 1160 182 1163 q 309 1126 272 1157 q 354 1042 346 1096 q 357 996 357 1021 q 354 942 357 971 q 346 769 346 854 q 351 599 346 683 q 363 431 356 515 q 378 260 371 346 z "},"k":{"ha":763,"x_min":29,"x_max":726,"o":"m 322 629 q 396 654 360 631 q 463 707 432 678 q 515 765 493 736 q 547 808 538 794 q 580 830 558 825 q 624 830 601 835 q 668 812 647 825 q 701 782 689 799 q 724 710 726 747 q 701 637 721 672 q 649 570 682 601 q 581 515 617 539 q 513 478 546 492 q 457 467 479 465 q 564 444 517 471 q 644 375 611 417 q 697 285 678 333 q 718 197 715 236 q 703 112 722 144 q 626 71 685 79 q 551 75 579 64 q 508 110 524 86 q 482 165 492 133 q 463 231 472 197 q 406 325 440 301 q 321 346 372 349 q 321 290 322 319 q 316 233 319 261 q 307 179 313 204 q 293 135 301 154 q 253 78 278 100 q 188 54 228 57 q 70 93 110 49 q 38 219 31 138 q 45 408 43 304 q 46 616 47 513 q 41 813 44 719 q 32 971 38 906 q 32 1021 29 996 q 46 1067 35 1046 q 78 1102 57 1088 q 132 1122 99 1117 q 194 1122 168 1128 q 238 1101 219 1117 q 269 1062 257 1086 q 290 1006 281 1038 q 317 824 314 922 q 322 629 321 726 z "},"j":{"ha":499,"x_min":-229,"x_max":433,"o":"m 135 538 q 132 574 132 556 q 133 610 132 592 q 156 665 136 647 q 203 689 176 683 q 268 691 242 697 q 314 667 294 685 q 348 621 333 649 q 375 558 363 593 q 410 433 397 501 q 428 292 422 364 q 431 148 433 219 q 422 14 429 76 q 365 -153 411 -85 q 247 -260 318 -221 q 149 -298 207 -283 q 28 -315 90 -312 q -91 -303 -33 -317 q -187 -258 -149 -290 q -220 -206 -211 -237 q -223 -145 -229 -175 q -197 -93 -217 -115 q -144 -67 -178 -71 q -61 -56 -106 -62 q 24 -35 -17 -50 q 96 8 64 -19 q 143 81 128 35 q 159 190 157 126 q 157 319 161 254 q 145 444 153 385 q 135 538 138 503 m 342 879 q 300 780 340 818 q 199 742 260 742 q 102 783 140 743 q 64 881 64 822 q 74 935 64 910 q 103 980 85 961 q 148 1010 122 999 q 204 1021 174 1021 q 303 981 264 1021 q 342 879 342 940 z "},"i":{"ha":364,"x_min":36,"x_max":333,"o":"m 75 146 q 48 244 58 181 q 37 378 38 308 q 48 510 36 447 q 89 607 60 574 q 142 642 110 631 q 208 652 175 654 q 270 633 242 650 q 310 581 299 615 q 327 488 321 544 q 333 367 333 431 q 322 242 332 303 q 293 140 313 182 q 244 89 276 104 q 182 71 213 74 q 123 87 151 68 q 75 146 94 106 m 192 707 q 97 747 133 707 q 61 847 60 786 q 100 940 63 901 q 190 981 138 978 q 241 970 217 981 q 284 940 265 960 q 313 896 303 921 q 324 842 324 871 q 313 788 324 813 q 285 746 303 764 q 242 717 267 728 q 192 707 218 707 z "},"g":{"ha":908,"x_min":32,"x_max":849,"o":"m 593 315 q 471 267 531 289 q 353 236 411 244 q 191 263 260 224 q 83 371 122 303 q 38 523 44 439 q 65 683 32 607 q 146 799 97 757 q 254 860 194 842 q 379 877 314 879 q 510 860 444 875 q 542 931 517 903 q 603 972 568 958 q 674 984 638 985 q 742 970 711 983 q 790 932 772 957 q 804 871 808 907 q 802 789 799 826 q 808 718 806 751 q 832 463 815 590 q 849 203 849 336 q 817 65 849 128 q 733 -44 786 3 q 611 -121 681 -92 q 465 -157 542 -150 q 309 -147 389 -164 q 157 -85 229 -131 q 115 -21 122 -62 q 123 60 108 21 q 170 126 138 100 q 247 142 203 151 q 321 126 281 135 q 402 115 361 117 q 481 119 443 113 q 547 147 519 125 q 588 209 575 168 q 593 315 601 250 m 426 486 q 510 535 482 510 q 535 583 538 561 q 501 622 533 606 q 404 644 468 639 q 327 633 357 649 q 284 594 297 618 q 274 544 271 571 q 294 499 276 518 q 346 474 313 481 q 426 486 379 468 z "},"h":{"ha":939,"x_min":22,"x_max":901,"o":"m 329 1018 q 342 910 339 964 q 344 804 344 857 q 342 701 344 751 q 339 601 340 650 q 469 696 397 669 q 613 711 542 722 q 747 653 685 700 q 847 526 810 606 q 888 394 875 465 q 900 251 901 324 q 897 188 900 222 q 882 126 893 154 q 849 77 871 97 q 789 56 828 57 q 728 58 758 54 q 675 78 699 63 q 636 124 651 93 q 621 208 621 156 q 620 299 621 247 q 608 389 619 350 q 585 441 601 414 q 547 485 569 468 q 494 501 524 501 q 432 472 465 501 q 374 393 394 439 q 341 301 353 347 q 326 214 329 254 q 321 154 322 174 q 290 82 315 111 q 226 46 265 53 q 141 44 174 38 q 89 69 108 50 q 61 121 69 88 q 51 200 53 154 q 48 396 49 304 q 45 581 47 488 q 38 776 43 675 q 22 1003 33 878 q 43 1075 22 1046 q 95 1119 64 1104 q 165 1136 126 1135 q 237 1125 203 1138 q 297 1085 271 1113 q 329 1018 322 1058 z "},"f":{"ha":719,"x_min":35,"x_max":685,"o":"m 454 314 q 481 168 469 243 q 481 19 492 93 q 472 -12 478 3 q 454 -40 465 -28 q 406 -70 435 -61 q 345 -75 376 -79 q 287 -54 314 -71 q 244 -10 260 -37 q 228 32 233 10 q 221 78 224 54 q 209 190 217 133 q 179 329 201 246 q 137 340 160 335 q 92 356 114 346 q 56 381 71 365 q 39 425 40 397 q 64 492 35 474 q 146 518 93 511 q 134 607 138 560 q 131 703 131 654 q 139 800 132 751 q 161 893 146 849 q 249 1020 189 975 q 380 1074 308 1065 q 526 1056 451 1083 q 658 963 601 1028 q 683 890 685 931 q 661 818 682 849 q 629 787 649 799 q 587 772 610 775 q 539 775 564 769 q 489 796 514 781 q 437 810 457 817 q 406 779 417 803 q 392 720 394 756 q 390 648 389 685 q 397 577 392 611 q 407 522 401 543 q 503 522 451 519 q 600 517 556 525 q 652 487 636 511 q 671 433 668 463 q 658 378 674 401 q 608 343 643 354 q 533 325 572 329 q 454 314 494 321 z "},"e":{"ha":724,"x_min":29,"x_max":696,"o":"m 290 431 q 309 349 289 376 q 360 315 329 321 q 426 319 390 308 q 493 354 463 331 q 585 389 542 388 q 651 361 628 390 q 679 265 688 313 q 633 179 671 217 q 503 94 572 118 q 367 78 435 71 q 236 119 299 85 q 128 208 174 154 q 56 341 81 263 q 31 504 32 419 q 51 669 29 589 q 121 808 74 750 q 196 879 153 850 q 288 924 239 908 q 390 942 338 940 q 496 932 443 944 q 568 899 535 922 q 626 845 601 876 q 667 775 651 814 q 688 694 683 736 q 665 553 696 611 q 576 461 633 494 q 444 420 519 428 q 290 431 369 413 m 300 629 q 353 619 328 624 q 406 614 379 614 q 438 626 422 614 q 461 656 453 638 q 467 694 469 674 q 446 731 465 714 q 408 742 428 743 q 367 727 388 740 q 330 689 347 714 q 300 629 313 664 z "},"d":{"ha":833,"x_min":28,"x_max":811,"o":"m 556 151 q 511 131 539 140 q 449 117 483 122 q 375 110 414 111 q 297 115 336 110 q 169 161 222 126 q 85 247 117 196 q 40 358 53 297 q 33 481 28 418 q 61 602 39 543 q 122 708 83 661 q 211 786 160 756 q 328 821 263 817 q 423 826 372 824 q 532 818 474 828 q 534 917 532 876 q 542 989 536 958 q 560 1042 549 1019 q 593 1085 572 1064 q 646 1110 615 1107 q 708 1107 676 1114 q 755 1085 739 1100 q 778 1049 771 1071 q 788 1000 786 1028 q 789 940 789 972 q 786 696 786 815 q 788 476 786 576 q 793 302 789 376 q 806 194 797 228 q 810 146 811 171 q 798 100 808 121 q 767 65 788 79 q 713 49 746 51 q 667 51 690 46 q 622 69 643 57 q 583 103 600 82 q 556 151 565 124 m 521 582 q 463 597 496 593 q 397 593 431 600 q 331 566 358 586 q 290 520 304 546 q 276 467 276 494 q 288 415 275 439 q 328 377 301 392 q 399 363 356 363 q 431 364 417 363 q 458 367 444 365 q 487 372 472 369 q 521 376 501 374 l 521 582 z "},"c":{"ha":786,"x_min":29,"x_max":747,"o":"m 75 278 q 35 457 40 361 q 51 647 29 553 q 100 768 65 710 q 183 872 135 826 q 293 944 232 917 q 424 974 354 971 q 539 959 481 976 q 643 906 597 942 q 718 819 689 871 q 746 701 747 767 q 725 628 746 658 q 658 594 704 599 q 604 610 626 590 q 556 665 582 629 q 500 714 532 697 q 426 724 468 731 q 363 683 390 718 q 319 599 335 647 q 299 495 303 550 q 308 396 296 440 q 349 326 321 351 q 425 308 378 300 q 490 329 457 315 q 554 363 522 343 q 633 388 592 392 q 697 361 675 385 q 729 287 729 326 q 710 211 729 247 q 630 117 681 156 q 518 62 579 79 q 390 49 457 44 q 263 78 324 53 q 153 153 203 104 q 75 278 103 203 z "},"b":{"ha":911,"x_min":32,"x_max":872,"o":"m 324 728 q 439 756 376 750 q 563 753 501 763 q 683 718 625 743 q 783 652 740 693 q 849 555 826 611 q 867 426 872 499 q 815 276 860 343 q 703 160 769 208 q 554 82 636 111 q 393 46 472 53 q 239 46 307 39 q 124 85 171 53 q 55 181 78 117 q 36 356 32 246 q 41 698 43 522 q 38 1054 39 874 q 46 1099 38 1076 q 69 1140 54 1122 q 108 1169 85 1157 q 160 1182 131 1181 q 269 1146 232 1186 q 319 1040 306 1106 q 331 891 333 974 q 324 728 329 808 m 332 299 q 367 297 346 297 q 411 301 388 297 q 459 314 435 306 q 506 336 483 322 q 563 392 543 358 q 581 458 582 425 q 556 517 579 490 q 486 554 533 543 q 419 555 454 561 q 353 529 385 549 q 329 481 328 513 q 331 392 331 438 q 332 299 331 347 z "},"a":{"ha":794,"x_min":15,"x_max":765,"o":"m 515 113 q 455 90 481 99 q 406 75 429 81 q 355 69 382 69 q 290 71 328 68 q 195 94 240 75 q 115 144 150 114 q 56 215 79 175 q 26 301 33 256 q 44 440 15 381 q 138 543 72 500 q 217 578 176 567 q 302 593 258 589 q 391 595 346 597 q 482 592 436 593 q 456 660 475 639 q 405 681 436 681 q 333 664 374 681 q 243 618 292 647 q 140 594 185 583 q 73 638 96 604 q 54 719 50 672 q 97 807 58 767 q 212 897 150 861 q 338 947 274 932 q 463 956 401 961 q 578 922 525 950 q 671 844 631 894 q 733 719 711 793 q 756 583 751 654 q 758 438 760 511 q 756 294 757 365 q 761 163 754 224 q 740 97 765 122 q 674 65 714 72 q 591 68 635 57 q 515 113 547 79 m 492 313 q 488 344 489 325 q 485 378 488 363 q 429 392 465 386 q 357 392 393 397 q 299 369 319 386 q 277 335 278 353 q 297 302 276 317 q 361 286 317 288 q 435 292 397 285 q 492 313 474 299 z "},":":{"ha":382,"x_min":81,"x_max":313,"o":"m 313 651 q 304 607 313 628 q 281 570 296 586 q 246 544 267 554 q 203 532 225 533 q 159 539 179 531 q 123 562 139 547 q 97 597 107 576 q 85 640 86 617 q 115 727 82 692 q 197 764 147 763 q 278 732 244 765 q 313 651 311 699 m 311 253 q 303 208 311 229 q 280 172 294 188 q 244 145 265 156 q 201 133 224 135 q 158 140 178 132 q 122 163 138 149 q 95 198 106 178 q 83 242 85 218 q 113 328 81 293 q 196 365 146 364 q 276 333 243 367 q 311 253 310 300 z "},"”":{"ha":411,"x_min":50,"x_max":347,"o":"m 168 943 q 108 918 150 914 q 65 960 69 926 q 58 1039 61 1000 q 51 1117 54 1078 q 64 1156 50 1140 q 101 1175 78 1172 q 144 1165 126 1178 q 171 1129 161 1151 q 184 1079 181 1107 q 187 1024 188 1051 q 181 975 186 997 q 168 943 175 953 m 328 943 q 268 918 310 914 q 225 960 229 926 q 217 1039 221 1000 q 211 1117 214 1078 q 224 1156 210 1140 q 261 1175 238 1172 q 303 1165 286 1178 q 331 1129 321 1151 q 344 1079 340 1107 q 347 1024 347 1051 q 340 975 346 997 q 328 943 335 953 z "},"“":{"ha":411,"x_min":65,"x_max":363,"o":"m 244 1160 q 304 1185 263 1189 q 347 1143 343 1176 q 355 1064 351 1103 q 361 986 358 1025 q 349 947 363 963 q 311 928 335 931 q 269 938 286 925 q 242 974 251 951 q 228 1024 232 996 q 226 1078 225 1051 q 231 1127 226 1106 q 244 1160 236 1149 m 85 1160 q 144 1185 103 1189 q 188 1143 183 1176 q 195 1064 192 1103 q 201 986 199 1025 q 189 947 203 963 q 151 928 175 931 q 109 938 126 925 q 82 974 92 951 q 69 1024 72 996 q 66 1078 65 1051 q 72 1127 67 1106 q 85 1160 76 1149 z "},"’":{"ha":251,"x_min":50,"x_max":188,"o":"m 168 943 q 108 918 150 914 q 65 960 69 926 q 58 1039 61 1000 q 51 1117 54 1078 q 64 1156 50 1140 q 101 1175 78 1172 q 144 1165 126 1178 q 171 1129 161 1151 q 184 1079 181 1107 q 187 1024 188 1051 q 181 975 186 997 q 168 943 175 953 z "},"‘":{"ha":251,"x_min":65,"x_max":203,"o":"m 85 1160 q 144 1185 103 1189 q 188 1143 183 1176 q 195 1064 192 1103 q 201 986 199 1025 q 189 947 203 963 q 151 928 175 931 q 109 938 126 925 q 82 974 92 951 q 69 1024 72 996 q 66 1078 65 1051 q 72 1127 67 1106 q 85 1160 76 1149 z "},"±":{"ha":844,"x_min":67,"x_max":803,"o":"m 510 503 q 506 399 510 446 q 488 318 501 351 q 450 267 475 285 q 385 253 425 250 q 331 279 350 256 q 307 338 313 303 q 301 412 300 374 q 296 485 301 450 l 203 485 q 173 485 188 485 q 143 488 158 485 q 97 513 115 492 q 72 561 78 535 q 78 613 67 588 q 121 650 89 638 q 163 663 143 658 q 202 670 182 667 q 243 676 222 674 q 289 683 264 679 q 289 719 289 699 q 288 760 289 739 q 288 800 288 781 q 289 836 288 819 q 301 873 290 857 q 328 899 313 889 q 364 915 344 910 q 400 922 383 921 q 465 910 436 925 q 504 853 494 896 q 510 781 511 821 q 513 708 510 742 q 622 699 565 703 q 732 676 679 696 q 777 641 764 665 q 786 591 790 617 q 762 544 782 565 q 707 521 742 524 q 610 511 658 517 q 510 503 561 506 m 744 68 q 646 49 713 58 q 499 35 579 40 q 334 28 418 29 q 183 36 250 28 q 141 45 161 39 q 106 62 121 51 q 82 90 90 72 q 74 132 74 107 q 113 209 76 186 q 219 232 149 232 q 462 229 342 232 q 704 224 582 226 q 734 218 719 222 q 761 207 749 214 q 793 176 783 196 q 801 134 803 156 q 784 94 799 113 q 744 68 769 76 z "},"#":{"ha":1121,"x_min":68,"x_max":1051,"o":"m 269 88 q 265 117 265 96 q 266 164 265 138 q 269 219 267 190 q 274 274 271 249 q 242 276 257 275 q 213 276 228 276 q 181 278 197 278 q 147 282 164 278 q 97 309 117 289 q 74 356 76 329 q 88 406 71 382 q 135 440 104 431 q 210 458 171 451 q 289 474 249 465 q 294 514 292 493 q 299 563 296 535 q 260 563 278 563 q 222 564 242 564 q 186 563 203 564 q 151 565 169 563 q 99 588 119 568 q 74 635 78 607 q 81 689 68 663 q 124 726 93 715 q 226 754 172 746 q 335 767 279 763 q 363 892 351 828 q 396 1017 374 956 q 444 1071 411 1056 q 508 1081 476 1086 q 562 1049 542 1074 q 582 981 582 1024 q 581 888 585 935 q 571 790 578 840 l 710 790 q 729 859 721 825 q 747 928 738 893 q 797 1004 761 974 q 871 1039 833 1035 q 939 1017 908 1043 q 975 928 969 992 q 966 865 976 904 q 944 775 956 826 q 981 758 961 767 q 1015 739 1000 750 q 1038 710 1029 728 q 1040 665 1046 692 q 1024 627 1036 640 q 994 608 1011 614 q 956 599 976 601 q 917 596 936 597 q 910 565 914 581 q 903 531 906 549 q 942 523 924 526 q 979 515 960 519 q 1047 432 1051 494 q 971 363 1040 374 q 931 356 951 360 q 889 350 910 351 q 840 308 850 349 q 816 222 829 267 q 783 135 803 176 q 739 85 767 100 q 678 76 711 71 q 625 108 646 83 q 601 169 604 132 q 601 190 601 179 q 601 215 601 200 q 602 250 601 229 q 603 301 603 271 q 543 293 572 297 q 482 286 514 289 q 466 179 474 233 q 451 71 458 125 q 392 -3 443 11 q 340 -7 361 -11 q 303 10 318 -3 q 281 44 289 24 q 269 88 272 64 m 526 501 q 584 504 558 503 q 638 507 610 506 q 645 541 642 525 q 651 572 649 557 l 538 572 q 533 538 535 553 q 526 501 531 522 z "},"!":{"ha":396,"x_min":57,"x_max":340,"o":"m 264 376 q 231 351 251 360 q 190 342 211 342 q 150 355 169 343 q 119 390 131 367 q 95 467 106 415 q 78 586 85 519 q 69 726 71 653 q 69 865 67 799 q 78 984 71 932 q 96 1061 85 1036 q 142 1122 108 1103 q 213 1140 175 1140 q 283 1121 250 1139 q 325 1072 315 1103 q 335 1022 331 1067 q 340 910 339 978 q 338 763 340 843 q 326 608 335 683 q 303 469 318 532 q 264 376 288 407 m 192 268 q 265 247 235 267 q 313 199 296 228 q 331 136 329 169 q 319 74 333 103 q 273 27 304 46 q 193 10 242 8 q 96 48 135 10 q 57 143 57 86 q 67 192 57 169 q 96 233 78 215 q 138 259 114 250 q 192 268 163 268 z "},"\"":{"ha":411,"x_min":50,"x_max":347,"o":"m 168 943 q 108 918 150 914 q 65 960 69 926 q 58 1039 61 1000 q 51 1117 54 1078 q 64 1156 50 1140 q 101 1175 78 1172 q 144 1165 126 1178 q 171 1129 161 1151 q 184 1079 181 1107 q 187 1024 188 1051 q 181 975 186 997 q 168 943 175 953 m 328 943 q 268 918 310 914 q 225 960 229 926 q 217 1039 221 1000 q 211 1117 214 1078 q 224 1156 210 1140 q 261 1175 238 1172 q 303 1165 286 1178 q 331 1129 321 1151 q 344 1079 340 1107 q 347 1024 347 1051 q 340 975 346 997 q 328 943 335 953 z "},"¡":{"ha":396,"x_min":57,"x_max":340,"o":"m 264 599 q 231 624 251 615 q 190 633 211 633 q 150 620 169 632 q 119 585 131 608 q 95 508 106 560 q 78 389 85 456 q 69 249 71 322 q 69 110 67 176 q 78 -9 71 43 q 96 -86 85 -61 q 142 -146 108 -128 q 213 -165 175 -165 q 283 -146 250 -164 q 325 -97 315 -128 q 335 -47 331 -92 q 340 65 339 -3 q 338 212 340 132 q 326 367 335 292 q 303 506 318 443 q 264 599 288 568 m 192 707 q 265 728 235 708 q 313 776 296 747 q 331 839 329 806 q 319 901 333 872 q 273 948 304 929 q 193 965 242 967 q 96 927 135 965 q 57 832 57 889 q 67 783 57 806 q 96 742 78 760 q 138 716 114 725 q 192 707 163 707 z "},"¿":{"ha":783,"x_min":26,"x_max":763,"o":"m 92 -146 q 39 -58 51 -105 q 36 39 26 -11 q 72 135 46 90 q 130 221 97 179 q 198 302 163 263 q 263 382 233 342 q 310 465 292 422 q 325 556 328 508 q 344 599 324 581 q 394 624 364 617 q 456 626 424 631 q 513 600 489 621 q 547 542 538 579 q 538 446 556 504 q 500 347 521 390 q 454 263 479 303 q 400 182 429 222 q 338 94 371 142 q 312 17 301 44 q 356 -17 322 -10 q 432 -15 389 -25 q 506 19 475 -6 q 517 48 521 32 q 502 81 513 64 q 479 117 492 99 q 463 154 467 136 q 475 219 456 193 q 525 261 494 246 q 605 271 567 281 q 674 235 643 261 q 725 172 704 208 q 751 100 746 136 q 747 -8 763 40 q 697 -94 731 -57 q 615 -160 663 -132 q 513 -204 567 -187 q 404 -226 460 -221 q 300 -228 349 -232 q 181 -201 233 -221 q 92 -146 128 -182 m 432 899 q 500 884 472 900 q 541 844 528 868 q 554 792 554 821 q 540 740 554 764 q 499 699 526 715 q 428 682 471 683 q 358 696 386 681 q 317 734 331 711 q 304 785 303 757 q 318 837 304 813 q 360 878 332 861 q 432 899 389 896 z "},"‚":{"ha":381,"x_min":64,"x_max":326,"o":"m 317 275 q 321 197 326 246 q 298 100 315 147 q 250 21 281 53 q 179 -7 219 -11 q 138 16 151 -4 q 129 72 125 36 q 129 124 135 103 q 100 165 124 146 q 68 222 72 189 q 81 290 64 254 q 134 346 100 326 q 203 365 168 365 q 270 343 239 365 q 317 275 301 321 z "},"„":{"ha":672,"x_min":64,"x_max":614,"o":"m 317 275 q 321 197 326 246 q 298 100 315 147 q 250 21 281 53 q 179 -7 219 -11 q 138 16 151 -4 q 129 72 125 36 q 129 124 135 103 q 100 165 124 146 q 68 222 72 189 q 81 290 64 254 q 134 346 100 326 q 203 365 168 365 q 270 343 239 365 q 317 275 301 321 m 604 275 q 608 197 614 246 q 585 100 603 147 q 538 21 568 53 q 467 -7 507 -11 q 426 16 439 -4 q 417 72 413 36 q 417 124 422 103 q 388 165 411 146 q 356 222 360 189 q 368 290 351 254 q 422 346 388 326 q 491 365 456 365 q 558 343 526 365 q 604 275 589 321 z "},"‰":{"ha":1475,"x_min":42,"x_max":1424,"o":"m 744 1003 q 805 1038 778 1032 q 874 1025 832 1044 q 917 997 897 1014 q 947 960 936 981 q 955 919 957 940 q 932 878 953 897 q 753 681 842 788 q 586 462 665 574 q 439 241 507 350 q 319 40 371 132 q 263 3 299 4 q 194 24 226 3 q 142 81 161 46 q 136 150 122 115 q 198 267 154 193 q 300 428 242 342 q 424 608 358 515 q 551 780 489 700 q 664 919 613 860 q 744 1003 715 979 m 229 554 q 113 592 158 556 q 53 694 68 628 q 51 788 42 742 q 86 872 61 833 q 149 940 111 911 q 233 979 186 968 q 293 982 264 986 q 349 965 322 978 q 399 933 376 953 q 436 890 421 914 q 463 808 463 851 q 446 724 463 765 q 399 646 429 682 q 332 585 368 610 q 283 561 308 568 q 229 554 258 554 m 204 739 q 224 706 204 715 q 267 707 243 696 q 288 720 275 710 q 313 744 301 731 q 328 773 324 758 q 321 799 332 788 q 276 822 297 819 q 240 815 256 825 q 214 785 224 806 q 204 739 204 765 m 740 43 q 624 81 669 44 q 564 183 579 117 q 563 276 553 231 q 597 361 572 322 q 660 428 622 400 q 744 468 697 457 q 804 471 775 475 q 860 454 833 467 q 910 422 888 442 q 947 379 932 403 q 974 297 974 340 q 957 213 974 254 q 910 135 940 171 q 843 74 879 99 q 794 50 819 57 q 740 43 769 43 m 715 228 q 735 194 715 204 q 778 196 754 185 q 799 209 786 199 q 824 233 813 219 q 839 262 835 247 q 832 288 843 276 q 788 311 808 308 q 751 304 767 314 q 725 274 735 294 q 715 228 715 254 m 1190 43 q 1074 81 1119 44 q 1014 183 1029 117 q 1013 276 1003 231 q 1047 361 1022 322 q 1110 428 1072 400 q 1194 468 1147 457 q 1254 471 1225 475 q 1310 454 1283 467 q 1360 422 1338 442 q 1397 379 1382 403 q 1424 297 1424 340 q 1407 213 1424 254 q 1360 135 1390 171 q 1293 74 1329 99 q 1244 50 1269 57 q 1190 43 1219 43 m 1165 228 q 1185 194 1165 204 q 1228 196 1204 185 q 1249 209 1236 199 q 1274 233 1263 219 q 1289 262 1285 247 q 1282 288 1293 276 q 1238 311 1258 308 q 1201 304 1217 314 q 1175 274 1185 294 q 1165 228 1165 254 z "},"…":{"ha":1129,"x_min":76,"x_max":1060,"o":"m 307 128 q 299 83 307 104 q 276 47 290 63 q 240 20 261 31 q 197 8 219 10 q 153 15 174 7 q 117 38 133 24 q 91 73 101 53 q 79 117 81 93 q 109 203 76 168 q 192 240 142 239 q 272 208 239 242 q 307 128 306 175 m 683 128 q 675 83 683 104 q 652 47 667 63 q 617 20 638 31 q 574 8 596 10 q 530 15 550 7 q 494 38 510 24 q 467 73 478 53 q 456 117 457 93 q 485 203 453 168 q 568 240 518 239 q 649 208 615 242 q 683 128 682 175 m 1060 128 q 1051 83 1060 104 q 1028 47 1043 63 q 993 20 1014 31 q 950 8 972 10 q 906 15 926 7 q 870 38 886 24 q 844 73 854 53 q 832 117 833 93 q 862 203 829 168 q 944 240 894 239 q 1025 208 992 242 q 1060 128 1058 175 z "},"´":{"ha":482,"x_min":39,"x_max":436,"o":"m 69 983 q 89 1085 39 1032 q 173 1167 131 1126 q 260 1249 215 1208 q 285 1268 271 1260 q 315 1282 300 1276 q 367 1285 340 1293 q 411 1257 394 1276 q 433 1210 429 1236 q 422 1158 436 1185 q 378 1108 408 1135 q 314 1054 349 1081 q 245 1004 279 1028 q 188 963 211 981 q 123 944 157 939 q 69 983 89 950 z "},"ˆ":{"ha":618,"x_min":88,"x_max":553,"o":"m 311 915 q 269 853 290 885 q 217 794 247 822 q 171 769 196 776 q 119 782 146 763 q 95 817 103 796 q 97 860 88 838 q 129 919 111 890 q 166 976 147 947 q 204 1038 185 1006 q 239 1107 224 1069 q 269 1150 250 1133 q 318 1169 289 1167 q 374 1160 349 1172 q 408 1119 399 1147 q 438 1049 421 1083 q 473 983 454 1015 q 510 922 492 951 q 543 865 528 892 q 550 831 553 849 q 536 801 547 814 q 508 781 525 788 q 471 781 490 775 q 381 835 418 796 q 311 915 343 874 z "},"˜":{"ha":624,"x_min":56,"x_max":578,"o":"m 332 1017 q 369 974 351 997 q 407 931 386 951 q 431 924 432 906 q 431 996 431 943 q 448 1037 431 1022 q 488 1053 465 1051 q 533 1044 511 1056 q 564 1010 556 1033 q 576 929 578 968 q 562 860 575 890 q 525 810 549 829 q 471 786 501 790 q 426 790 449 783 q 385 808 404 796 q 347 838 365 821 q 315 869 329 854 q 269 911 286 901 q 240 911 251 921 q 219 874 228 901 q 200 803 211 846 q 180 777 196 788 q 131 768 164 767 q 79 785 103 768 q 60 844 56 803 q 87 943 63 892 q 149 1027 111 994 q 234 1063 186 1060 q 332 1017 282 1067 z "},"¨":{"ha":525,"x_min":46,"x_max":482,"o":"m 233 964 q 208 898 235 926 q 144 867 182 869 q 110 872 126 865 q 80 891 93 879 q 58 919 67 903 q 49 954 50 936 q 73 1024 46 996 q 140 1054 100 1053 q 205 1028 178 1056 q 233 964 232 1001 m 481 964 q 456 898 482 926 q 392 867 429 869 q 357 872 374 865 q 327 891 340 879 q 306 919 314 903 q 296 954 297 936 q 320 1024 293 996 q 388 1054 347 1053 q 452 1028 425 1056 q 481 964 479 1001 z "},"˚":{"ha":421,"x_min":39,"x_max":379,"o":"m 190 799 q 97 829 133 800 q 47 913 60 858 q 47 988 39 950 q 74 1057 54 1025 q 125 1112 94 1089 q 193 1143 156 1135 q 287 1131 242 1154 q 358 1071 332 1108 q 379 1004 379 1039 q 366 936 379 969 q 328 874 353 903 q 274 824 303 844 q 190 799 239 799 m 169 949 q 185 921 169 929 q 221 922 201 913 q 238 933 226 925 q 258 953 249 942 q 270 976 267 964 q 264 996 274 988 q 228 1015 246 1013 q 198 1010 211 1018 q 177 986 185 1003 q 169 949 169 969 z "},"™":{"ha":893,"x_min":46,"x_max":836,"o":"m 275 1056 q 276 995 274 1028 q 280 931 278 963 q 283 868 282 899 q 279 813 283 838 q 267 778 276 793 q 233 760 257 764 q 190 760 204 756 q 170 776 176 765 q 164 800 164 786 q 164 826 164 814 q 165 874 164 844 q 166 938 165 904 q 167 1002 167 971 q 168 1053 168 1033 q 125 1058 147 1056 q 81 1067 103 1060 q 50 1107 46 1076 q 94 1133 57 1133 q 215 1135 156 1135 q 335 1138 274 1136 q 376 1119 368 1140 q 372 1092 382 1104 q 347 1072 363 1081 q 310 1060 331 1064 q 275 1056 290 1056 m 654 886 q 622 872 640 872 q 589 886 604 871 q 571 908 581 894 q 551 935 561 921 q 531 963 540 949 q 514 985 522 976 q 511 941 511 967 q 512 888 511 915 q 513 835 513 861 q 514 789 514 808 q 506 764 513 774 q 472 751 500 754 q 436 754 451 750 q 417 771 421 758 q 411 820 413 783 q 410 903 410 857 q 410 1001 410 950 q 408 1094 410 1053 q 418 1115 410 1110 q 446 1128 426 1121 q 485 1129 465 1135 q 518 1111 506 1124 q 569 1045 543 1088 q 621 971 596 1003 q 673 1045 646 1003 q 724 1111 700 1088 q 758 1129 738 1124 q 797 1128 778 1135 q 825 1115 817 1121 q 836 1094 833 1110 q 834 1001 833 1053 q 835 903 835 950 q 833 820 835 857 q 828 771 832 783 q 771 751 818 749 q 738 764 744 754 q 731 789 732 774 q 731 835 731 808 q 733 888 732 861 q 733 941 733 915 q 731 985 732 967 q 713 963 722 976 q 692 935 703 949 q 672 908 682 921 q 654 886 663 894 z "},"ß":{"ha":846,"x_min":-6,"x_max":806,"o":"m 446 506 q 385 510 408 500 q 352 540 363 521 q 343 583 342 558 q 353 628 344 607 q 379 664 363 649 q 418 681 396 679 q 469 707 447 682 q 500 763 492 732 q 499 826 508 794 q 454 874 489 857 q 418 882 439 881 q 378 882 397 883 q 316 871 339 879 q 282 845 293 863 q 269 801 271 828 q 271 736 267 775 q 288 603 276 675 q 306 457 299 531 q 315 311 314 383 q 304 178 317 239 q 273 104 296 131 q 222 66 250 78 q 166 53 194 54 q 119 56 138 51 q 36 82 63 65 q 2 123 10 99 q 2 178 -6 147 q 22 247 10 210 q 46 355 38 294 q 58 480 54 415 q 62 610 63 544 q 58 736 61 676 q 53 847 56 794 q 58 947 50 900 q 91 1032 67 993 q 168 1101 115 1071 q 287 1139 215 1129 q 431 1138 358 1149 q 565 1094 503 1126 q 654 1006 626 1061 q 675 872 685 944 q 629 733 665 799 q 593 678 608 696 q 575 651 578 661 q 586 633 572 642 q 638 606 600 624 q 761 499 722 564 q 803 363 800 433 q 776 226 806 293 q 697 112 747 158 q 578 47 646 65 q 436 57 511 29 q 410 76 425 61 q 384 111 396 90 q 366 156 372 132 q 365 201 360 179 q 388 242 369 224 q 444 268 406 260 q 499 283 474 272 q 544 313 525 294 q 572 356 563 331 q 575 417 581 382 q 534 483 568 456 q 446 506 500 511 z "},"ı":{"ha":364,"x_min":36,"x_max":333,"o":"m 75 146 q 56 226 64 169 q 42 357 47 283 q 37 513 38 431 q 42 667 36 594 q 58 797 47 740 q 89 875 69 853 q 142 910 110 899 q 208 920 175 922 q 270 901 242 918 q 310 849 299 883 q 322 771 317 825 q 331 647 328 717 q 333 501 333 578 q 328 353 332 424 q 315 225 324 282 q 293 140 306 168 q 244 89 276 104 q 182 71 213 74 q 123 87 151 68 q 75 146 94 106 z "},"Æ":{"ha":1163,"x_min":28,"x_max":1129,"o":"m 1050 844 q 1002 839 1026 835 q 953 853 978 843 q 901 875 928 863 q 849 896 875 888 q 806 906 825 903 q 771 899 786 908 q 747 863 756 889 q 739 785 739 836 l 739 568 q 790 571 763 569 q 847 573 818 572 q 901 575 875 574 q 949 578 928 576 q 1018 549 993 581 q 1047 478 1043 518 q 1030 403 1050 438 q 964 364 1010 368 q 852 361 911 360 q 735 356 793 363 q 738 265 739 303 q 745 203 738 226 q 774 172 753 179 q 843 172 796 164 q 931 193 888 181 q 1014 221 975 206 q 1085 216 1058 238 q 1121 158 1113 194 q 1117 82 1129 122 q 1069 21 1104 42 q 915 -40 997 -21 q 744 -68 833 -60 q 583 -39 649 -79 q 493 93 517 1 l 288 93 q 274 52 281 78 q 263 13 267 26 q 245 -26 256 -8 q 218 -54 235 -43 q 176 -68 201 -65 q 115 -64 151 -71 q 67 -44 85 -58 q 40 -10 49 -31 q 29 38 31 11 q 32 97 28 65 q 71 293 46 189 q 126 501 96 397 q 189 700 157 604 q 250 874 221 796 q 322 1019 283 961 q 415 1109 361 1076 q 542 1151 469 1142 q 714 1154 615 1161 q 803 1141 749 1151 q 913 1114 857 1131 q 1019 1075 969 1097 q 1093 1025 1068 1053 q 1110 981 1107 1008 q 1107 925 1114 953 q 1085 874 1100 897 q 1050 844 1071 851 m 475 289 q 463 676 463 501 q 430 604 447 653 q 394 499 413 556 q 360 388 376 443 q 332 293 344 332 l 475 289 z "},"Œ":{"ha":1407,"x_min":24,"x_max":1374,"o":"m 1294 844 q 1247 839 1271 835 q 1197 853 1222 843 q 1146 875 1172 863 q 1093 896 1119 888 q 1050 906 1069 903 q 1015 899 1031 908 q 992 863 1000 889 q 983 785 983 836 l 983 568 q 1035 571 1007 569 q 1091 573 1063 572 q 1146 575 1119 574 q 1193 578 1172 576 q 1263 549 1238 581 q 1291 478 1288 518 q 1274 403 1294 438 q 1208 364 1254 368 q 1097 361 1156 360 q 979 356 1038 363 q 983 265 983 303 q 990 203 982 226 q 1019 172 997 179 q 1088 172 1040 164 q 1176 193 1132 181 q 1258 221 1219 206 q 1330 216 1303 238 q 1365 158 1357 194 q 1361 82 1374 122 q 1314 21 1349 42 q 1160 -40 1242 -21 q 989 -68 1078 -60 q 834 -43 897 -78 q 744 72 771 -8 q 597 -22 678 4 q 437 -40 517 -49 q 283 10 357 -31 q 157 121 210 51 q 51 341 79 222 q 32 573 24 460 q 78 785 40 686 q 168 946 115 883 q 308 1065 235 1025 q 456 1108 382 1104 q 599 1085 529 1113 q 726 1006 668 1058 q 809 1122 749 1082 q 958 1154 869 1163 q 1047 1141 993 1151 q 1158 1114 1101 1131 q 1263 1075 1214 1097 q 1338 1025 1313 1053 q 1355 981 1351 1008 q 1351 925 1358 953 q 1330 874 1344 897 q 1294 844 1315 851 m 544 835 q 420 811 472 846 q 338 717 368 776 q 299 581 307 657 q 307 437 292 506 q 362 315 322 368 q 465 249 401 263 q 558 261 517 238 q 628 326 599 285 q 674 419 657 368 q 693 514 690 469 q 690 621 697 567 q 663 720 682 675 q 615 797 644 765 q 544 835 586 828 z "},"æ":{"ha":1207,"x_min":21,"x_max":1179,"o":"m 521 113 q 460 90 486 99 q 411 75 435 81 q 360 69 388 69 q 296 71 333 68 q 201 94 246 75 q 120 144 156 114 q 62 215 85 175 q 32 301 39 256 q 49 440 21 381 q 143 543 78 500 q 223 578 182 567 q 308 593 264 589 q 397 595 351 597 q 488 592 442 593 q 461 660 481 639 q 410 681 442 681 q 338 664 379 681 q 249 618 297 647 q 146 594 190 583 q 78 638 101 604 q 60 719 56 672 q 103 807 64 767 q 242 908 167 871 q 392 954 317 946 q 538 940 468 963 q 658 864 607 918 q 809 935 725 917 q 979 932 893 953 q 1051 899 1018 922 q 1110 845 1085 876 q 1151 775 1135 814 q 1171 694 1167 736 q 1148 553 1179 611 q 1060 461 1117 494 q 928 420 1003 428 q 774 431 853 413 q 792 349 772 376 q 843 315 813 321 q 910 319 874 308 q 976 354 946 331 q 1068 389 1025 388 q 1135 361 1111 390 q 1163 265 1171 313 q 1117 179 1154 217 q 1029 113 1075 138 q 935 81 983 89 q 840 78 888 72 q 750 104 793 85 q 705 72 733 83 q 644 62 676 61 q 578 75 611 63 q 521 113 546 88 m 497 313 q 494 344 494 325 q 490 378 493 363 q 435 392 471 386 q 363 392 399 397 q 304 369 325 386 q 283 335 283 353 q 302 302 282 317 q 367 286 322 288 q 441 292 403 285 q 497 313 479 299 m 783 629 q 837 619 811 624 q 889 614 863 614 q 921 626 906 614 q 944 656 936 638 q 951 694 953 674 q 929 731 949 714 q 891 742 911 743 q 851 727 871 740 q 813 689 831 714 q 783 629 796 664 z "},"œ":{"ha":1297,"x_min":31,"x_max":1269,"o":"m 63 360 q 34 505 38 431 q 47 649 31 579 q 99 782 64 719 q 188 890 135 844 q 309 963 240 936 q 461 986 378 989 q 619 947 551 983 q 736 853 688 911 q 891 933 803 913 q 1069 932 979 954 q 1142 899 1108 922 q 1200 845 1175 876 q 1241 775 1225 814 q 1261 694 1257 736 q 1238 553 1269 611 q 1150 461 1207 494 q 1018 420 1093 428 q 864 431 943 413 q 883 349 863 376 q 933 315 903 321 q 1000 319 964 308 q 1067 354 1036 331 q 1158 389 1115 388 q 1225 361 1201 390 q 1253 265 1261 313 q 1207 179 1244 217 q 1081 95 1149 119 q 948 76 1014 71 q 821 113 882 82 q 713 196 760 144 q 535 83 632 110 q 347 81 439 57 q 179 177 256 106 q 63 360 103 249 m 444 318 q 528 353 496 322 q 576 430 561 385 q 591 526 592 475 q 574 622 590 578 q 528 697 558 667 q 456 732 497 728 q 360 708 397 738 q 307 633 324 679 q 292 531 290 586 q 311 428 293 476 q 363 349 329 381 q 444 318 396 317 m 874 629 q 927 619 901 624 q 979 614 953 614 q 1011 626 996 614 q 1035 656 1026 638 q 1041 694 1043 674 q 1019 731 1039 714 q 981 742 1001 743 q 941 727 961 740 q 903 689 921 714 q 874 629 886 664 z "},"Ç":{"ha":838,"x_min":29,"x_max":810,"o":"m 486 826 q 389 800 431 826 q 320 732 347 774 q 280 637 293 690 q 269 531 267 583 q 288 429 271 478 q 339 347 306 381 q 451 290 383 301 q 597 329 518 279 q 630 351 615 339 q 659 369 644 363 q 692 377 674 376 q 736 365 710 378 q 776 332 758 354 q 801 283 793 310 q 806 226 810 256 q 786 172 803 197 q 701 76 746 115 q 610 16 657 38 q 515 -12 563 -6 q 419 -12 467 -19 l 419 -43 q 472 -35 444 -36 q 524 -41 500 -33 q 568 -65 549 -49 q 596 -112 588 -82 q 597 -185 606 -147 q 564 -249 588 -222 q 489 -297 533 -281 q 399 -301 444 -312 q 358 -283 378 -296 q 328 -246 339 -271 q 324 -217 321 -232 q 338 -190 328 -201 q 363 -174 349 -179 q 393 -178 378 -169 q 423 -192 410 -187 q 446 -199 436 -196 q 478 -190 468 -203 q 489 -160 489 -176 q 478 -131 489 -144 q 444 -122 467 -118 q 422 -131 433 -125 q 404 -143 411 -136 q 379 -153 393 -151 q 353 -151 365 -156 q 332 -137 340 -147 q 325 -111 324 -128 q 329 -53 328 -87 q 332 8 331 -18 q 203 88 261 35 q 106 213 144 139 q 49 372 68 286 q 29 548 29 457 q 49 724 29 639 q 106 883 68 810 q 203 1008 144 957 q 337 1088 263 1060 q 489 1111 411 1117 q 644 1061 567 1106 q 786 924 721 1017 q 806 869 803 899 q 801 813 810 840 q 776 764 793 786 q 736 731 758 742 q 692 719 710 718 q 659 726 674 719 q 630 744 644 733 q 597 767 615 756 q 486 826 546 826 z "},"ç":{"ha":786,"x_min":29,"x_max":747,"o":"m 75 278 q 35 457 40 361 q 51 647 29 553 q 100 768 65 710 q 183 872 135 826 q 293 944 232 917 q 424 974 354 971 q 539 959 481 976 q 643 906 597 942 q 718 819 689 871 q 746 701 747 767 q 725 628 746 658 q 658 594 704 599 q 604 610 626 590 q 556 665 582 629 q 500 714 532 697 q 426 724 468 731 q 363 683 390 718 q 319 599 335 647 q 299 495 303 550 q 308 396 296 440 q 349 326 321 351 q 425 308 378 300 q 490 329 457 315 q 554 363 522 343 q 633 388 592 392 q 697 361 675 385 q 729 287 729 326 q 710 211 729 247 q 658 142 689 172 q 590 92 628 113 q 510 60 553 71 q 422 49 467 50 l 422 31 q 475 39 447 38 q 527 33 503 40 q 571 8 551 25 q 599 -39 590 -8 q 599 -111 608 -74 q 567 -175 590 -149 q 492 -223 536 -207 q 401 -228 447 -239 q 361 -210 381 -222 q 331 -172 342 -197 q 327 -143 324 -158 q 341 -117 331 -128 q 366 -101 351 -106 q 396 -104 381 -96 q 426 -118 413 -114 q 449 -125 439 -122 q 481 -116 471 -129 q 492 -87 492 -103 q 481 -58 492 -71 q 447 -49 469 -44 q 425 -57 436 -51 q 407 -69 414 -62 q 382 -80 396 -78 q 356 -78 368 -82 q 335 -64 343 -74 q 328 -37 326 -54 q 331 6 331 -19 q 333 56 332 32 q 181 127 250 72 q 75 278 111 182 z "},"Ø":{"ha":974,"x_min":33,"x_max":921,"o":"m 178 946 q 301 1055 236 1017 q 432 1103 367 1093 q 561 1099 497 1114 q 682 1047 625 1085 q 710 1068 693 1058 q 769 1083 736 1088 q 827 1059 803 1079 q 858 1006 851 1039 q 838 938 864 974 l 817 908 q 896 713 871 822 q 916 493 921 604 q 876 277 911 382 q 774 94 840 172 q 685 17 732 47 q 587 -27 638 -12 q 484 -41 536 -42 q 382 -26 432 -40 q 336 -63 361 -56 q 288 -60 311 -71 q 242 -20 260 -49 q 231 54 224 8 q 167 121 197 82 q 61 341 89 222 q 42 573 33 460 q 88 785 50 686 q 178 946 125 883 m 703 514 q 701 602 706 558 q 685 686 696 646 q 581 466 628 578 q 493 246 535 354 q 578 267 540 242 q 643 334 617 293 q 685 424 669 375 q 703 514 700 472 m 528 836 q 406 794 456 839 q 332 682 357 750 q 306 535 307 614 q 331 389 306 456 q 423 623 372 507 q 528 836 474 739 z "},"ø":{"ha":897,"x_min":44,"x_max":863,"o":"m 218 154 q 136 242 172 192 q 76 360 100 293 q 48 505 51 431 q 61 649 44 579 q 113 782 78 719 q 201 890 149 844 q 323 963 254 936 q 475 986 392 989 q 578 969 531 983 q 609 1001 593 988 q 640 1025 625 1015 q 694 1039 664 1043 q 745 1017 724 1035 q 773 969 767 999 q 754 907 779 940 l 731 874 q 816 742 785 817 q 855 586 847 667 q 847 426 863 506 q 790 281 831 346 q 698 169 749 214 q 592 99 647 124 q 478 71 536 75 q 365 81 421 67 l 363 72 q 315 11 343 25 q 260 10 288 -3 q 216 51 232 21 q 213 129 200 81 l 218 154 m 458 318 q 542 353 510 322 q 590 429 575 385 q 605 525 606 474 q 588 621 604 576 q 519 469 551 546 q 457 318 488 393 l 458 318 m 431 731 q 362 696 389 724 q 321 630 335 668 q 306 546 307 592 q 315 458 304 500 q 370 598 342 529 q 431 731 399 667 z "},"Ð":{"ha":932,"x_min":-14,"x_max":907,"o":"m 28 933 q 28 987 28 964 q 35 1028 28 1010 q 60 1062 43 1047 q 111 1090 78 1076 q 188 1115 144 1104 q 281 1129 232 1125 q 381 1132 329 1133 q 483 1122 432 1131 q 690 1042 606 1103 q 825 894 775 981 q 891 705 875 808 q 892 499 907 601 q 832 302 876 396 q 717 140 788 208 q 549 40 646 72 q 333 26 453 7 q 295 28 313 31 q 260 7 278 26 q 191 -20 229 -15 q 119 -16 153 -25 q 62 13 85 -7 q 40 61 39 33 q 44 263 46 153 q 39 486 43 372 q 1 517 15 497 q -12 572 -14 536 q 3 613 -10 593 q 35 640 15 632 q 30 794 32 719 q 28 933 28 869 m 458 642 q 515 626 493 640 q 539 571 536 611 q 500 504 540 526 q 429 483 475 492 q 329 471 383 475 q 329 341 331 404 q 322 219 328 278 q 429 238 379 222 q 515 288 479 253 q 596 404 567 336 q 633 547 625 472 q 624 692 640 621 q 568 815 608 763 q 464 893 528 867 q 310 904 400 919 q 318 776 314 843 q 325 639 322 710 q 394 638 361 638 q 458 642 428 639 z "},"ð":{"ha":833,"x_min":28,"x_max":849,"o":"m 556 151 q 511 131 539 140 q 449 117 483 122 q 375 110 414 111 q 297 115 336 110 q 169 161 222 126 q 85 247 117 196 q 40 358 53 297 q 33 481 28 418 q 61 602 39 543 q 122 708 83 661 q 211 786 160 756 q 328 821 263 817 q 423 826 372 824 q 532 818 474 828 l 532 853 q 478 856 503 854 q 435 863 454 858 q 387 885 407 869 q 369 936 367 900 q 389 976 372 957 q 433 993 406 994 q 488 991 460 992 q 543 990 515 990 q 561 1042 550 1019 q 593 1085 572 1064 q 646 1110 615 1107 q 708 1107 676 1114 q 771 1065 757 1096 q 788 989 785 1035 q 828 974 813 986 q 847 935 844 963 q 814 882 849 900 l 788 874 q 786 649 786 757 q 788 449 786 540 q 794 292 790 358 q 806 194 799 225 q 810 146 811 171 q 798 100 808 121 q 767 65 788 79 q 713 49 746 51 q 667 51 690 46 q 622 69 643 57 q 583 103 600 82 q 556 151 565 124 m 521 582 q 463 597 496 593 q 397 593 431 600 q 331 566 358 586 q 290 520 304 546 q 276 467 276 494 q 288 415 275 439 q 328 377 301 392 q 399 363 356 363 q 431 364 417 363 q 458 367 444 365 q 487 372 472 369 q 521 376 501 374 l 521 582 z "},"¸":{"ha":335,"x_min":28,"x_max":313,"o":"m 126 490 l 126 415 q 179 424 151 422 q 231 417 207 425 q 275 393 256 410 q 303 346 294 376 q 303 274 313 311 q 271 210 294 236 q 196 162 240 178 q 106 157 151 146 q 65 175 85 163 q 35 213 46 188 q 31 242 28 226 q 45 268 35 257 q 70 284 56 279 q 100 281 85 289 q 130 267 117 271 q 153 260 143 263 q 185 269 175 256 q 196 298 196 282 q 185 327 196 314 q 151 336 174 340 q 129 328 140 333 q 111 315 118 322 q 86 305 100 307 q 60 307 72 303 q 39 321 47 311 q 32 347 31 331 q 35 381 33 361 q 37 420 36 400 q 39 458 38 440 q 40 488 40 476 l 126 490 z "},"À":{"ha":831,"x_min":32,"x_max":786,"o":"m 292 93 q 278 52 285 78 q 267 13 271 26 q 249 -26 260 -8 q 222 -54 239 -43 q 181 -68 206 -65 q 119 -64 156 -71 q 71 -44 89 -58 q 44 -10 53 -31 q 33 38 35 11 q 36 97 32 65 q 75 293 50 189 q 131 501 100 397 q 193 700 161 604 q 254 874 225 796 q 289 967 271 919 q 333 1052 307 1014 q 399 1115 360 1090 q 501 1140 439 1139 q 594 1118 560 1142 q 646 1056 628 1094 q 671 969 664 1018 q 681 874 678 921 q 702 653 689 771 q 730 426 715 536 q 757 228 744 317 q 778 94 769 139 q 785 38 783 65 q 777 -10 786 11 q 747 -46 768 -32 q 685 -62 725 -60 q 619 -53 644 -65 q 579 -18 594 -40 q 557 33 564 4 q 547 93 550 63 l 292 93 m 519 288 q 507 385 514 328 q 493 501 500 443 q 480 609 486 560 q 469 681 474 658 q 437 610 454 658 q 401 504 419 561 q 365 390 382 447 q 336 293 349 332 l 519 288 m 681 1261 q 627 1222 661 1228 q 563 1240 593 1217 q 505 1282 539 1258 q 436 1332 471 1306 q 372 1385 401 1358 q 328 1436 342 1413 q 317 1488 314 1463 q 339 1535 321 1514 q 383 1563 356 1554 q 435 1560 410 1571 q 465 1546 450 1554 q 490 1526 479 1538 q 577 1445 535 1486 q 661 1363 619 1404 q 681 1261 711 1310 z "},"Á":{"ha":831,"x_min":32,"x_max":786,"o":"m 292 93 q 278 52 285 78 q 267 13 271 26 q 249 -26 260 -8 q 222 -54 239 -43 q 181 -68 206 -65 q 119 -64 156 -71 q 71 -44 89 -58 q 44 -10 53 -31 q 33 38 35 11 q 36 97 32 65 q 75 293 50 189 q 131 501 100 397 q 193 700 161 604 q 254 874 225 796 q 289 967 271 919 q 333 1052 307 1014 q 399 1115 360 1090 q 501 1140 439 1139 q 594 1118 560 1142 q 646 1056 628 1094 q 671 969 664 1018 q 681 874 678 921 q 702 653 689 771 q 730 426 715 536 q 757 228 744 317 q 778 94 769 139 q 785 38 783 65 q 777 -10 786 11 q 747 -46 768 -32 q 685 -62 725 -60 q 619 -53 644 -65 q 579 -18 594 -40 q 557 33 564 4 q 547 93 550 63 l 292 93 m 519 288 q 507 385 514 328 q 493 501 500 443 q 480 609 486 560 q 469 681 474 658 q 437 610 454 658 q 401 504 419 561 q 365 390 382 447 q 336 293 349 332 l 519 288 m 314 1261 q 333 1363 283 1310 q 417 1445 375 1404 q 504 1526 460 1486 q 530 1546 515 1538 q 560 1560 544 1554 q 612 1563 585 1571 q 656 1535 639 1554 q 677 1488 674 1514 q 667 1436 681 1463 q 623 1385 653 1413 q 558 1332 593 1358 q 490 1282 524 1306 q 432 1240 456 1258 q 367 1222 401 1217 q 314 1261 333 1228 z "},"Â":{"ha":831,"x_min":32,"x_max":786,"o":"m 292 93 q 278 52 285 78 q 267 13 271 26 q 249 -26 260 -8 q 222 -54 239 -43 q 181 -68 206 -65 q 119 -64 156 -71 q 71 -44 89 -58 q 44 -10 53 -31 q 33 38 35 11 q 36 97 32 65 q 75 293 50 189 q 131 501 100 397 q 193 700 161 604 q 254 874 225 796 q 289 967 271 919 q 333 1052 307 1014 q 399 1115 360 1090 q 501 1140 439 1139 q 594 1118 560 1142 q 646 1056 628 1094 q 671 969 664 1018 q 681 874 678 921 q 702 653 689 771 q 730 426 715 536 q 757 228 744 317 q 778 94 769 139 q 785 38 783 65 q 777 -10 786 11 q 747 -46 768 -32 q 685 -62 725 -60 q 619 -53 644 -65 q 579 -18 594 -40 q 557 33 564 4 q 547 93 550 63 l 292 93 m 519 288 q 507 385 514 328 q 493 501 500 443 q 480 609 486 560 q 469 681 474 658 q 437 610 454 658 q 401 504 419 561 q 365 390 382 447 q 336 293 349 332 l 519 288 m 504 1307 q 462 1245 483 1276 q 410 1186 440 1214 q 364 1161 389 1168 q 313 1174 339 1154 q 288 1208 296 1188 q 290 1251 281 1229 q 322 1310 304 1282 q 359 1368 340 1339 q 397 1429 378 1397 q 432 1499 417 1461 q 463 1542 443 1525 q 511 1561 482 1558 q 567 1551 542 1564 q 601 1511 592 1539 q 631 1441 614 1475 q 666 1375 647 1407 q 703 1313 685 1343 q 736 1257 721 1283 q 743 1223 746 1240 q 729 1192 740 1206 q 701 1173 718 1179 q 664 1172 683 1167 q 574 1226 611 1188 q 504 1307 536 1265 z "},"Ã":{"ha":831,"x_min":32,"x_max":786,"o":"m 292 93 q 278 52 285 78 q 267 13 271 26 q 249 -26 260 -8 q 222 -54 239 -43 q 181 -68 206 -65 q 119 -64 156 -71 q 71 -44 89 -58 q 44 -10 53 -31 q 33 38 35 11 q 36 97 32 65 q 75 293 50 189 q 131 501 100 397 q 193 700 161 604 q 254 874 225 796 q 289 967 271 919 q 333 1052 307 1014 q 399 1115 360 1090 q 501 1140 439 1139 q 594 1118 560 1142 q 646 1056 628 1094 q 671 969 664 1018 q 681 874 678 921 q 702 653 689 771 q 730 426 715 536 q 757 228 744 317 q 778 94 769 139 q 785 38 783 65 q 777 -10 786 11 q 747 -46 768 -32 q 685 -62 725 -60 q 619 -53 644 -65 q 579 -18 594 -40 q 557 33 564 4 q 547 93 550 63 l 292 93 m 519 288 q 507 385 514 328 q 493 501 500 443 q 480 609 486 560 q 469 681 474 658 q 437 610 454 658 q 401 504 419 561 q 365 390 382 447 q 336 293 349 332 l 519 288 m 510 1424 q 547 1381 529 1404 q 585 1338 564 1358 q 609 1331 610 1313 q 608 1403 608 1350 q 626 1444 608 1429 q 666 1460 643 1458 q 711 1451 689 1463 q 742 1417 733 1440 q 754 1336 756 1375 q 740 1267 753 1297 q 703 1217 726 1236 q 649 1193 679 1197 q 604 1197 626 1190 q 563 1215 582 1203 q 525 1244 543 1228 q 493 1276 507 1261 q 447 1318 464 1308 q 417 1318 429 1328 q 397 1281 406 1308 q 378 1210 389 1253 q 358 1184 374 1194 q 308 1175 342 1174 q 257 1192 281 1175 q 238 1251 233 1210 q 265 1350 240 1299 q 326 1434 289 1401 q 412 1470 364 1467 q 510 1424 460 1474 z "},"Ä":{"ha":831,"x_min":32,"x_max":786,"o":"m 292 93 q 278 52 285 78 q 267 13 271 26 q 249 -26 260 -8 q 222 -54 239 -43 q 181 -68 206 -65 q 119 -64 156 -71 q 71 -44 89 -58 q 44 -10 53 -31 q 33 38 35 11 q 36 97 32 65 q 75 293 50 189 q 131 501 100 397 q 193 700 161 604 q 254 874 225 796 q 289 967 271 919 q 333 1052 307 1014 q 399 1115 360 1090 q 501 1140 439 1139 q 594 1118 560 1142 q 646 1056 628 1094 q 671 969 664 1018 q 681 874 678 921 q 702 653 689 771 q 730 426 715 536 q 757 228 744 317 q 778 94 769 139 q 785 38 783 65 q 777 -10 786 11 q 747 -46 768 -32 q 685 -62 725 -60 q 619 -53 644 -65 q 579 -18 594 -40 q 557 33 564 4 q 547 93 550 63 l 292 93 m 519 288 q 507 385 514 328 q 493 501 500 443 q 480 609 486 560 q 469 681 474 658 q 437 610 454 658 q 401 504 419 561 q 365 390 382 447 q 336 293 349 332 l 519 288 m 475 1293 q 450 1227 476 1256 q 386 1196 424 1199 q 351 1201 368 1194 q 322 1220 335 1208 q 300 1249 308 1232 q 290 1283 292 1265 q 315 1353 288 1325 q 382 1383 342 1382 q 447 1358 419 1385 q 475 1293 474 1331 m 722 1293 q 697 1227 724 1256 q 633 1196 671 1199 q 599 1201 615 1194 q 569 1220 582 1208 q 547 1249 556 1232 q 538 1283 539 1265 q 562 1353 535 1325 q 629 1383 589 1382 q 694 1358 667 1385 q 722 1293 721 1331 z "},"Å":{"ha":831,"x_min":32,"x_max":786,"o":"m 292 93 q 278 52 285 78 q 267 13 271 26 q 249 -26 260 -8 q 222 -54 239 -43 q 181 -68 206 -65 q 119 -64 156 -71 q 71 -44 89 -58 q 44 -10 53 -31 q 33 38 35 11 q 36 97 32 65 q 75 293 50 189 q 131 501 100 397 q 193 700 161 604 q 254 874 225 796 q 289 967 271 919 q 333 1052 307 1014 q 399 1115 360 1090 q 501 1140 439 1139 q 594 1118 560 1142 q 646 1056 628 1094 q 671 969 664 1018 q 681 874 678 921 q 702 653 689 771 q 730 426 715 536 q 757 228 744 317 q 778 94 769 139 q 785 38 783 65 q 777 -10 786 11 q 747 -46 768 -32 q 685 -62 725 -60 q 619 -53 644 -65 q 579 -18 594 -40 q 557 33 564 4 q 547 93 550 63 l 292 93 m 519 288 q 507 385 514 328 q 493 501 500 443 q 480 609 486 560 q 469 681 474 658 q 437 610 454 658 q 401 504 419 561 q 365 390 382 447 q 336 293 349 332 l 519 288 m 518 1201 q 424 1232 461 1203 q 375 1315 388 1261 q 374 1390 367 1353 q 402 1460 382 1428 q 453 1515 422 1492 q 521 1546 483 1538 q 615 1534 569 1557 q 686 1474 660 1511 q 707 1407 707 1442 q 694 1339 707 1372 q 656 1276 681 1306 q 601 1226 631 1247 q 518 1201 567 1201 m 497 1351 q 513 1324 497 1332 q 549 1325 529 1315 q 565 1336 554 1328 q 585 1356 576 1344 q 598 1378 594 1367 q 592 1399 601 1390 q 556 1418 574 1415 q 526 1413 539 1421 q 505 1389 513 1406 q 497 1351 497 1372 z "},"È":{"ha":740,"x_min":40,"x_max":707,"o":"m 628 844 q 580 839 604 835 q 531 853 556 843 q 479 875 506 863 q 426 896 453 888 q 383 906 403 903 q 349 899 364 908 q 325 863 333 889 q 317 785 317 836 l 317 568 q 368 571 340 569 q 424 573 396 572 q 479 575 453 574 q 526 578 506 576 q 596 549 571 581 q 624 478 621 518 q 608 403 628 438 q 542 364 588 368 q 430 361 489 360 q 313 356 371 363 q 316 265 317 303 q 323 203 315 226 q 352 172 331 179 q 421 172 374 164 q 509 193 465 181 q 592 221 553 206 q 663 216 636 238 q 699 158 690 194 q 694 82 707 122 q 647 21 682 42 q 493 -40 575 -21 q 322 -68 411 -60 q 150 -32 218 -79 q 65 124 82 15 q 48 380 54 254 q 41 615 42 506 q 43 814 40 725 q 51 961 46 903 q 126 1110 63 1057 q 292 1154 190 1164 q 381 1141 326 1151 q 491 1114 435 1131 q 597 1075 547 1097 q 671 1025 646 1053 q 688 981 685 1008 q 685 925 692 953 q 663 874 678 897 q 628 844 649 851 m 544 1261 q 491 1222 525 1228 q 426 1240 457 1217 q 369 1282 403 1258 q 300 1332 335 1306 q 235 1385 265 1358 q 192 1436 206 1413 q 181 1488 178 1463 q 203 1535 185 1514 q 247 1563 219 1554 q 299 1560 274 1571 q 328 1546 314 1554 q 354 1526 343 1538 q 441 1445 399 1486 q 525 1363 483 1404 q 544 1261 575 1310 z "},"É":{"ha":740,"x_min":40,"x_max":707,"o":"m 628 844 q 580 839 604 835 q 531 853 556 843 q 479 875 506 863 q 426 896 453 888 q 383 906 403 903 q 349 899 364 908 q 325 863 333 889 q 317 785 317 836 l 317 568 q 368 571 340 569 q 424 573 396 572 q 479 575 453 574 q 526 578 506 576 q 596 549 571 581 q 624 478 621 518 q 608 403 628 438 q 542 364 588 368 q 430 361 489 360 q 313 356 371 363 q 316 265 317 303 q 323 203 315 226 q 352 172 331 179 q 421 172 374 164 q 509 193 465 181 q 592 221 553 206 q 663 216 636 238 q 699 158 690 194 q 694 82 707 122 q 647 21 682 42 q 493 -40 575 -21 q 322 -68 411 -60 q 150 -32 218 -79 q 65 124 82 15 q 48 380 54 254 q 41 615 42 506 q 43 814 40 725 q 51 961 46 903 q 126 1110 63 1057 q 292 1154 190 1164 q 381 1141 326 1151 q 491 1114 435 1131 q 597 1075 547 1097 q 671 1025 646 1053 q 688 981 685 1008 q 685 925 692 953 q 663 874 678 897 q 628 844 649 851 m 194 1261 q 214 1363 164 1310 q 298 1445 256 1404 q 385 1526 340 1486 q 410 1546 396 1538 q 440 1560 425 1554 q 492 1563 465 1571 q 536 1535 519 1554 q 558 1488 554 1514 q 547 1436 561 1463 q 503 1385 533 1413 q 439 1332 474 1358 q 370 1282 404 1306 q 313 1240 336 1258 q 248 1222 282 1217 q 194 1261 214 1228 z "},"Ê":{"ha":740,"x_min":40,"x_max":707,"o":"m 628 844 q 580 839 604 835 q 531 853 556 843 q 479 875 506 863 q 426 896 453 888 q 383 906 403 903 q 349 899 364 908 q 325 863 333 889 q 317 785 317 836 l 317 568 q 368 571 340 569 q 424 573 396 572 q 479 575 453 574 q 526 578 506 576 q 596 549 571 581 q 624 478 621 518 q 608 403 628 438 q 542 364 588 368 q 430 361 489 360 q 313 356 371 363 q 316 265 317 303 q 323 203 315 226 q 352 172 331 179 q 421 172 374 164 q 509 193 465 181 q 592 221 553 206 q 663 216 636 238 q 699 158 690 194 q 694 82 707 122 q 647 21 682 42 q 493 -40 575 -21 q 322 -68 411 -60 q 150 -32 218 -79 q 65 124 82 15 q 48 380 54 254 q 41 615 42 506 q 43 814 40 725 q 51 961 46 903 q 126 1110 63 1057 q 292 1154 190 1164 q 381 1141 326 1151 q 491 1114 435 1131 q 597 1075 547 1097 q 671 1025 646 1053 q 688 981 685 1008 q 685 925 692 953 q 663 874 678 897 q 628 844 649 851 m 354 1335 q 312 1273 333 1304 q 260 1214 290 1242 q 214 1189 239 1196 q 163 1201 189 1182 q 138 1236 146 1215 q 140 1279 131 1257 q 172 1338 154 1310 q 209 1396 190 1367 q 247 1457 228 1425 q 282 1526 267 1489 q 313 1569 293 1553 q 361 1589 332 1586 q 417 1579 392 1592 q 451 1539 442 1567 q 481 1469 464 1503 q 516 1403 497 1435 q 553 1341 535 1371 q 586 1285 571 1311 q 593 1251 596 1268 q 579 1220 590 1233 q 551 1201 568 1207 q 514 1200 533 1194 q 424 1254 461 1215 q 354 1335 386 1293 z "},"Ë":{"ha":740,"x_min":40,"x_max":707,"o":"m 628 844 q 580 839 604 835 q 531 853 556 843 q 479 875 506 863 q 426 896 453 888 q 383 906 403 903 q 349 899 364 908 q 325 863 333 889 q 317 785 317 836 l 317 568 q 368 571 340 569 q 424 573 396 572 q 479 575 453 574 q 526 578 506 576 q 596 549 571 581 q 624 478 621 518 q 608 403 628 438 q 542 364 588 368 q 430 361 489 360 q 313 356 371 363 q 316 265 317 303 q 323 203 315 226 q 352 172 331 179 q 421 172 374 164 q 509 193 465 181 q 592 221 553 206 q 663 216 636 238 q 699 158 690 194 q 694 82 707 122 q 647 21 682 42 q 493 -40 575 -21 q 322 -68 411 -60 q 150 -32 218 -79 q 65 124 82 15 q 48 380 54 254 q 41 615 42 506 q 43 814 40 725 q 51 961 46 903 q 126 1110 63 1057 q 292 1154 190 1164 q 381 1141 326 1151 q 491 1114 435 1131 q 597 1075 547 1097 q 671 1025 646 1053 q 688 981 685 1008 q 685 925 692 953 q 663 874 678 897 q 628 844 649 851 m 339 1313 q 314 1247 340 1275 q 250 1215 288 1218 q 215 1221 232 1214 q 185 1240 199 1228 q 164 1268 172 1251 q 154 1303 156 1285 q 178 1373 151 1344 q 246 1403 206 1401 q 310 1377 283 1404 q 339 1313 338 1350 m 586 1313 q 561 1247 588 1275 q 497 1215 535 1218 q 463 1221 479 1214 q 433 1240 446 1228 q 411 1268 419 1251 q 401 1303 403 1285 q 426 1373 399 1344 q 493 1403 453 1401 q 558 1377 531 1404 q 586 1313 585 1350 z "},"Ì":{"ha":408,"x_min":13,"x_max":410,"o":"m 333 1046 q 344 1007 339 1035 q 353 945 350 979 q 359 876 357 911 q 361 817 361 842 q 360 514 364 676 q 353 149 357 351 q 349 88 353 119 q 334 30 346 57 q 299 -17 322 3 q 238 -42 276 -36 q 174 -37 201 -44 q 128 -3 147 -31 q 83 113 101 36 q 54 285 65 189 q 39 486 43 381 q 36 690 35 592 q 44 869 38 788 q 63 997 51 950 q 86 1053 71 1031 q 121 1090 101 1076 q 164 1110 140 1104 q 211 1115 188 1115 q 281 1098 247 1114 q 333 1046 314 1082 m 379 1261 q 326 1222 360 1228 q 261 1240 292 1217 q 203 1282 238 1258 q 135 1332 169 1306 q 70 1385 100 1358 q 26 1436 40 1413 q 16 1488 13 1463 q 38 1535 19 1514 q 81 1563 54 1554 q 133 1560 108 1571 q 163 1546 149 1554 q 189 1526 178 1538 q 276 1445 233 1486 q 360 1363 318 1404 q 379 1261 410 1310 z "},"Í":{"ha":408,"x_min":-1,"x_max":396,"o":"m 333 1046 q 344 1007 339 1035 q 353 945 350 979 q 359 876 357 911 q 361 817 361 842 q 360 514 364 676 q 353 149 357 351 q 349 88 353 119 q 334 30 346 57 q 299 -17 322 3 q 238 -42 276 -36 q 174 -37 201 -44 q 128 -3 147 -31 q 83 113 101 36 q 54 285 65 189 q 39 486 43 381 q 36 690 35 592 q 44 869 38 788 q 63 997 51 950 q 86 1053 71 1031 q 121 1090 101 1076 q 164 1110 140 1104 q 211 1115 188 1115 q 281 1098 247 1114 q 333 1046 314 1082 m 29 1261 q 49 1363 -1 1310 q 133 1445 90 1404 q 219 1526 175 1486 q 245 1546 231 1538 q 275 1560 260 1554 q 327 1563 300 1571 q 371 1535 354 1554 q 392 1488 389 1514 q 382 1436 396 1463 q 338 1385 368 1413 q 274 1332 308 1358 q 205 1282 239 1306 q 147 1240 171 1258 q 83 1222 117 1217 q 29 1261 49 1228 z "},"Î":{"ha":408,"x_min":-22,"x_max":443,"o":"m 333 1046 q 344 1007 339 1035 q 353 945 350 979 q 359 876 357 911 q 361 817 361 842 q 360 514 364 676 q 353 149 357 351 q 349 88 353 119 q 334 30 346 57 q 299 -17 322 3 q 238 -42 276 -36 q 174 -37 201 -44 q 128 -3 147 -31 q 83 113 101 36 q 54 285 65 189 q 39 486 43 381 q 36 690 35 592 q 44 869 38 788 q 63 997 51 950 q 86 1053 71 1031 q 121 1090 101 1076 q 164 1110 140 1104 q 211 1115 188 1115 q 281 1098 247 1114 q 333 1046 314 1082 m 201 1290 q 159 1228 181 1260 q 107 1169 138 1197 q 61 1144 86 1151 q 10 1157 36 1138 q -15 1192 -7 1171 q -12 1235 -22 1213 q 19 1294 1 1265 q 56 1351 38 1322 q 94 1413 75 1381 q 129 1482 114 1444 q 160 1525 140 1508 q 208 1544 179 1542 q 264 1535 239 1547 q 299 1494 289 1522 q 328 1424 311 1458 q 363 1358 344 1390 q 400 1297 382 1326 q 433 1240 418 1267 q 440 1206 443 1224 q 426 1176 438 1189 q 398 1156 415 1163 q 361 1156 381 1150 q 271 1210 308 1171 q 201 1290 233 1249 z "},"Ï":{"ha":408,"x_min":-4,"x_max":432,"o":"m 333 1046 q 344 1007 339 1035 q 353 945 350 979 q 359 876 357 911 q 361 817 361 842 q 360 514 364 676 q 353 149 357 351 q 349 88 353 119 q 334 30 346 57 q 299 -17 322 3 q 238 -42 276 -36 q 174 -37 201 -44 q 128 -3 147 -31 q 83 113 101 36 q 54 285 65 189 q 39 486 43 381 q 36 690 35 592 q 44 869 38 788 q 63 997 51 950 q 86 1053 71 1031 q 121 1090 101 1076 q 164 1110 140 1104 q 211 1115 188 1115 q 281 1098 247 1114 q 333 1046 314 1082 m 183 1281 q 158 1215 185 1243 q 94 1183 132 1186 q 60 1189 76 1182 q 30 1208 43 1196 q 8 1236 17 1219 q -1 1271 0 1253 q 23 1341 -4 1313 q 90 1371 50 1369 q 155 1345 128 1372 q 183 1281 182 1318 m 431 1281 q 406 1215 432 1243 q 342 1183 379 1186 q 307 1189 324 1182 q 277 1208 290 1196 q 256 1236 264 1219 q 246 1271 247 1253 q 270 1341 243 1313 q 338 1371 297 1369 q 402 1345 375 1372 q 431 1281 429 1318 z "},"Ñ":{"ha":1024,"x_min":35,"x_max":982,"o":"m 721 418 q 719 774 722 617 q 714 1022 715 931 q 719 1065 715 1044 q 734 1100 724 1085 q 765 1126 744 1115 q 818 1139 785 1136 q 909 1131 871 1144 q 958 1079 947 1118 q 968 1008 964 1060 q 975 883 972 956 q 979 722 978 810 q 981 542 981 633 q 981 363 982 451 q 976 200 979 274 q 969 74 974 126 q 958 0 964 21 q 909 -52 947 -39 q 818 -60 871 -65 q 770 -49 789 -57 q 740 -29 751 -40 q 713 9 725 -11 q 688 52 700 29 q 663 101 676 75 q 631 156 649 126 q 565 259 600 204 q 494 369 529 314 q 427 475 460 424 q 368 568 394 526 q 324 638 342 610 q 300 674 306 665 q 292 535 293 615 q 293 369 292 454 q 297 201 294 283 q 300 57 300 119 q 294 14 299 33 q 280 -21 290 -6 q 249 -47 269 -36 q 196 -60 229 -57 q 105 -52 143 -65 q 56 0 67 -39 q 44 88 47 26 q 39 232 40 149 q 38 415 38 315 q 39 619 39 515 q 38 824 39 722 q 35 1013 38 925 q 43 1055 36 1039 q 61 1081 50 1071 q 90 1099 72 1092 q 131 1118 107 1107 q 229 1122 179 1139 q 311 1067 279 1106 q 349 1015 324 1051 q 406 928 374 979 q 478 814 439 876 q 559 685 518 751 q 642 549 600 618 q 721 418 683 481 m 513 1418 q 549 1376 532 1399 q 588 1332 567 1353 q 612 1326 613 1307 q 611 1397 611 1344 q 628 1438 611 1424 q 669 1455 646 1453 q 714 1446 692 1457 q 744 1411 736 1435 q 757 1331 758 1369 q 742 1261 756 1292 q 706 1211 729 1231 q 651 1188 682 1192 q 607 1191 629 1185 q 565 1210 585 1197 q 528 1239 546 1222 q 496 1271 510 1256 q 449 1313 467 1303 q 420 1313 432 1322 q 400 1275 408 1303 q 381 1204 392 1247 q 360 1178 376 1189 q 311 1169 344 1168 q 260 1187 283 1169 q 240 1246 236 1204 q 267 1344 243 1293 q 329 1428 292 1396 q 415 1465 367 1461 q 513 1418 463 1468 z "},"Ò":{"ha":974,"x_min":33,"x_max":919,"o":"m 761 982 q 876 787 836 903 q 917 546 915 671 q 884 301 919 421 q 774 94 849 182 q 625 -15 707 17 q 460 -41 543 -47 q 299 8 376 -35 q 167 121 222 50 q 61 341 89 222 q 42 573 33 460 q 88 785 50 686 q 178 946 125 883 q 326 1068 247 1029 q 481 1108 404 1107 q 631 1076 558 1110 q 761 982 703 1043 m 554 835 q 430 811 482 846 q 347 717 378 776 q 309 581 317 657 q 317 437 301 506 q 372 315 332 368 q 475 249 411 263 q 567 261 526 238 q 638 326 608 285 q 683 419 667 368 q 703 514 700 469 q 699 621 707 567 q 673 720 692 675 q 625 797 654 765 q 554 835 596 828 m 661 1261 q 608 1222 642 1228 q 543 1240 574 1217 q 485 1282 519 1258 q 417 1332 451 1306 q 352 1385 382 1358 q 308 1436 322 1413 q 298 1488 294 1463 q 319 1535 301 1514 q 363 1563 336 1554 q 415 1560 390 1571 q 445 1546 431 1554 q 471 1526 460 1538 q 558 1445 515 1486 q 642 1363 600 1404 q 661 1261 692 1310 z "},"Ó":{"ha":974,"x_min":33,"x_max":919,"o":"m 761 982 q 876 787 836 903 q 917 546 915 671 q 884 301 919 421 q 774 94 849 182 q 625 -15 707 17 q 460 -41 543 -47 q 299 8 376 -35 q 167 121 222 50 q 61 341 89 222 q 42 573 33 460 q 88 785 50 686 q 178 946 125 883 q 326 1068 247 1029 q 481 1108 404 1107 q 631 1076 558 1110 q 761 982 703 1043 m 554 835 q 430 811 482 846 q 347 717 378 776 q 309 581 317 657 q 317 437 301 506 q 372 315 332 368 q 475 249 411 263 q 567 261 526 238 q 638 326 608 285 q 683 419 667 368 q 703 514 700 469 q 699 621 707 567 q 673 720 692 675 q 625 797 654 765 q 554 835 596 828 m 306 1235 q 325 1336 275 1283 q 409 1419 367 1378 q 496 1500 451 1460 q 522 1519 507 1511 q 551 1533 536 1528 q 603 1536 576 1544 q 647 1508 631 1528 q 669 1462 665 1488 q 658 1410 672 1436 q 615 1359 644 1386 q 550 1306 585 1332 q 481 1256 515 1279 q 424 1214 447 1232 q 359 1196 393 1190 q 306 1235 325 1201 z "},"Ô":{"ha":974,"x_min":33,"x_max":919,"o":"m 761 982 q 876 787 836 903 q 917 546 915 671 q 884 301 919 421 q 774 94 849 182 q 625 -15 707 17 q 460 -41 543 -47 q 299 8 376 -35 q 167 121 222 50 q 61 341 89 222 q 42 573 33 460 q 88 785 50 686 q 178 946 125 883 q 326 1068 247 1029 q 481 1108 404 1107 q 631 1076 558 1110 q 761 982 703 1043 m 554 835 q 430 811 482 846 q 347 717 378 776 q 309 581 317 657 q 317 437 301 506 q 372 315 332 368 q 475 249 411 263 q 567 261 526 238 q 638 326 608 285 q 683 419 667 368 q 703 514 700 469 q 699 621 707 567 q 673 720 692 675 q 625 797 654 765 q 554 835 596 828 m 481 1286 q 438 1224 460 1256 q 386 1165 417 1193 q 340 1140 365 1147 q 289 1153 315 1133 q 265 1188 272 1167 q 267 1231 257 1208 q 299 1290 281 1261 q 335 1347 317 1318 q 374 1408 354 1376 q 408 1478 393 1440 q 439 1521 419 1504 q 488 1540 458 1538 q 543 1531 518 1543 q 578 1490 568 1518 q 607 1420 590 1454 q 642 1354 624 1386 q 679 1292 661 1322 q 713 1236 697 1263 q 719 1202 722 1219 q 706 1172 717 1185 q 677 1152 694 1158 q 640 1151 660 1146 q 550 1206 588 1167 q 481 1286 513 1244 z "},"Õ":{"ha":974,"x_min":33,"x_max":919,"o":"m 761 982 q 876 787 836 903 q 917 546 915 671 q 884 301 919 421 q 774 94 849 182 q 625 -15 707 17 q 460 -41 543 -47 q 299 8 376 -35 q 167 121 222 50 q 61 341 89 222 q 42 573 33 460 q 88 785 50 686 q 178 946 125 883 q 326 1068 247 1029 q 481 1108 404 1107 q 631 1076 558 1110 q 761 982 703 1043 m 554 835 q 430 811 482 846 q 347 717 378 776 q 309 581 317 657 q 317 437 301 506 q 372 315 332 368 q 475 249 411 263 q 567 261 526 238 q 638 326 608 285 q 683 419 667 368 q 703 514 700 469 q 699 621 707 567 q 673 720 692 675 q 625 797 654 765 q 554 835 596 828 m 469 1401 q 506 1359 489 1382 q 544 1315 524 1336 q 569 1309 569 1290 q 568 1381 568 1328 q 585 1422 568 1407 q 626 1438 603 1436 q 671 1429 649 1440 q 701 1394 693 1418 q 714 1314 715 1353 q 699 1244 713 1275 q 663 1194 686 1214 q 608 1171 639 1175 q 564 1174 586 1168 q 522 1193 542 1181 q 485 1222 503 1206 q 453 1254 467 1239 q 406 1296 424 1286 q 377 1296 389 1306 q 357 1258 365 1286 q 338 1188 349 1231 q 317 1162 333 1172 q 268 1153 301 1151 q 217 1170 240 1153 q 197 1229 193 1188 q 224 1328 200 1276 q 286 1412 249 1379 q 372 1448 324 1444 q 469 1401 419 1451 z "},"Ö":{"ha":974,"x_min":33,"x_max":919,"o":"m 761 982 q 876 787 836 903 q 917 546 915 671 q 884 301 919 421 q 774 94 849 182 q 625 -15 707 17 q 460 -41 543 -47 q 299 8 376 -35 q 167 121 222 50 q 61 341 89 222 q 42 573 33 460 q 88 785 50 686 q 178 946 125 883 q 326 1068 247 1029 q 481 1108 404 1107 q 631 1076 558 1110 q 761 982 703 1043 m 554 835 q 430 811 482 846 q 347 717 378 776 q 309 581 317 657 q 317 437 301 506 q 372 315 332 368 q 475 249 411 263 q 567 261 526 238 q 638 326 608 285 q 683 419 667 368 q 703 514 700 469 q 699 621 707 567 q 673 720 692 675 q 625 797 654 765 q 554 835 596 828 m 456 1274 q 431 1208 457 1236 q 367 1176 404 1179 q 332 1182 349 1175 q 302 1201 315 1189 q 281 1229 289 1213 q 271 1264 272 1246 q 295 1334 268 1306 q 363 1364 322 1363 q 427 1338 400 1365 q 456 1274 454 1311 m 703 1274 q 678 1208 704 1236 q 614 1176 651 1179 q 579 1182 596 1175 q 549 1201 563 1189 q 528 1229 536 1213 q 518 1264 519 1246 q 542 1334 515 1306 q 610 1364 569 1363 q 674 1338 647 1365 q 703 1274 701 1311 z "},"Ù":{"ha":990,"x_min":26,"x_max":976,"o":"m 661 161 q 614 108 638 132 q 565 68 590 85 q 456 19 515 32 q 339 17 397 7 q 228 57 281 26 q 138 140 175 88 q 76 264 100 194 q 40 412 51 333 q 27 574 28 490 q 35 739 26 657 q 62 897 44 821 q 103 1035 79 972 q 140 1081 115 1064 q 192 1103 164 1097 q 251 1103 221 1108 q 304 1082 281 1097 q 340 1043 328 1067 q 349 988 353 1019 q 328 836 336 904 q 316 705 319 768 q 312 579 313 642 q 313 446 311 517 q 344 266 317 319 q 410 211 372 213 q 492 249 449 210 q 571 347 536 289 q 631 500 613 419 q 660 664 650 581 q 680 831 671 747 q 713 992 689 914 q 765 1056 725 1033 q 850 1078 806 1078 q 931 1056 894 1078 q 974 988 967 1033 q 976 944 976 969 q 975 893 976 919 q 972 841 974 867 q 968 796 969 815 q 963 697 965 753 q 957 576 960 640 q 952 444 954 513 q 949 309 950 375 q 949 183 949 243 q 954 75 950 122 q 941 22 956 46 q 902 -19 926 -3 q 847 -42 878 -35 q 788 -44 817 -49 q 726 -19 749 -39 q 690 30 703 1 q 672 92 678 58 q 661 161 665 126 m 669 1210 q 616 1171 650 1176 q 551 1189 582 1165 q 494 1231 528 1207 q 425 1281 460 1254 q 360 1334 390 1307 q 317 1385 331 1361 q 306 1437 303 1411 q 328 1483 310 1463 q 372 1511 344 1503 q 424 1508 399 1519 q 453 1494 439 1503 q 479 1475 468 1486 q 566 1394 524 1435 q 650 1311 608 1353 q 669 1210 700 1258 z "},"Ú":{"ha":990,"x_min":26,"x_max":976,"o":"m 661 161 q 614 108 638 132 q 565 68 590 85 q 456 19 515 32 q 339 17 397 7 q 228 57 281 26 q 138 140 175 88 q 76 264 100 194 q 40 412 51 333 q 27 574 28 490 q 35 739 26 657 q 62 897 44 821 q 103 1035 79 972 q 140 1081 115 1064 q 192 1103 164 1097 q 251 1103 221 1108 q 304 1082 281 1097 q 340 1043 328 1067 q 349 988 353 1019 q 328 836 336 904 q 316 705 319 768 q 312 579 313 642 q 313 446 311 517 q 344 266 317 319 q 410 211 372 213 q 492 249 449 210 q 571 347 536 289 q 631 500 613 419 q 660 664 650 581 q 680 831 671 747 q 713 992 689 914 q 765 1056 725 1033 q 850 1078 806 1078 q 931 1056 894 1078 q 974 988 967 1033 q 976 944 976 969 q 975 893 976 919 q 972 841 974 867 q 968 796 969 815 q 963 697 965 753 q 957 576 960 640 q 952 444 954 513 q 949 309 950 375 q 949 183 949 243 q 954 75 950 122 q 941 22 956 46 q 902 -19 926 -3 q 847 -42 878 -35 q 788 -44 817 -49 q 726 -19 749 -39 q 690 30 703 1 q 672 92 678 58 q 661 161 665 126 m 432 1229 q 451 1331 401 1278 q 535 1413 493 1372 q 622 1494 578 1454 q 648 1514 633 1506 q 678 1528 663 1522 q 730 1531 703 1539 q 774 1503 757 1522 q 795 1456 792 1482 q 785 1404 799 1431 q 741 1353 771 1381 q 676 1300 711 1326 q 608 1250 642 1274 q 550 1208 574 1226 q 485 1190 519 1185 q 432 1229 451 1196 z "},"Û":{"ha":990,"x_min":26,"x_max":976,"o":"m 661 161 q 614 108 638 132 q 565 68 590 85 q 456 19 515 32 q 339 17 397 7 q 228 57 281 26 q 138 140 175 88 q 76 264 100 194 q 40 412 51 333 q 27 574 28 490 q 35 739 26 657 q 62 897 44 821 q 103 1035 79 972 q 140 1081 115 1064 q 192 1103 164 1097 q 251 1103 221 1108 q 304 1082 281 1097 q 340 1043 328 1067 q 349 988 353 1019 q 328 836 336 904 q 316 705 319 768 q 312 579 313 642 q 313 446 311 517 q 344 266 317 319 q 410 211 372 213 q 492 249 449 210 q 571 347 536 289 q 631 500 613 419 q 660 664 650 581 q 680 831 671 747 q 713 992 689 914 q 765 1056 725 1033 q 850 1078 806 1078 q 931 1056 894 1078 q 974 988 967 1033 q 976 944 976 969 q 975 893 976 919 q 972 841 974 867 q 968 796 969 815 q 963 697 965 753 q 957 576 960 640 q 952 444 954 513 q 949 309 950 375 q 949 183 949 243 q 954 75 950 122 q 941 22 956 46 q 902 -19 926 -3 q 847 -42 878 -35 q 788 -44 817 -49 q 726 -19 749 -39 q 690 30 703 1 q 672 92 678 58 q 661 161 665 126 m 563 1313 q 520 1251 542 1282 q 468 1192 499 1219 q 422 1167 447 1174 q 371 1179 397 1160 q 347 1214 354 1193 q 349 1257 339 1235 q 381 1316 363 1288 q 417 1374 399 1344 q 456 1435 436 1403 q 490 1504 475 1467 q 521 1547 501 1531 q 569 1567 540 1564 q 625 1557 600 1569 q 660 1517 650 1544 q 689 1447 672 1481 q 724 1381 706 1413 q 761 1319 743 1349 q 794 1263 779 1289 q 801 1228 804 1246 q 788 1198 799 1211 q 759 1178 776 1185 q 722 1178 742 1172 q 632 1232 669 1193 q 563 1313 594 1271 z "},"Ü":{"ha":990,"x_min":26,"x_max":976,"o":"m 661 161 q 614 108 638 132 q 565 68 590 85 q 456 19 515 32 q 339 17 397 7 q 228 57 281 26 q 138 140 175 88 q 76 264 100 194 q 40 412 51 333 q 27 574 28 490 q 35 739 26 657 q 62 897 44 821 q 103 1035 79 972 q 140 1081 115 1064 q 192 1103 164 1097 q 251 1103 221 1108 q 304 1082 281 1097 q 340 1043 328 1067 q 349 988 353 1019 q 328 836 336 904 q 316 705 319 768 q 312 579 313 642 q 313 446 311 517 q 344 266 317 319 q 410 211 372 213 q 492 249 449 210 q 571 347 536 289 q 631 500 613 419 q 660 664 650 581 q 680 831 671 747 q 713 992 689 914 q 765 1056 725 1033 q 850 1078 806 1078 q 931 1056 894 1078 q 974 988 967 1033 q 976 944 976 969 q 975 893 976 919 q 972 841 974 867 q 968 796 969 815 q 963 697 965 753 q 957 576 960 640 q 952 444 954 513 q 949 309 950 375 q 949 183 949 243 q 954 75 950 122 q 941 22 956 46 q 902 -19 926 -3 q 847 -42 878 -35 q 788 -44 817 -49 q 726 -19 749 -39 q 690 30 703 1 q 672 92 678 58 q 661 161 665 126 m 510 1264 q 485 1198 511 1226 q 421 1167 458 1169 q 386 1172 403 1165 q 356 1191 369 1179 q 335 1219 343 1203 q 325 1254 326 1236 q 349 1324 322 1296 q 417 1354 376 1353 q 481 1328 454 1356 q 510 1264 508 1301 m 757 1264 q 732 1198 758 1226 q 668 1167 706 1169 q 633 1172 650 1165 q 603 1191 617 1179 q 582 1219 590 1203 q 572 1254 574 1236 q 597 1324 569 1296 q 664 1354 624 1353 q 728 1328 701 1356 q 757 1264 756 1301 z "},"Ý":{"ha":1039,"x_min":17,"x_max":1015,"o":"m 1015 1054 q 983 871 996 971 q 959 667 971 771 q 932 463 947 564 q 893 279 917 363 q 806 113 865 181 q 668 6 747 44 q 563 -33 624 -18 q 440 -49 501 -47 q 324 -38 379 -51 q 235 7 268 -25 q 213 60 215 28 q 221 124 210 93 q 256 176 232 154 q 313 199 279 199 q 493 222 425 199 q 600 297 561 244 q 658 435 639 349 q 693 649 676 521 q 635 536 676 586 q 537 454 593 486 q 416 413 481 422 q 288 424 351 404 q 167 499 224 444 q 72 650 111 554 q 29 826 42 725 q 28 1060 17 926 q 56 1125 31 1100 q 115 1163 81 1150 q 189 1176 150 1175 q 260 1167 228 1176 q 314 1140 293 1158 q 332 1094 335 1121 q 326 974 326 1036 q 330 856 326 913 q 340 756 333 800 q 354 689 346 711 q 433 601 383 607 q 539 651 483 596 q 649 817 594 707 q 746 1079 704 928 q 802 1138 758 1122 q 894 1147 846 1153 q 978 1115 942 1140 q 1015 1054 1015 1090 m 464 1258 q 483 1360 433 1307 q 567 1442 525 1401 q 654 1524 610 1483 q 680 1543 665 1535 q 710 1557 694 1551 q 762 1560 735 1568 q 806 1532 789 1551 q 827 1485 824 1511 q 817 1433 831 1460 q 773 1383 803 1410 q 708 1329 743 1356 q 640 1279 674 1303 q 582 1238 606 1256 q 517 1219 551 1214 q 464 1258 483 1225 z "},"Ÿ":{"ha":1039,"x_min":17,"x_max":1015,"o":"m 1015 1054 q 983 871 996 971 q 959 667 971 771 q 932 463 947 564 q 893 279 917 363 q 806 113 865 181 q 668 6 747 44 q 563 -33 624 -18 q 440 -49 501 -47 q 324 -38 379 -51 q 235 7 268 -25 q 213 60 215 28 q 221 124 210 93 q 256 176 232 154 q 313 199 279 199 q 493 222 425 199 q 600 297 561 244 q 658 435 639 349 q 693 649 676 521 q 635 536 676 586 q 537 454 593 486 q 416 413 481 422 q 288 424 351 404 q 167 499 224 444 q 72 650 111 554 q 29 826 42 725 q 28 1060 17 926 q 56 1125 31 1100 q 115 1163 81 1150 q 189 1176 150 1175 q 260 1167 228 1176 q 314 1140 293 1158 q 332 1094 335 1121 q 326 974 326 1036 q 330 856 326 913 q 340 756 333 800 q 354 689 346 711 q 433 601 383 607 q 539 651 483 596 q 649 817 594 707 q 746 1079 704 928 q 802 1138 758 1122 q 894 1147 846 1153 q 978 1115 942 1140 q 1015 1054 1015 1090 m 529 1289 q 504 1223 531 1251 q 440 1192 478 1194 q 406 1197 422 1190 q 376 1216 389 1204 q 354 1244 363 1228 q 344 1279 346 1261 q 369 1349 342 1321 q 436 1379 396 1378 q 501 1353 474 1381 q 529 1289 528 1326 m 776 1289 q 751 1223 778 1251 q 688 1192 725 1194 q 653 1197 669 1190 q 623 1216 636 1204 q 601 1244 610 1228 q 592 1279 593 1261 q 616 1349 589 1321 q 683 1379 643 1378 q 748 1353 721 1381 q 776 1289 775 1326 z "},"ÿ":{"ha":835,"x_min":36,"x_max":800,"o":"m 553 390 q 401 231 481 271 q 253 213 322 192 q 130 305 183 233 q 56 478 76 376 q 41 576 46 525 q 37 676 36 628 q 44 769 38 725 q 61 849 50 814 q 115 928 78 903 q 222 953 151 954 q 267 947 244 954 q 305 926 289 940 q 329 893 321 913 q 333 849 338 874 q 314 644 315 738 q 324 492 313 551 q 360 417 336 433 q 419 444 385 401 q 449 502 433 461 q 481 597 464 543 q 517 715 499 651 q 553 839 535 778 q 610 913 569 894 q 696 926 651 931 q 771 896 744 924 q 800 813 797 868 q 792 701 796 760 q 788 580 789 642 q 786 457 786 518 q 786 340 786 396 q 785 257 786 299 q 776 174 783 215 q 753 93 768 133 q 710 11 738 53 q 573 -106 651 -72 q 403 -124 494 -139 q 287 -89 347 -115 q 182 -21 226 -62 q 154 38 157 3 q 165 103 151 72 q 207 151 179 133 q 272 157 235 168 q 357 134 313 144 q 440 128 401 124 q 508 158 479 133 q 543 242 536 183 q 546 274 544 253 q 548 317 547 294 q 550 359 549 339 q 553 390 551 379 m 454 1106 q 429 1040 456 1068 q 365 1008 403 1011 q 331 1014 347 1007 q 301 1033 314 1021 q 279 1061 288 1044 q 269 1096 271 1078 q 294 1166 267 1138 q 361 1196 321 1194 q 426 1170 399 1197 q 454 1106 453 1143 m 701 1106 q 676 1040 703 1068 q 613 1008 650 1011 q 578 1014 594 1007 q 548 1033 561 1021 q 526 1061 535 1044 q 517 1096 518 1078 q 541 1166 514 1138 q 608 1196 568 1194 q 673 1170 646 1197 q 701 1106 700 1143 z "},"ý":{"ha":835,"x_min":36,"x_max":800,"o":"m 553 390 q 401 231 481 271 q 253 213 322 192 q 130 305 183 233 q 56 478 76 376 q 41 576 46 525 q 37 676 36 628 q 44 769 38 725 q 61 849 50 814 q 115 928 78 903 q 222 953 151 954 q 267 947 244 954 q 305 926 289 940 q 329 893 321 913 q 333 849 338 874 q 314 644 315 738 q 324 492 313 551 q 360 417 336 433 q 419 444 385 401 q 449 502 433 461 q 481 597 464 543 q 517 715 499 651 q 553 839 535 778 q 610 913 569 894 q 696 926 651 931 q 771 896 744 924 q 800 813 797 868 q 792 701 796 760 q 788 580 789 642 q 786 457 786 518 q 786 340 786 396 q 785 257 786 299 q 776 174 783 215 q 753 93 768 133 q 710 11 738 53 q 573 -106 651 -72 q 403 -124 494 -139 q 287 -89 347 -115 q 182 -21 226 -62 q 154 38 157 3 q 165 103 151 72 q 207 151 179 133 q 272 157 235 168 q 357 134 313 144 q 440 128 401 124 q 508 158 479 133 q 543 242 536 183 q 546 274 544 253 q 548 317 547 294 q 550 359 549 339 q 553 390 551 379 m 371 1022 q 390 1124 340 1071 q 474 1206 432 1165 q 561 1288 517 1247 q 587 1307 572 1299 q 617 1321 601 1315 q 669 1324 642 1332 q 713 1296 696 1315 q 734 1249 731 1275 q 724 1197 738 1224 q 680 1147 710 1174 q 615 1093 650 1119 q 547 1043 581 1067 q 489 1001 513 1019 q 424 983 458 978 q 371 1022 390 989 z "},"ü":{"ha":997,"x_min":31,"x_max":953,"o":"m 658 256 q 528 140 600 182 q 353 96 456 97 q 208 132 269 94 q 106 233 146 169 q 49 376 67 296 q 33 541 31 456 q 56 708 35 626 q 119 856 78 790 q 183 922 147 900 q 255 947 218 944 q 326 938 292 950 q 384 901 360 925 q 417 844 408 878 q 415 774 426 811 q 389 688 404 742 q 360 582 374 635 q 346 469 346 528 q 362 371 346 411 q 408 322 378 331 q 488 357 439 313 q 532 424 514 382 q 563 517 550 465 q 583 628 575 569 q 597 744 592 686 q 622 846 599 806 q 679 907 644 886 q 753 930 714 928 q 827 918 793 932 q 883 874 861 904 q 906 800 906 843 q 908 662 906 735 q 917 515 911 589 q 931 369 924 440 q 949 235 939 297 q 953 187 953 211 q 946 141 953 163 q 923 101 939 119 q 881 72 907 83 q 790 58 831 50 q 720 94 749 67 q 676 165 692 122 q 658 256 660 207 m 515 1106 q 490 1040 517 1068 q 426 1008 464 1011 q 392 1014 408 1007 q 362 1033 375 1021 q 340 1061 349 1044 q 331 1096 332 1078 q 355 1166 328 1138 q 422 1196 382 1194 q 487 1170 460 1197 q 515 1106 514 1143 m 763 1106 q 738 1040 764 1068 q 674 1008 711 1011 q 639 1014 656 1007 q 609 1033 622 1021 q 588 1061 596 1044 q 578 1096 579 1078 q 602 1166 575 1138 q 669 1196 629 1194 q 734 1170 707 1197 q 763 1106 761 1143 z "},"û":{"ha":997,"x_min":31,"x_max":953,"o":"m 658 256 q 528 140 600 182 q 353 96 456 97 q 208 132 269 94 q 106 233 146 169 q 49 376 67 296 q 33 541 31 456 q 56 708 35 626 q 119 856 78 790 q 183 922 147 900 q 255 947 218 944 q 326 938 292 950 q 384 901 360 925 q 417 844 408 878 q 415 774 426 811 q 389 688 404 742 q 360 582 374 635 q 346 469 346 528 q 362 371 346 411 q 408 322 378 331 q 488 357 439 313 q 532 424 514 382 q 563 517 550 465 q 583 628 575 569 q 597 744 592 686 q 622 846 599 806 q 679 907 644 886 q 753 930 714 928 q 827 918 793 932 q 883 874 861 904 q 906 800 906 843 q 908 662 906 735 q 917 515 911 589 q 931 369 924 440 q 949 235 939 297 q 953 187 953 211 q 946 141 953 163 q 923 101 939 119 q 881 72 907 83 q 790 58 831 50 q 720 94 749 67 q 676 165 692 122 q 658 256 660 207 m 535 1147 q 492 1085 514 1117 q 440 1026 471 1054 q 394 1001 419 1008 q 343 1014 369 994 q 319 1049 326 1028 q 321 1092 311 1069 q 353 1151 335 1122 q 390 1208 371 1179 q 428 1269 408 1238 q 463 1339 447 1301 q 493 1382 474 1365 q 542 1401 513 1399 q 597 1392 572 1404 q 632 1351 622 1379 q 661 1281 644 1315 q 697 1215 678 1247 q 733 1153 715 1183 q 767 1097 751 1124 q 774 1063 776 1081 q 760 1033 771 1046 q 731 1013 749 1019 q 694 1013 714 1007 q 604 1067 642 1028 q 535 1147 567 1106 z "},"ú":{"ha":997,"x_min":31,"x_max":953,"o":"m 658 256 q 528 140 600 182 q 353 96 456 97 q 208 132 269 94 q 106 233 146 169 q 49 376 67 296 q 33 541 31 456 q 56 708 35 626 q 119 856 78 790 q 183 922 147 900 q 255 947 218 944 q 326 938 292 950 q 384 901 360 925 q 417 844 408 878 q 415 774 426 811 q 389 688 404 742 q 360 582 374 635 q 346 469 346 528 q 362 371 346 411 q 408 322 378 331 q 488 357 439 313 q 532 424 514 382 q 563 517 550 465 q 583 628 575 569 q 597 744 592 686 q 622 846 599 806 q 679 907 644 886 q 753 930 714 928 q 827 918 793 932 q 883 874 861 904 q 906 800 906 843 q 908 662 906 735 q 917 515 911 589 q 931 369 924 440 q 949 235 939 297 q 953 187 953 211 q 946 141 953 163 q 923 101 939 119 q 881 72 907 83 q 790 58 831 50 q 720 94 749 67 q 676 165 692 122 q 658 256 660 207 m 418 1038 q 438 1139 388 1086 q 522 1222 479 1181 q 608 1303 564 1263 q 634 1322 619 1314 q 664 1336 649 1331 q 716 1339 689 1347 q 760 1311 743 1331 q 781 1265 778 1290 q 771 1213 785 1239 q 727 1162 757 1189 q 663 1108 697 1135 q 594 1058 628 1082 q 536 1017 560 1035 q 472 999 506 993 q 418 1038 438 1004 z "},"ù":{"ha":997,"x_min":31,"x_max":953,"o":"m 658 256 q 528 140 600 182 q 353 96 456 97 q 208 132 269 94 q 106 233 146 169 q 49 376 67 296 q 33 541 31 456 q 56 708 35 626 q 119 856 78 790 q 183 922 147 900 q 255 947 218 944 q 326 938 292 950 q 384 901 360 925 q 417 844 408 878 q 415 774 426 811 q 389 688 404 742 q 360 582 374 635 q 346 469 346 528 q 362 371 346 411 q 408 322 378 331 q 488 357 439 313 q 532 424 514 382 q 563 517 550 465 q 583 628 575 569 q 597 744 592 686 q 622 846 599 806 q 679 907 644 886 q 753 930 714 928 q 827 918 793 932 q 883 874 861 904 q 906 800 906 843 q 908 662 906 735 q 917 515 911 589 q 931 369 924 440 q 949 235 939 297 q 953 187 953 211 q 946 141 953 163 q 923 101 939 119 q 881 72 907 83 q 790 58 831 50 q 720 94 749 67 q 676 165 692 122 q 658 256 660 207 m 669 1038 q 616 999 650 1004 q 551 1017 582 993 q 494 1058 528 1035 q 425 1108 460 1082 q 360 1162 390 1135 q 317 1213 331 1189 q 306 1265 303 1239 q 328 1311 310 1290 q 372 1339 344 1331 q 424 1336 399 1347 q 453 1322 439 1331 q 479 1303 468 1314 q 566 1222 524 1263 q 650 1139 608 1181 q 669 1038 700 1086 z "},"ö":{"ha":897,"x_min":44,"x_max":863,"o":"m 76 360 q 48 505 51 431 q 61 649 44 579 q 113 782 78 719 q 201 890 149 844 q 323 963 254 936 q 475 986 392 989 q 633 948 564 983 q 749 855 701 913 q 824 724 797 797 q 857 574 851 651 q 846 419 863 496 q 790 281 829 343 q 674 149 739 199 q 540 81 610 100 q 401 73 471 63 q 269 120 331 83 q 156 217 207 157 q 76 360 106 278 m 458 318 q 542 353 510 322 q 590 430 575 385 q 605 526 606 475 q 588 622 604 578 q 542 697 572 667 q 469 732 511 728 q 374 708 411 738 q 321 633 338 679 q 306 531 304 586 q 325 428 307 476 q 376 349 343 381 q 458 318 410 317 m 435 1138 q 410 1072 436 1100 q 346 1040 383 1043 q 311 1046 328 1039 q 281 1065 294 1053 q 260 1093 268 1076 q 250 1128 251 1110 q 274 1198 247 1169 q 342 1228 301 1226 q 406 1202 379 1229 q 435 1138 433 1175 m 682 1138 q 657 1072 683 1100 q 593 1040 631 1043 q 558 1046 575 1039 q 528 1065 542 1053 q 507 1093 515 1076 q 497 1128 499 1110 q 522 1198 494 1169 q 589 1228 549 1226 q 653 1202 626 1229 q 682 1138 681 1175 z "},"õ":{"ha":897,"x_min":44,"x_max":863,"o":"m 76 360 q 48 505 51 431 q 61 649 44 579 q 113 782 78 719 q 201 890 149 844 q 323 963 254 936 q 475 986 392 989 q 633 948 564 983 q 749 855 701 913 q 824 724 797 797 q 857 574 851 651 q 846 419 863 496 q 790 281 829 343 q 674 149 739 199 q 540 81 610 100 q 401 73 471 63 q 269 120 331 83 q 156 217 207 157 q 76 360 106 278 m 458 318 q 542 353 510 322 q 590 430 575 385 q 605 526 606 475 q 588 622 604 578 q 542 697 572 667 q 469 732 511 728 q 374 708 411 738 q 321 633 338 679 q 306 531 304 586 q 325 428 307 476 q 376 349 343 381 q 458 318 410 317 m 475 1286 q 512 1244 494 1267 q 550 1200 529 1221 q 574 1194 575 1175 q 574 1265 574 1213 q 591 1306 574 1292 q 631 1323 608 1321 q 676 1314 654 1325 q 707 1279 699 1303 q 719 1199 721 1238 q 705 1129 718 1160 q 668 1079 692 1099 q 614 1056 644 1060 q 569 1059 592 1053 q 528 1078 547 1065 q 490 1107 508 1090 q 458 1139 472 1124 q 412 1181 429 1171 q 383 1181 394 1190 q 363 1143 371 1171 q 343 1072 354 1115 q 323 1047 339 1057 q 274 1038 307 1036 q 222 1055 246 1038 q 203 1114 199 1072 q 230 1213 206 1161 q 292 1297 254 1264 q 377 1333 329 1329 q 475 1286 425 1336 z "},"ô":{"ha":897,"x_min":44,"x_max":863,"o":"m 76 360 q 48 505 51 431 q 61 649 44 579 q 113 782 78 719 q 201 890 149 844 q 323 963 254 936 q 475 986 392 989 q 633 948 564 983 q 749 855 701 913 q 824 724 797 797 q 857 574 851 651 q 846 419 863 496 q 790 281 829 343 q 674 149 739 199 q 540 81 610 100 q 401 73 471 63 q 269 120 331 83 q 156 217 207 157 q 76 360 106 278 m 458 318 q 542 353 510 322 q 590 430 575 385 q 605 526 606 475 q 588 622 604 578 q 542 697 572 667 q 469 732 511 728 q 374 708 411 738 q 321 633 338 679 q 306 531 304 586 q 325 428 307 476 q 376 349 343 381 q 458 318 410 317 m 468 1192 q 426 1130 447 1161 q 374 1071 404 1099 q 328 1046 353 1053 q 276 1058 303 1039 q 252 1093 260 1072 q 254 1136 244 1114 q 286 1195 268 1167 q 323 1253 304 1224 q 361 1314 342 1282 q 396 1383 381 1346 q 426 1426 407 1410 q 475 1446 446 1443 q 531 1436 506 1449 q 565 1396 556 1424 q 594 1326 578 1360 q 630 1260 611 1292 q 667 1198 649 1228 q 700 1142 685 1168 q 707 1108 710 1125 q 693 1077 704 1090 q 665 1058 682 1064 q 628 1057 647 1051 q 538 1111 575 1072 q 468 1192 500 1150 z "},"ó":{"ha":897,"x_min":44,"x_max":863,"o":"m 76 360 q 48 505 51 431 q 61 649 44 579 q 113 782 78 719 q 201 890 149 844 q 323 963 254 936 q 475 986 392 989 q 633 948 564 983 q 749 855 701 913 q 824 724 797 797 q 857 574 851 651 q 846 419 863 496 q 790 281 829 343 q 674 149 739 199 q 540 81 610 100 q 401 73 471 63 q 269 120 331 83 q 156 217 207 157 q 76 360 106 278 m 458 318 q 542 353 510 322 q 590 430 575 385 q 605 526 606 475 q 588 622 604 578 q 542 697 572 667 q 469 732 511 728 q 374 708 411 738 q 321 633 338 679 q 306 531 304 586 q 325 428 307 476 q 376 349 343 381 q 458 318 410 317 m 301 1100 q 321 1201 271 1149 q 405 1284 363 1243 q 492 1365 447 1325 q 517 1385 503 1376 q 547 1399 532 1393 q 599 1401 572 1410 q 643 1374 626 1393 q 665 1327 661 1353 q 654 1275 668 1301 q 610 1224 640 1251 q 546 1171 581 1197 q 477 1121 511 1144 q 419 1079 443 1097 q 355 1061 389 1056 q 301 1100 321 1067 z "},"ò":{"ha":897,"x_min":44,"x_max":863,"o":"m 76 360 q 48 505 51 431 q 61 649 44 579 q 113 782 78 719 q 201 890 149 844 q 323 963 254 936 q 475 986 392 989 q 633 948 564 983 q 749 855 701 913 q 824 724 797 797 q 857 574 851 651 q 846 419 863 496 q 790 281 829 343 q 674 149 739 199 q 540 81 610 100 q 401 73 471 63 q 269 120 331 83 q 156 217 207 157 q 76 360 106 278 m 458 318 q 542 353 510 322 q 590 430 575 385 q 605 526 606 475 q 588 622 604 578 q 542 697 572 667 q 469 732 511 728 q 374 708 411 738 q 321 633 338 679 q 306 531 304 586 q 325 428 307 476 q 376 349 343 381 q 458 318 410 317 m 617 1101 q 563 1063 597 1068 q 499 1081 529 1057 q 441 1122 475 1099 q 372 1172 407 1146 q 308 1226 338 1199 q 264 1276 278 1253 q 253 1328 250 1303 q 275 1375 257 1354 q 319 1403 292 1394 q 371 1400 346 1411 q 401 1386 386 1394 q 426 1367 415 1378 q 513 1285 471 1326 q 597 1203 556 1244 q 617 1101 647 1150 z "},"ñ":{"ha":919,"x_min":29,"x_max":864,"o":"m 290 772 q 388 863 333 828 q 498 910 442 897 q 610 912 554 922 q 711 867 665 901 q 796 767 765 826 q 842 640 826 708 q 860 500 857 572 q 864 364 864 428 q 854 212 864 282 q 821 107 844 142 q 782 73 806 86 q 729 53 758 60 q 671 47 701 46 q 613 54 640 47 q 565 75 586 61 q 532 110 543 89 q 515 186 513 144 q 528 272 517 228 q 551 396 543 336 q 557 524 560 456 q 532 627 553 593 q 465 660 511 661 q 405 622 429 658 q 365 533 381 586 q 343 416 350 479 q 335 297 336 353 q 335 222 333 264 q 331 143 338 181 q 303 77 325 106 q 233 42 282 49 q 138 43 178 32 q 74 79 99 54 q 40 138 50 104 q 38 208 31 172 q 51 360 50 278 q 49 522 53 442 q 40 673 46 601 q 31 792 33 744 q 48 869 29 836 q 122 917 67 901 q 237 899 193 928 q 290 772 281 869 m 432 1232 q 469 1190 451 1213 q 507 1146 486 1167 q 531 1140 532 1121 q 531 1211 531 1158 q 548 1252 531 1238 q 588 1269 565 1267 q 633 1260 611 1271 q 664 1225 656 1249 q 676 1144 678 1183 q 662 1075 675 1106 q 625 1025 649 1044 q 571 1001 601 1006 q 526 1005 549 999 q 485 1024 504 1011 q 447 1053 465 1036 q 415 1085 429 1069 q 369 1126 386 1117 q 340 1126 351 1136 q 319 1089 328 1117 q 300 1018 311 1061 q 280 992 296 1003 q 231 983 264 982 q 179 1001 203 983 q 160 1060 156 1018 q 187 1158 163 1107 q 249 1242 211 1210 q 334 1278 286 1275 q 432 1232 382 1282 z "},"ï":{"ha":364,"x_min":-4,"x_max":432,"o":"m 75 146 q 56 226 64 169 q 42 357 47 283 q 37 513 38 431 q 42 667 36 594 q 58 797 47 740 q 89 875 69 853 q 142 910 110 899 q 208 920 175 922 q 270 901 242 918 q 310 849 299 883 q 322 771 317 825 q 331 647 328 717 q 333 501 333 578 q 328 353 332 424 q 315 225 324 282 q 293 140 306 168 q 244 89 276 104 q 182 71 213 74 q 123 87 151 68 q 75 146 94 106 m 183 1106 q 158 1040 185 1068 q 94 1008 132 1011 q 60 1014 76 1007 q 30 1033 43 1021 q 8 1061 17 1044 q -1 1096 0 1078 q 23 1166 -4 1138 q 90 1196 50 1194 q 155 1170 128 1197 q 183 1106 182 1143 m 431 1106 q 406 1040 432 1068 q 342 1008 379 1011 q 307 1014 324 1007 q 277 1033 290 1021 q 256 1061 264 1044 q 246 1096 247 1078 q 270 1166 243 1138 q 338 1196 297 1194 q 402 1170 375 1197 q 431 1106 429 1143 z "},"î":{"ha":364,"x_min":-25,"x_max":440,"o":"m 75 146 q 56 226 64 169 q 42 357 47 283 q 37 513 38 431 q 42 667 36 594 q 58 797 47 740 q 89 875 69 853 q 142 910 110 899 q 208 920 175 922 q 270 901 242 918 q 310 849 299 883 q 322 771 317 825 q 331 647 328 717 q 333 501 333 578 q 328 353 332 424 q 315 225 324 282 q 293 140 306 168 q 244 89 276 104 q 182 71 213 74 q 123 87 151 68 q 75 146 94 106 m 199 1150 q 156 1088 178 1119 q 104 1029 135 1057 q 58 1004 83 1011 q 7 1017 33 997 q -17 1051 -10 1031 q -15 1094 -25 1072 q 17 1153 -1 1125 q 53 1211 35 1182 q 92 1272 72 1240 q 126 1342 111 1304 q 157 1385 138 1368 q 206 1404 176 1401 q 261 1394 236 1407 q 296 1354 286 1382 q 325 1284 308 1318 q 360 1218 342 1250 q 397 1156 379 1186 q 431 1100 415 1126 q 438 1066 440 1083 q 424 1035 435 1049 q 395 1016 413 1022 q 358 1015 378 1010 q 268 1069 306 1031 q 199 1150 231 1108 z "},"í":{"ha":364,"x_min":-4,"x_max":393,"o":"m 75 146 q 56 226 64 169 q 42 357 47 283 q 37 513 38 431 q 42 667 36 594 q 58 797 47 740 q 89 875 69 853 q 142 910 110 899 q 208 920 175 922 q 270 901 242 918 q 310 849 299 883 q 322 771 317 825 q 331 647 328 717 q 333 501 333 578 q 328 353 332 424 q 315 225 324 282 q 293 140 306 168 q 244 89 276 104 q 182 71 213 74 q 123 87 151 68 q 75 146 94 106 m 26 1042 q 46 1143 -4 1090 q 130 1226 88 1185 q 217 1307 172 1267 q 242 1326 228 1318 q 272 1340 257 1335 q 324 1343 297 1351 q 368 1315 351 1335 q 390 1269 386 1294 q 379 1217 393 1243 q 335 1166 365 1193 q 271 1113 306 1139 q 202 1063 236 1086 q 144 1021 168 1039 q 80 1003 114 997 q 26 1042 46 1008 z "},"ì":{"ha":364,"x_min":-7,"x_max":390,"o":"m 75 146 q 56 226 64 169 q 42 357 47 283 q 37 513 38 431 q 42 667 36 594 q 58 797 47 740 q 89 875 69 853 q 142 910 110 899 q 208 920 175 922 q 270 901 242 918 q 310 849 299 883 q 322 771 317 825 q 331 647 328 717 q 333 501 333 578 q 328 353 332 424 q 315 225 324 282 q 293 140 306 168 q 244 89 276 104 q 182 71 213 74 q 123 87 151 68 q 75 146 94 106 m 360 1035 q 306 996 340 1001 q 242 1014 272 990 q 184 1056 218 1032 q 115 1106 150 1079 q 51 1159 81 1132 q 7 1210 21 1186 q -3 1262 -7 1236 q 18 1308 0 1288 q 62 1336 35 1328 q 114 1333 89 1344 q 144 1319 129 1328 q 169 1300 158 1311 q 256 1219 214 1260 q 340 1136 299 1178 q 360 1035 390 1083 z "},"ë":{"ha":724,"x_min":29,"x_max":696,"o":"m 290 431 q 309 349 289 376 q 360 315 329 321 q 426 319 390 308 q 493 354 463 331 q 585 389 542 388 q 651 361 628 390 q 679 265 688 313 q 633 179 671 217 q 503 94 572 118 q 367 78 435 71 q 236 119 299 85 q 128 208 174 154 q 56 341 81 263 q 31 504 32 419 q 51 669 29 589 q 121 808 74 750 q 196 879 153 850 q 288 924 239 908 q 390 942 338 940 q 496 932 443 944 q 568 899 535 922 q 626 845 601 876 q 667 775 651 814 q 688 694 683 736 q 665 553 696 611 q 576 461 633 494 q 444 420 519 428 q 290 431 369 413 m 300 629 q 353 619 328 624 q 406 614 379 614 q 438 626 422 614 q 461 656 453 638 q 467 694 469 674 q 446 731 465 714 q 408 742 428 743 q 367 727 388 740 q 330 689 347 714 q 300 629 313 664 m 369 1125 q 344 1059 371 1088 q 281 1028 318 1031 q 246 1033 263 1026 q 216 1052 229 1040 q 194 1081 203 1064 q 185 1115 186 1097 q 209 1185 182 1157 q 276 1215 236 1214 q 341 1190 314 1217 q 369 1125 368 1163 m 617 1125 q 592 1059 618 1088 q 528 1028 565 1031 q 493 1033 510 1026 q 463 1052 476 1040 q 442 1081 450 1064 q 432 1115 433 1097 q 456 1185 429 1157 q 524 1215 483 1214 q 588 1190 561 1217 q 617 1125 615 1163 z "},"ê":{"ha":724,"x_min":29,"x_max":696,"o":"m 290 431 q 309 349 289 376 q 360 315 329 321 q 426 319 390 308 q 493 354 463 331 q 585 389 542 388 q 651 361 628 390 q 679 265 688 313 q 633 179 671 217 q 503 94 572 118 q 367 78 435 71 q 236 119 299 85 q 128 208 174 154 q 56 341 81 263 q 31 504 32 419 q 51 669 29 589 q 121 808 74 750 q 196 879 153 850 q 288 924 239 908 q 390 942 338 940 q 496 932 443 944 q 568 899 535 922 q 626 845 601 876 q 667 775 651 814 q 688 694 683 736 q 665 553 696 611 q 576 461 633 494 q 444 420 519 428 q 290 431 369 413 m 300 629 q 353 619 328 624 q 406 614 379 614 q 438 626 422 614 q 461 656 453 638 q 467 694 469 674 q 446 731 465 714 q 408 742 428 743 q 367 727 388 740 q 330 689 347 714 q 300 629 313 664 m 404 1157 q 362 1095 383 1126 q 310 1036 340 1064 q 264 1011 289 1018 q 213 1024 239 1004 q 188 1058 196 1038 q 190 1101 181 1079 q 222 1160 204 1132 q 259 1218 240 1189 q 297 1279 278 1247 q 332 1349 317 1311 q 363 1392 343 1375 q 411 1411 382 1408 q 467 1401 442 1414 q 501 1361 492 1389 q 531 1291 514 1325 q 566 1225 547 1257 q 603 1163 585 1193 q 636 1107 621 1133 q 643 1073 646 1090 q 629 1042 640 1056 q 601 1023 618 1029 q 564 1022 583 1017 q 474 1076 511 1038 q 404 1157 436 1115 z "},"é":{"ha":724,"x_min":29,"x_max":696,"o":"m 290 431 q 309 349 289 376 q 360 315 329 321 q 426 319 390 308 q 493 354 463 331 q 585 389 542 388 q 651 361 628 390 q 679 265 688 313 q 633 179 671 217 q 503 94 572 118 q 367 78 435 71 q 236 119 299 85 q 128 208 174 154 q 56 341 81 263 q 31 504 32 419 q 51 669 29 589 q 121 808 74 750 q 196 879 153 850 q 288 924 239 908 q 390 942 338 940 q 496 932 443 944 q 568 899 535 922 q 626 845 601 876 q 667 775 651 814 q 688 694 683 736 q 665 553 696 611 q 576 461 633 494 q 444 420 519 428 q 290 431 369 413 m 300 629 q 353 619 328 624 q 406 614 379 614 q 438 626 422 614 q 461 656 453 638 q 467 694 469 674 q 446 731 465 714 q 408 742 428 743 q 367 727 388 740 q 330 689 347 714 q 300 629 313 664 m 228 1054 q 247 1156 197 1103 q 331 1238 289 1197 q 418 1319 374 1279 q 444 1339 429 1331 q 474 1353 458 1347 q 526 1356 499 1364 q 569 1328 553 1347 q 591 1281 588 1307 q 581 1229 594 1256 q 537 1178 567 1206 q 472 1125 507 1151 q 403 1075 438 1099 q 346 1033 369 1051 q 281 1015 315 1010 q 228 1054 247 1021 z "},"è":{"ha":724,"x_min":29,"x_max":696,"o":"m 290 431 q 309 349 289 376 q 360 315 329 321 q 426 319 390 308 q 493 354 463 331 q 585 389 542 388 q 651 361 628 390 q 679 265 688 313 q 633 179 671 217 q 503 94 572 118 q 367 78 435 71 q 236 119 299 85 q 128 208 174 154 q 56 341 81 263 q 31 504 32 419 q 51 669 29 589 q 121 808 74 750 q 196 879 153 850 q 288 924 239 908 q 390 942 338 940 q 496 932 443 944 q 568 899 535 922 q 626 845 601 876 q 667 775 651 814 q 688 694 683 736 q 665 553 696 611 q 576 461 633 494 q 444 420 519 428 q 290 431 369 413 m 300 629 q 353 619 328 624 q 406 614 379 614 q 438 626 422 614 q 461 656 453 638 q 467 694 469 674 q 446 731 465 714 q 408 742 428 743 q 367 727 388 740 q 330 689 347 714 q 300 629 313 664 m 536 1083 q 483 1044 517 1050 q 418 1063 449 1039 q 360 1104 394 1081 q 292 1154 326 1128 q 227 1208 257 1181 q 183 1258 197 1235 q 173 1310 169 1285 q 194 1357 176 1336 q 238 1385 211 1376 q 290 1382 265 1393 q 320 1368 306 1376 q 346 1349 335 1360 q 433 1267 390 1308 q 517 1185 475 1226 q 536 1083 567 1132 z "},"å":{"ha":794,"x_min":15,"x_max":765,"o":"m 515 113 q 455 90 481 99 q 406 75 429 81 q 355 69 382 69 q 290 71 328 68 q 195 94 240 75 q 115 144 150 114 q 56 215 79 175 q 26 301 33 256 q 44 440 15 381 q 138 543 72 500 q 217 578 176 567 q 302 593 258 589 q 391 595 346 597 q 482 592 436 593 q 456 660 475 639 q 405 681 436 681 q 333 664 374 681 q 243 618 292 647 q 140 594 185 583 q 73 638 96 604 q 54 719 50 672 q 97 807 58 767 q 212 897 150 861 q 338 947 274 932 q 463 956 401 961 q 578 922 525 950 q 671 844 631 894 q 733 719 711 793 q 756 583 751 654 q 758 438 760 511 q 756 294 757 365 q 761 163 754 224 q 740 97 765 122 q 674 65 714 72 q 591 68 635 57 q 515 113 547 79 m 492 313 q 488 344 489 325 q 485 378 488 363 q 429 392 465 386 q 357 392 393 397 q 299 369 319 386 q 277 335 278 353 q 297 302 276 317 q 361 286 317 288 q 435 292 397 285 q 492 313 474 299 m 417 1040 q 323 1071 360 1042 q 274 1154 286 1100 q 273 1229 265 1192 q 301 1299 281 1267 q 351 1353 321 1331 q 419 1385 382 1376 q 513 1373 468 1396 q 585 1313 558 1350 q 606 1246 606 1281 q 592 1178 606 1211 q 554 1115 579 1144 q 500 1065 529 1086 q 417 1040 465 1040 m 396 1190 q 412 1163 396 1171 q 447 1164 428 1154 q 464 1175 453 1167 q 484 1194 475 1183 q 497 1217 493 1206 q 490 1238 500 1229 q 455 1257 472 1254 q 424 1252 438 1260 q 403 1228 411 1244 q 396 1190 396 1211 z "},"ä":{"ha":794,"x_min":15,"x_max":765,"o":"m 515 113 q 455 90 481 99 q 406 75 429 81 q 355 69 382 69 q 290 71 328 68 q 195 94 240 75 q 115 144 150 114 q 56 215 79 175 q 26 301 33 256 q 44 440 15 381 q 138 543 72 500 q 217 578 176 567 q 302 593 258 589 q 391 595 346 597 q 482 592 436 593 q 456 660 475 639 q 405 681 436 681 q 333 664 374 681 q 243 618 292 647 q 140 594 185 583 q 73 638 96 604 q 54 719 50 672 q 97 807 58 767 q 212 897 150 861 q 338 947 274 932 q 463 956 401 961 q 578 922 525 950 q 671 844 631 894 q 733 719 711 793 q 756 583 751 654 q 758 438 760 511 q 756 294 757 365 q 761 163 754 224 q 740 97 765 122 q 674 65 714 72 q 591 68 635 57 q 515 113 547 79 m 492 313 q 488 344 489 325 q 485 378 488 363 q 429 392 465 386 q 357 392 393 397 q 299 369 319 386 q 277 335 278 353 q 297 302 276 317 q 361 286 317 288 q 435 292 397 285 q 492 313 474 299 m 367 1135 q 342 1069 368 1097 q 278 1038 315 1040 q 243 1043 260 1036 q 213 1062 226 1050 q 192 1090 200 1074 q 182 1125 183 1107 q 206 1195 179 1167 q 274 1225 233 1224 q 338 1199 311 1226 q 367 1135 365 1172 m 614 1135 q 589 1069 615 1097 q 525 1038 563 1040 q 490 1043 507 1036 q 460 1062 474 1050 q 439 1090 447 1074 q 429 1125 431 1107 q 453 1195 426 1167 q 521 1225 481 1224 q 585 1199 558 1226 q 614 1135 613 1172 z "},"ã":{"ha":794,"x_min":15,"x_max":765,"o":"m 515 113 q 455 90 481 99 q 406 75 429 81 q 355 69 382 69 q 290 71 328 68 q 195 94 240 75 q 115 144 150 114 q 56 215 79 175 q 26 301 33 256 q 44 440 15 381 q 138 543 72 500 q 217 578 176 567 q 302 593 258 589 q 391 595 346 597 q 482 592 436 593 q 456 660 475 639 q 405 681 436 681 q 333 664 374 681 q 243 618 292 647 q 140 594 185 583 q 73 638 96 604 q 54 719 50 672 q 97 807 58 767 q 212 897 150 861 q 338 947 274 932 q 463 956 401 961 q 578 922 525 950 q 671 844 631 894 q 733 719 711 793 q 756 583 751 654 q 758 438 760 511 q 756 294 757 365 q 761 163 754 224 q 740 97 765 122 q 674 65 714 72 q 591 68 635 57 q 515 113 547 79 m 492 313 q 488 344 489 325 q 485 378 488 363 q 429 392 465 386 q 357 392 393 397 q 299 369 319 386 q 277 335 278 353 q 297 302 276 317 q 361 286 317 288 q 435 292 397 285 q 492 313 474 299 m 421 1261 q 458 1219 440 1242 q 496 1175 475 1196 q 520 1169 521 1150 q 519 1240 519 1188 q 537 1281 519 1267 q 577 1298 554 1296 q 622 1289 600 1300 q 653 1254 644 1278 q 665 1174 667 1213 q 651 1104 664 1135 q 614 1054 638 1074 q 560 1031 590 1035 q 515 1034 538 1028 q 474 1053 493 1040 q 436 1082 454 1065 q 404 1114 418 1099 q 358 1156 375 1146 q 328 1156 340 1165 q 308 1118 317 1146 q 289 1047 300 1090 q 269 1022 285 1032 q 219 1013 253 1011 q 168 1030 192 1013 q 149 1089 144 1047 q 176 1188 151 1136 q 238 1272 200 1239 q 323 1308 275 1304 q 421 1261 371 1311 z "},"â":{"ha":794,"x_min":15,"x_max":765,"o":"m 515 113 q 455 90 481 99 q 406 75 429 81 q 355 69 382 69 q 290 71 328 68 q 195 94 240 75 q 115 144 150 114 q 56 215 79 175 q 26 301 33 256 q 44 440 15 381 q 138 543 72 500 q 217 578 176 567 q 302 593 258 589 q 391 595 346 597 q 482 592 436 593 q 456 660 475 639 q 405 681 436 681 q 333 664 374 681 q 243 618 292 647 q 140 594 185 583 q 73 638 96 604 q 54 719 50 672 q 97 807 58 767 q 212 897 150 861 q 338 947 274 932 q 463 956 401 961 q 578 922 525 950 q 671 844 631 894 q 733 719 711 793 q 756 583 751 654 q 758 438 760 511 q 756 294 757 365 q 761 163 754 224 q 740 97 765 122 q 674 65 714 72 q 591 68 635 57 q 515 113 547 79 m 492 313 q 488 344 489 325 q 485 378 488 363 q 429 392 465 386 q 357 392 393 397 q 299 369 319 386 q 277 335 278 353 q 297 302 276 317 q 361 286 317 288 q 435 292 397 285 q 492 313 474 299 m 454 1160 q 412 1098 433 1129 q 360 1039 390 1067 q 314 1014 339 1021 q 263 1026 289 1007 q 238 1061 246 1040 q 240 1104 231 1082 q 272 1163 254 1135 q 309 1221 290 1192 q 347 1282 328 1250 q 382 1351 367 1314 q 413 1394 393 1378 q 461 1414 432 1411 q 517 1404 492 1417 q 551 1364 542 1392 q 581 1294 564 1328 q 616 1228 597 1260 q 653 1166 635 1196 q 686 1110 671 1136 q 693 1076 696 1093 q 679 1045 690 1058 q 651 1026 668 1032 q 614 1025 633 1019 q 524 1079 561 1040 q 454 1160 486 1118 z "},"á":{"ha":794,"x_min":15,"x_max":765,"o":"m 515 113 q 455 90 481 99 q 406 75 429 81 q 355 69 382 69 q 290 71 328 68 q 195 94 240 75 q 115 144 150 114 q 56 215 79 175 q 26 301 33 256 q 44 440 15 381 q 138 543 72 500 q 217 578 176 567 q 302 593 258 589 q 391 595 346 597 q 482 592 436 593 q 456 660 475 639 q 405 681 436 681 q 333 664 374 681 q 243 618 292 647 q 140 594 185 583 q 73 638 96 604 q 54 719 50 672 q 97 807 58 767 q 212 897 150 861 q 338 947 274 932 q 463 956 401 961 q 578 922 525 950 q 671 844 631 894 q 733 719 711 793 q 756 583 751 654 q 758 438 760 511 q 756 294 757 365 q 761 163 754 224 q 740 97 765 122 q 674 65 714 72 q 591 68 635 57 q 515 113 547 79 m 492 313 q 488 344 489 325 q 485 378 488 363 q 429 392 465 386 q 357 392 393 397 q 299 369 319 386 q 277 335 278 353 q 297 302 276 317 q 361 286 317 288 q 435 292 397 285 q 492 313 474 299 m 257 1086 q 276 1188 226 1135 q 360 1270 318 1229 q 447 1351 403 1311 q 473 1371 458 1363 q 503 1385 488 1379 q 555 1388 528 1396 q 599 1360 582 1379 q 620 1313 617 1339 q 610 1261 624 1288 q 566 1210 596 1238 q 501 1157 536 1183 q 433 1107 467 1131 q 375 1065 399 1083 q 310 1047 344 1042 q 257 1086 276 1053 z "},"à":{"ha":794,"x_min":15,"x_max":765,"o":"m 515 113 q 455 90 481 99 q 406 75 429 81 q 355 69 382 69 q 290 71 328 68 q 195 94 240 75 q 115 144 150 114 q 56 215 79 175 q 26 301 33 256 q 44 440 15 381 q 138 543 72 500 q 217 578 176 567 q 302 593 258 589 q 391 595 346 597 q 482 592 436 593 q 456 660 475 639 q 405 681 436 681 q 333 664 374 681 q 243 618 292 647 q 140 594 185 583 q 73 638 96 604 q 54 719 50 672 q 97 807 58 767 q 212 897 150 861 q 338 947 274 932 q 463 956 401 961 q 578 922 525 950 q 671 844 631 894 q 733 719 711 793 q 756 583 751 654 q 758 438 760 511 q 756 294 757 365 q 761 163 754 224 q 740 97 765 122 q 674 65 714 72 q 591 68 635 57 q 515 113 547 79 m 492 313 q 488 344 489 325 q 485 378 488 363 q 429 392 465 386 q 357 392 393 397 q 299 369 319 386 q 277 335 278 353 q 297 302 276 317 q 361 286 317 288 q 435 292 397 285 q 492 313 474 299 m 560 1086 q 506 1047 540 1053 q 442 1065 472 1042 q 384 1107 418 1083 q 315 1157 350 1131 q 251 1210 281 1183 q 207 1261 221 1238 q 197 1313 193 1288 q 218 1360 200 1339 q 262 1388 235 1379 q 314 1385 289 1396 q 344 1371 329 1379 q 369 1351 358 1363 q 456 1270 414 1311 q 540 1188 499 1229 q 560 1086 590 1135 z "},"ˇ":{"ha":618,"x_min":88,"x_max":553,"o":"m 311 1014 q 381 1094 343 1056 q 471 1149 418 1133 q 508 1148 490 1154 q 536 1128 525 1142 q 550 1098 547 1115 q 543 1064 553 1081 q 510 1007 528 1036 q 473 946 492 978 q 438 880 454 914 q 408 810 421 846 q 374 769 399 782 q 318 760 349 757 q 269 779 289 763 q 239 822 250 796 q 204 892 224 860 q 166 953 185 924 q 129 1010 147 982 q 97 1069 111 1039 q 95 1113 88 1092 q 119 1147 103 1133 q 171 1160 146 1167 q 217 1135 196 1153 q 269 1076 247 1107 q 311 1014 290 1044 z "},"Ž":{"ha":882,"x_min":39,"x_max":854,"o":"m 357 229 q 438 231 388 226 q 541 242 488 236 q 643 251 594 247 q 721 253 692 256 q 806 216 771 247 q 842 119 842 185 q 819 51 839 78 q 763 11 799 25 q 717 -4 739 1 q 671 -11 694 -10 q 473 -17 571 -15 q 276 -22 375 -19 q 222 -22 249 -22 q 169 -18 196 -21 q 98 8 128 -12 q 53 60 68 29 q 42 128 39 90 q 65 203 44 165 q 267 508 163 357 q 474 824 372 658 q 354 815 411 819 q 239 807 297 810 q 196 808 218 806 q 151 817 174 811 q 88 851 111 826 q 60 910 64 876 q 63 973 57 942 q 82 1028 68 1004 q 119 1068 96 1053 q 172 1083 142 1083 q 293 1087 226 1083 q 431 1097 360 1090 q 573 1114 501 1104 q 707 1136 644 1124 q 764 1133 738 1142 q 809 1107 790 1125 q 839 1063 828 1089 q 853 1011 850 1038 q 846 956 854 979 q 822 910 838 932 q 787 867 807 889 q 746 817 767 844 q 653 692 703 761 q 553 548 604 624 q 451 391 501 472 q 357 229 401 310 m 475 1433 q 544 1514 507 1475 q 635 1568 582 1553 q 672 1567 654 1574 q 700 1548 689 1561 q 714 1517 711 1535 q 707 1483 717 1500 q 674 1426 692 1456 q 637 1365 656 1397 q 601 1299 618 1333 q 572 1229 585 1265 q 538 1189 563 1201 q 482 1179 513 1176 q 433 1199 453 1182 q 403 1242 414 1215 q 368 1311 388 1279 q 330 1372 349 1343 q 293 1430 311 1401 q 261 1489 275 1458 q 259 1532 251 1511 q 283 1567 267 1553 q 335 1579 310 1586 q 381 1554 360 1572 q 433 1495 411 1526 q 475 1433 454 1464 z "},"ž":{"ha":731,"x_min":36,"x_max":701,"o":"m 421 738 q 349 728 393 732 q 258 726 306 724 q 163 739 210 728 q 85 774 117 750 q 44 832 53 797 q 46 897 36 867 q 81 948 56 928 q 144 963 107 968 q 251 956 196 957 q 358 955 306 954 q 460 958 411 956 q 549 963 508 960 q 633 944 599 963 q 685 892 668 925 q 697 817 701 860 q 663 729 692 775 q 576 608 621 665 q 485 497 531 550 q 397 392 440 443 q 317 289 354 340 q 372 295 339 292 q 442 299 404 299 q 517 297 479 300 q 589 282 556 293 q 647 251 622 271 q 683 197 672 231 q 686 149 690 174 q 668 103 682 124 q 632 71 654 83 q 582 58 610 58 q 423 58 508 60 q 253 50 338 57 q 140 65 188 46 q 68 121 92 83 q 50 212 44 158 q 97 328 56 265 q 170 427 131 381 q 249 522 210 474 q 337 627 293 575 q 421 738 381 679 m 397 1278 q 467 1358 429 1319 q 557 1413 504 1397 q 594 1412 576 1418 q 622 1392 611 1406 q 636 1362 633 1379 q 629 1328 639 1344 q 596 1271 614 1300 q 559 1210 578 1242 q 524 1144 540 1178 q 494 1074 507 1110 q 460 1033 485 1046 q 404 1024 435 1021 q 356 1043 375 1026 q 325 1086 336 1060 q 290 1156 310 1124 q 252 1217 271 1188 q 215 1274 233 1246 q 183 1333 197 1303 q 181 1376 174 1356 q 206 1411 189 1397 q 257 1424 232 1431 q 303 1399 282 1417 q 355 1340 333 1371 q 397 1278 376 1308 z "},"š":{"ha":742,"x_min":42,"x_max":701,"o":"m 410 610 q 515 555 463 581 q 614 483 568 529 q 682 377 663 433 q 694 266 701 321 q 655 163 686 211 q 571 81 624 114 q 468 41 526 51 q 357 33 410 31 q 278 45 321 35 q 194 73 235 56 q 117 116 153 90 q 61 175 82 142 q 48 252 42 215 q 76 317 54 289 q 149 360 107 356 q 236 343 192 365 q 269 325 247 338 q 314 304 290 313 q 359 296 338 296 q 393 315 381 296 q 395 354 404 335 q 367 393 386 374 q 303 437 338 421 q 228 478 269 453 q 115 581 156 521 q 65 705 74 642 q 80 827 57 768 q 160 928 103 886 q 350 994 243 992 q 430 990 386 996 q 516 970 474 985 q 596 933 558 956 q 657 881 633 911 q 678 805 681 843 q 656 739 675 767 q 586 688 628 697 q 499 697 544 679 q 465 712 488 701 q 417 728 442 722 q 371 733 393 735 q 339 711 349 731 q 351 656 326 682 q 410 610 375 629 m 410 1303 q 479 1383 442 1344 q 569 1438 517 1422 q 606 1437 589 1443 q 635 1417 624 1431 q 649 1387 646 1404 q 642 1353 651 1369 q 608 1296 626 1325 q 572 1235 590 1267 q 536 1169 553 1203 q 507 1099 519 1135 q 472 1058 497 1071 q 417 1049 447 1046 q 368 1068 388 1051 q 338 1111 349 1085 q 303 1181 322 1149 q 265 1242 283 1213 q 228 1299 246 1271 q 196 1358 210 1328 q 194 1401 186 1381 q 218 1436 201 1422 q 269 1449 244 1456 q 315 1424 294 1442 q 367 1365 346 1396 q 410 1303 389 1333 z "},"Š":{"ha":754,"x_min":31,"x_max":735,"o":"m 381 403 q 288 526 333 472 q 200 619 243 579 q 84 785 121 694 q 63 959 47 876 q 151 1101 78 1042 q 364 1171 224 1160 q 506 1154 435 1176 q 646 1065 576 1132 q 688 1016 669 1042 q 719 963 707 990 q 733 908 731 936 q 724 850 735 879 q 689 798 713 819 q 636 769 665 776 q 576 772 607 763 q 519 811 546 781 q 490 848 500 832 q 460 882 479 864 q 400 916 426 914 q 363 900 374 918 q 360 850 351 882 q 406 783 368 818 q 504 682 449 740 q 608 557 560 624 q 685 418 656 490 q 704 275 714 346 q 672 174 697 222 q 608 89 647 126 q 516 26 568 51 q 401 -3 464 1 q 260 14 331 -8 q 119 103 189 36 q 76 151 96 125 q 46 205 57 178 q 33 260 35 232 q 42 318 31 289 q 76 370 53 349 q 129 399 100 392 q 189 397 158 406 q 246 357 219 388 q 276 320 265 336 q 306 286 286 304 q 363 257 339 254 q 397 282 386 260 q 405 338 408 304 q 381 403 401 372 m 390 1503 q 460 1583 422 1544 q 550 1638 497 1622 q 587 1637 569 1643 q 615 1617 604 1631 q 629 1587 626 1604 q 622 1553 632 1569 q 589 1496 607 1525 q 552 1435 571 1467 q 517 1369 533 1403 q 488 1299 500 1335 q 453 1258 478 1271 q 397 1249 428 1246 q 349 1268 368 1251 q 318 1311 329 1285 q 283 1381 303 1349 q 245 1442 264 1413 q 208 1499 226 1471 q 176 1558 190 1528 q 174 1601 167 1581 q 199 1636 182 1622 q 250 1649 225 1656 q 296 1624 275 1642 q 348 1565 326 1596 q 390 1503 369 1533 z "},"Þ":{"ha":821,"x_min":35,"x_max":786,"o":"m 333 1046 q 347 988 342 1031 q 357 900 353 946 q 424 900 393 903 q 486 896 456 897 q 602 861 550 892 q 692 783 654 831 q 753 677 731 736 q 781 556 775 618 q 774 433 786 493 q 729 322 761 372 q 644 236 697 271 q 517 190 592 201 q 431 185 474 183 q 353 193 389 186 l 353 149 q 349 88 353 119 q 334 30 346 57 q 299 -17 322 3 q 238 -42 276 -36 q 174 -37 201 -44 q 128 -3 147 -31 q 83 113 101 36 q 54 285 65 189 q 39 486 43 381 q 36 690 35 592 q 44 869 38 788 q 63 997 51 950 q 86 1053 71 1031 q 121 1090 101 1076 q 164 1110 140 1104 q 211 1115 188 1115 q 281 1098 247 1114 q 333 1046 314 1082 m 363 672 q 361 561 363 618 q 358 442 360 504 q 415 438 385 438 q 485 452 457 438 q 526 490 513 467 q 538 542 539 514 q 524 595 538 569 q 483 641 510 621 q 417 668 456 661 q 363 672 389 672 z "},"þ":{"ha":961,"x_min":35,"x_max":932,"o":"m 333 1046 q 344 1010 339 1035 q 351 953 349 985 q 518 949 443 954 q 723 884 636 942 q 860 743 810 826 q 922 562 911 660 q 897 377 932 464 q 780 226 863 290 q 560 146 697 163 q 453 140 507 139 q 353 147 400 140 q 349 87 353 118 q 334 29 346 56 q 299 -17 322 3 q 238 -42 276 -36 q 174 -37 201 -44 q 128 -3 147 -31 q 83 113 101 36 q 54 285 65 189 q 39 486 43 381 q 36 690 35 592 q 44 869 38 788 q 63 997 51 950 q 86 1053 71 1031 q 121 1090 101 1076 q 164 1110 140 1104 q 211 1115 188 1115 q 281 1098 247 1114 q 333 1046 314 1082 m 363 694 q 358 431 363 572 q 388 428 374 428 q 421 428 401 428 q 534 449 490 428 q 597 501 578 469 q 609 569 615 533 q 574 635 603 606 q 491 683 544 665 q 363 694 438 700 z "},"©":{"ha":1117,"x_min":36,"x_max":1081,"o":"m 76 365 q 40 551 44 456 q 57 736 36 646 q 124 906 78 826 q 236 1045 169 986 q 391 1137 303 1104 q 586 1167 479 1169 q 787 1118 699 1164 q 936 999 875 1072 q 1032 832 997 926 q 1074 638 1067 738 q 1060 442 1081 539 q 989 264 1039 344 q 841 96 924 158 q 669 10 758 33 q 491 -1 581 -14 q 322 59 401 13 q 178 183 243 106 q 76 365 114 260 m 569 186 q 726 253 665 194 q 816 394 788 311 q 842 574 844 478 q 810 753 840 669 q 725 894 781 836 q 590 958 669 951 q 450 936 508 965 q 354 853 392 907 q 299 729 317 800 q 283 584 282 658 q 304 438 285 510 q 360 309 324 365 q 450 219 397 253 q 569 186 503 185 m 349 428 q 322 544 325 482 q 333 667 318 606 q 365 744 343 707 q 418 811 386 782 q 490 858 450 840 q 574 878 529 876 q 648 868 611 879 q 715 834 685 857 q 763 778 744 811 q 781 701 782 744 q 767 654 781 674 q 725 632 754 635 q 690 642 704 629 q 658 678 675 654 q 623 709 643 699 q 575 717 603 719 q 533 690 551 713 q 505 635 515 667 q 492 567 494 603 q 498 503 490 532 q 524 458 506 475 q 574 447 543 442 q 616 461 594 451 q 657 483 638 471 q 708 500 682 503 q 750 482 735 497 q 770 434 769 460 q 758 385 771 408 q 706 324 739 349 q 634 289 674 300 q 551 280 594 278 q 469 299 508 282 q 399 348 431 317 q 349 428 367 379 z "},"®":{"ha":924,"x_min":46,"x_max":883,"o":"m 79 563 q 50 698 54 628 q 63 834 46 768 q 117 958 81 900 q 207 1060 153 1017 q 331 1127 261 1103 q 488 1149 401 1151 q 648 1114 578 1147 q 767 1026 718 1081 q 844 904 817 972 q 878 763 872 836 q 867 619 883 690 q 810 489 850 547 q 692 365 758 411 q 554 302 625 319 q 412 294 483 285 q 276 338 340 304 q 161 429 213 372 q 79 563 110 486 m 469 451 q 604 498 551 457 q 681 598 657 539 q 704 724 706 657 q 677 850 703 792 q 603 949 651 908 q 489 994 556 989 q 338 963 397 1001 q 252 865 279 925 q 227 731 225 804 q 258 595 229 658 q 340 491 286 532 q 469 451 393 450 m 521 929 q 603 888 575 918 q 637 819 632 857 q 623 744 642 782 q 563 679 604 706 q 539 667 551 672 q 513 658 526 661 q 589 640 544 635 q 610 633 601 640 q 621 614 618 625 q 619 589 624 603 q 604 565 615 575 q 563 553 588 550 q 515 569 539 557 q 469 600 490 582 q 438 632 447 618 q 436 604 435 624 q 438 578 438 585 q 428 535 440 551 q 390 517 417 518 q 356 520 368 515 q 337 535 343 525 q 329 558 331 544 q 329 590 328 572 q 331 724 332 660 q 328 832 331 788 q 327 847 328 840 q 325 863 326 854 q 356 926 321 907 q 424 938 375 936 q 521 929 472 940 m 440 721 q 463 720 453 719 q 482 724 472 721 q 518 751 503 731 q 536 795 533 772 q 528 838 539 818 q 488 864 518 858 q 439 864 461 867 q 438 798 438 833 q 440 721 438 763 z "},"¼":{"ha":1239,"x_min":29,"x_max":1181,"o":"m 818 1003 q 878 1038 851 1032 q 947 1025 906 1044 q 990 997 971 1014 q 1020 960 1010 981 q 1028 919 1031 940 q 1006 878 1026 897 q 827 681 915 788 q 660 462 739 574 q 513 241 581 350 q 393 40 444 132 q 336 3 372 4 q 267 24 300 3 q 215 81 235 46 q 210 150 196 115 q 272 267 228 193 q 374 428 315 342 q 497 608 432 515 q 624 780 563 700 q 738 919 686 860 q 818 1003 789 979 m 111 810 q 41 846 53 828 q 53 900 29 864 q 99 964 75 929 q 146 1028 124 999 q 188 1057 158 1046 q 247 1068 217 1068 q 303 1056 278 1068 q 332 1017 328 1044 q 333 981 335 999 q 332 947 332 964 q 325 833 329 890 q 319 717 321 775 q 321 600 318 658 q 335 483 324 542 q 331 453 338 465 q 304 429 325 440 q 210 433 257 411 q 141 505 160 457 q 118 608 122 553 q 116 719 114 664 q 111 810 118 774 m 969 211 q 885 202 925 206 q 804 193 844 199 q 741 188 772 188 q 686 208 710 189 q 665 238 669 221 q 664 272 660 254 q 678 308 668 290 q 700 338 688 325 q 750 401 725 365 q 801 478 775 438 q 855 562 828 519 q 914 646 882 604 q 950 664 925 660 q 999 663 975 668 q 1038 642 1022 657 q 1046 607 1054 628 q 990 472 1022 542 q 899 322 958 403 q 943 325 922 324 q 988 328 964 326 q 1003 388 994 353 q 1029 446 1011 422 q 1058 469 1040 461 q 1100 475 1076 478 q 1181 414 1181 471 q 1175 326 1179 369 q 1168 238 1171 282 q 1165 148 1165 193 q 1171 57 1164 103 q 1151 10 1174 25 q 1099 -6 1129 -6 q 1038 10 1068 -6 q 994 53 1007 25 q 975 127 979 86 q 969 211 971 168 z "},"¹":{"ha":389,"x_min":36,"x_max":344,"o":"m 118 810 q 48 846 60 828 q 60 900 36 864 q 106 964 82 929 q 153 1028 131 999 q 194 1057 165 1046 q 254 1068 224 1068 q 310 1056 285 1068 q 339 1017 335 1044 q 340 981 342 999 q 339 947 339 964 q 332 833 336 890 q 326 717 328 775 q 328 600 325 658 q 342 483 331 542 q 338 453 344 465 q 311 429 332 440 q 217 433 264 411 q 148 505 167 457 q 125 608 129 553 q 123 719 121 664 q 118 810 125 774 z "},"¾":{"ha":1407,"x_min":46,"x_max":1349,"o":"m 986 1003 q 1047 1038 1019 1032 q 1115 1025 1074 1044 q 1158 997 1139 1014 q 1188 960 1178 981 q 1197 919 1199 940 q 1174 878 1194 897 q 995 681 1083 788 q 828 462 907 574 q 681 241 749 350 q 561 40 613 132 q 504 3 540 4 q 435 24 468 3 q 383 81 403 46 q 378 150 364 115 q 440 267 396 193 q 542 428 483 342 q 665 608 600 515 q 792 780 731 700 q 906 919 854 860 q 986 1003 957 979 m 1138 211 q 1053 202 1093 206 q 972 193 1013 199 q 909 188 940 188 q 854 208 878 189 q 833 238 838 221 q 832 272 828 254 q 846 308 836 290 q 868 338 856 325 q 918 401 893 365 q 969 478 943 438 q 1023 562 996 519 q 1082 646 1050 604 q 1118 664 1093 660 q 1167 663 1143 668 q 1206 642 1190 657 q 1214 607 1222 628 q 1158 472 1190 542 q 1067 322 1126 403 q 1111 325 1090 324 q 1156 328 1132 326 q 1171 388 1163 353 q 1197 446 1179 422 q 1226 469 1208 461 q 1268 475 1244 478 q 1349 414 1349 471 q 1343 326 1347 369 q 1336 238 1339 282 q 1333 148 1333 193 q 1339 57 1332 103 q 1319 10 1342 25 q 1267 -6 1297 -6 q 1206 10 1236 -6 q 1163 53 1175 25 q 1143 127 1147 86 q 1138 211 1139 168 m 206 907 q 167 885 189 889 q 126 888 144 881 q 94 913 107 896 q 81 953 81 929 q 103 1007 81 983 q 159 1047 125 1031 q 233 1071 193 1063 q 307 1082 272 1079 q 396 1072 354 1086 q 464 1031 438 1057 q 497 968 490 1004 q 483 892 504 932 q 458 852 472 872 q 431 813 444 832 q 453 799 443 806 q 535 708 511 758 q 543 594 558 657 q 504 507 532 546 q 435 442 476 468 q 343 404 394 415 q 235 399 292 393 q 176 413 207 403 q 118 438 144 422 q 72 476 92 454 q 49 525 53 497 q 55 558 46 543 q 78 581 64 572 q 111 591 93 589 q 146 586 129 593 q 201 569 172 572 q 260 569 231 567 q 326 599 297 572 q 358 657 356 625 q 353 688 361 678 q 331 703 344 699 q 299 709 317 708 q 265 711 282 710 q 225 719 242 713 q 199 746 208 726 q 210 811 179 783 q 243 841 226 828 q 276 869 260 854 q 324 919 313 900 q 329 946 335 938 q 307 955 324 954 q 270 950 290 956 q 231 933 250 944 q 206 907 213 921 z "},"³":{"ha":596,"x_min":46,"x_max":558,"o":"m 206 907 q 167 885 189 889 q 126 888 144 881 q 94 913 107 896 q 81 953 81 929 q 103 1007 81 983 q 159 1047 125 1031 q 233 1071 193 1063 q 307 1082 272 1079 q 396 1072 354 1086 q 464 1031 438 1057 q 497 968 490 1004 q 483 892 504 932 q 458 852 472 872 q 431 813 444 832 q 453 799 443 806 q 535 708 511 758 q 543 594 558 657 q 504 507 532 546 q 435 442 476 468 q 343 404 394 415 q 235 399 292 393 q 176 413 207 403 q 118 438 144 422 q 72 476 92 454 q 49 525 53 497 q 55 558 46 543 q 78 581 64 572 q 111 591 93 589 q 146 586 129 593 q 201 569 172 572 q 260 569 231 567 q 326 599 297 572 q 358 657 356 625 q 353 688 361 678 q 331 703 344 699 q 299 709 317 708 q 265 711 282 710 q 225 719 242 713 q 199 746 208 726 q 210 811 179 783 q 243 841 226 828 q 276 869 260 854 q 324 919 313 900 q 329 946 335 938 q 307 955 324 954 q 270 950 290 956 q 231 933 250 944 q 206 907 213 921 z "},"½":{"ha":1382,"x_min":29,"x_max":1326,"o":"m 818 1003 q 878 1038 851 1032 q 947 1025 906 1044 q 990 997 971 1014 q 1020 960 1010 981 q 1028 919 1031 940 q 1006 878 1026 897 q 827 681 915 788 q 660 462 739 574 q 513 241 581 350 q 393 40 444 132 q 336 3 372 4 q 267 24 300 3 q 215 81 235 46 q 210 150 196 115 q 272 267 228 193 q 374 428 315 342 q 497 608 432 515 q 624 780 563 700 q 738 919 686 860 q 818 1003 789 979 m 111 810 q 41 846 53 828 q 53 900 29 864 q 99 964 75 929 q 146 1028 124 999 q 188 1057 158 1046 q 247 1068 217 1068 q 303 1056 278 1068 q 332 1017 328 1044 q 333 981 335 999 q 332 947 332 964 q 325 833 329 890 q 319 717 321 775 q 321 600 318 658 q 335 483 324 542 q 331 453 338 465 q 304 429 325 440 q 210 433 257 411 q 141 505 160 457 q 118 608 122 553 q 116 719 114 664 q 111 810 118 774 m 1086 126 q 1127 126 1103 126 q 1177 124 1151 125 q 1228 119 1203 122 q 1272 113 1253 117 q 1313 88 1299 104 q 1322 56 1326 71 q 1305 21 1319 36 q 1267 7 1290 6 q 1169 3 1218 7 q 1072 -6 1119 -1 q 983 -16 1025 -11 q 908 -21 942 -21 q 827 9 853 -21 q 818 79 801 39 q 858 142 829 113 q 918 201 886 171 q 977 261 943 226 q 1043 335 1011 296 q 1098 414 1075 374 q 1124 490 1121 454 q 1121 516 1125 504 q 1105 533 1117 528 q 1073 535 1093 539 q 1022 517 1053 532 q 990 497 1006 508 q 963 473 975 485 q 942 452 951 461 q 929 440 933 443 q 885 427 908 426 q 841 438 861 428 q 810 465 821 447 q 804 506 799 483 q 858 583 813 547 q 968 641 904 619 q 1101 664 1032 663 q 1228 636 1171 665 q 1286 589 1265 615 q 1314 532 1307 563 q 1315 468 1321 501 q 1296 401 1310 435 q 1208 260 1263 326 q 1086 126 1153 193 z "},"²":{"ha":667,"x_min":67,"x_max":594,"o":"m 354 538 q 395 537 371 538 q 445 535 419 536 q 496 531 471 533 q 540 524 521 528 q 581 499 567 515 q 590 467 594 482 q 573 432 588 447 q 535 418 558 417 q 437 414 486 418 q 340 405 388 410 q 251 395 293 400 q 176 390 210 390 q 95 420 121 390 q 86 490 69 450 q 126 553 97 524 q 186 613 154 582 q 245 672 211 638 q 311 746 279 707 q 366 825 343 785 q 392 901 389 865 q 389 927 393 915 q 373 944 385 939 q 341 947 361 950 q 290 928 321 943 q 258 908 274 919 q 231 884 243 896 q 210 863 219 872 q 197 851 201 854 q 153 838 176 838 q 109 849 129 839 q 78 876 89 858 q 72 917 67 894 q 126 994 81 958 q 236 1052 172 1031 q 369 1075 300 1074 q 496 1047 439 1076 q 554 1000 533 1026 q 582 943 575 974 q 583 879 589 913 q 564 813 578 846 q 476 671 531 738 q 354 538 421 604 z "}}}
